<?xml version="1.0" encoding="UTF-8" standalone="no"?>
<!-- Created with Inkscape (http://www.inkscape.org/) -->

<svg
   xmlns:dc="http://purl.org/dc/elements/1.1/"
   xmlns:cc="http://creativecommons.org/ns#"
   xmlns:rdf="http://www.w3.org/1999/02/22-rdf-syntax-ns#"
   xmlns:svg="http://www.w3.org/2000/svg"
   xmlns="http://www.w3.org/2000/svg"
   xmlns:sodipodi="http://sodipodi.sourceforge.net/DTD/sodipodi-0.dtd"
   xmlns:inkscape="http://www.inkscape.org/namespaces/inkscape"
   width="150"
   height="175"
   id="svg2"
   version="1.1"
   inkscape:version="0.91 r13725"
   sodipodi:docname="desert.svg">
  <defs
     id="defs4" />
  <sodipodi:namedview
     id="base"
     pagecolor="#ffffff"
     bordercolor="#666666"
     borderopacity="1.0"
     inkscape:pageopacity="0.0"
     inkscape:pageshadow="2"
     inkscape:zoom="1.4"
     inkscape:cx="-166.51643"
     inkscape:cy="141.80077"
     inkscape:document-units="px"
     inkscape:current-layer="layer1"
     showgrid="false"
     inkscape:window-width="1722"
     inkscape:window-height="812"
     inkscape:window-x="149"
     inkscape:window-y="94"
     inkscape:window-maximized="0">
    <inkscape:grid
       type="xygrid"
       id="grid2987"
       empspacing="5"
       visible="true"
       enabled="true"
       snapvisiblegridlinesonly="true" />
  </sodipodi:namedview>
  <metadata
     id="metadata7">
    <rdf:RDF>
      <cc:Work
         rdf:about="">
        <dc:format>image/svg+xml</dc:format>
        <dc:type
           rdf:resource="http://purl.org/dc/dcmitype/StillImage" />
        <dc:title />
      </cc:Work>
    </rdf:RDF>
  </metadata>
  <g
     inkscape:label="Layer 1"
     inkscape:groupmode="layer"
     id="layer1"
     transform="translate(0,-877.36218)">
    <path
       sodipodi:type="star"
       style="fill:#d4cd98;fill-opacity:1;stroke:none"
       id="path2985"
       sodipodi:sides="6"
       sodipodi:cx="100.51018"
       sodipodi:cy="130.49997"
       sodipodi:r1="109.09764"
       sodipodi:r2="94.481331"
       sodipodi:arg1="-1.5661667"
       sodipodi:arg2="-1.042568"
       inkscape:flatsided="true"
       inkscape:rounded="6.5919492e-17"
       inkscape:randomized="0"
       d="M 101.01526,21.403498 195.24303,76.389145 194.73795,185.48562 100.0051,239.59644 5.7773218,184.61079 6.2824013,75.514322 Z"
       transform="matrix(0.79169998,0,0,0.80204244,-4.5739081,860.19567)" />
    <g
       transform="matrix(0.06350067,0,0,0.06350067,27.336991,918.93512)"
       inkscape:label="Layer 1"
       id="layer1-1">
      <g
         id="g3695">
        <path
           d="m 263,76.362 4,245 c -15,6.207 -30,9.9986 -45,3 -6.7618,-15.096 -12.888,-34.007 -17,-65 -10.969,-17.419 -35.49,-10.658 -31,7 2.3623,122.01 11.699,97.095 19,108 53.395,11.047 46.812,0.10026 74,4 l -8,200 118,0 -13,-304 c 12.207,5.8838 33.132,9.7461 48,-3 12.986,-17.478 10.319,-51.878 10,-80 -2.5637,-28.266 -37.319,-19.838 -36,-6 -0.62079,12.046 5.4574,34.791 -3,39 -7.8617,9.1134 -18.503,-9.6561 -24,-10 l -9,-139 c -11.724,-52.794 -89.057,-43.8 -87,1 z"
           style="fill:#225500"
           sodipodi:nodetypes="ccccccccccccccccc"
           id="path2816"
           inkscape:connector-curvature="0" />
        <path
           d="m 281,62.362 c 9.1143,177.8 5.9761,340.9 2,503 16.728,89.078 17.653,-522 -2,-503 z"
           style="fill:#338000"
           sodipodi:nodetypes="ccc"
           id="path3592"
           inkscape:connector-curvature="0" />
        <path
           d="m 304.01,61.359 c 11.49,176.41 13.66,338.24 15.2,499.07 14.59,88.38 -1.43,-517.92 -15.2,-499.07 z"
           style="fill:#338000"
           sodipodi:nodetypes="ccc"
           id="path3594"
           inkscape:connector-curvature="0" />
        <path
           d="m 332,65.506 c 10.099,171.73 11.006,329.44 11.284,486.18 13.897,85.859 2.6264,-504.84 -11.284,-486.18 z"
           style="fill:#338000"
           sodipodi:nodetypes="ccc"
           id="path3596"
           inkscape:connector-curvature="0" />
        <path
           d="m 264,100.36 23,-5 -2,10 -21,-5 z"
           style="fill:#8a916f"
           id="path3628"
           inkscape:connector-curvature="0" />
        <path
           d="m 290,202.36 23,-5 -2,10 -21,-5 z"
           style="fill:#8a916f"
           id="path3630"
           inkscape:connector-curvature="0" />
        <path
           d="m 320,266.36 23,-5 -2,10 -21,-5 z"
           style="fill:#8a916f"
           id="path3632"
           inkscape:connector-curvature="0" />
        <path
           d="m 267,374.36 23,-5 -2,10 -21,-5 z"
           style="fill:#8a916f"
           id="path3634"
           inkscape:connector-curvature="0" />
        <path
           d="m 300,490.36 23,-5 -2,10 -21,-5 z"
           style="fill:#8a916f"
           id="path3636"
           inkscape:connector-curvature="0" />
        <path
           d="m 359,104.36 -23,-5 2,10 21,-5 z"
           style="fill:#8a916f"
           id="path3638"
           inkscape:connector-curvature="0" />
        <path
           d="m 367,370.36 -23,-5 2,10 21,-5 z"
           style="fill:#8a916f"
           id="path3640"
           inkscape:connector-curvature="0" />
        <path
           d="m 370,520.36 -23,-5 2,10 21,-5 z"
           style="fill:#8a916f"
           id="path3642"
           inkscape:connector-curvature="0" />
        <path
           d="m 434,197.36 -23,-5 2,10 21,-5 z"
           style="fill:#8a916f"
           id="path3644"
           inkscape:connector-curvature="0" />
        <path
           d="m 227,298.36 -23,-5 2,10 21,-5 z"
           style="fill:#8a916f"
           id="path3646"
           inkscape:connector-curvature="0" />
        <path
           d="m 415.83,154.17 -20.082,22.388 13.035,3.5406 7.047,-25.928 z"
           style="fill:#8a916f"
           id="path3648"
           inkscape:connector-curvature="0" />
        <path
           d="m 320.83,110.17 -20.082,22.388 13.035,3.5406 7.047,-25.928 z"
           style="fill:#8a916f"
           id="path3650"
           inkscape:connector-curvature="0" />
        <path
           d="m 351.83,151.17 -20.082,22.388 13.035,3.5406 7.047,-25.928 z"
           style="fill:#8a916f"
           id="path3652"
           inkscape:connector-curvature="0" />
        <path
           d="m 301.83,289.17 -20.082,22.388 13.035,3.5406 7.047,-25.928 z"
           style="fill:#8a916f"
           id="path3654"
           inkscape:connector-curvature="0" />
        <path
           d="m 210.83,242.17 -20.082,22.388 13.035,3.5406 7.047,-25.928 z"
           style="fill:#8a916f"
           id="path3656"
           inkscape:connector-curvature="0" />
        <path
           d="m 300.83,425.17 -20.082,22.388 13.035,3.5406 7.047,-25.928 z"
           style="fill:#8a916f"
           id="path3658"
           inkscape:connector-curvature="0" />
        <path
           d="m 333.83,370.17 -20.082,22.388 13.035,3.5406 7.047,-25.928 z"
           style="fill:#8a916f"
           id="path3660"
           inkscape:connector-curvature="0" />
        <path
           d="m 347.83,42.169 -20.082,22.388 13.035,3.5406 7.047,-25.928 z"
           style="fill:#8a916f"
           id="path3662"
           inkscape:connector-curvature="0" />
        <path
           d="m 165.74,271.17 20.082,22.388 -13.035,3.5406 -7.047,-25.928 z"
           style="fill:#8a916f"
           id="path3664"
           inkscape:connector-curvature="0" />
        <path
           d="m 182.74,331.17 20.082,22.388 -13.035,3.5406 -7.047,-25.928 z"
           style="fill:#8a916f"
           id="path3666"
           inkscape:connector-curvature="0" />
        <path
           d="m 278.74,149.17 20.082,22.388 -13.035,3.5406 -7.047,-25.928 z"
           style="fill:#8a916f"
           id="path3668"
           inkscape:connector-curvature="0" />
        <path
           d="m 294.74,45.169 20.082,22.388 -13.035,3.5406 -7.047,-25.928 z"
           style="fill:#8a916f"
           id="path3670"
           inkscape:connector-curvature="0" />
        <path
           d="m 336.74,310.17 20.082,22.388 -13.035,3.5406 -7.047,-25.928 z"
           style="fill:#8a916f"
           id="path3672"
           inkscape:connector-curvature="0" />
        <path
           d="m 381.74,203.17 20.082,22.388 -13.035,3.5406 -7.047,-25.928 z"
           style="fill:#8a916f"
           id="path3674"
           inkscape:connector-curvature="0" />
        <path
           d="m 245.74,309.17 20.082,22.388 -13.035,3.5406 -7.047,-25.928 z"
           style="fill:#8a916f"
           id="path3676"
           inkscape:connector-curvature="0" />
        <path
           d="m 188,278.36 c 19.734,50.308 24.952,86.342 71,84 -48.435,1.3202 -67.623,-11.006 -71,-84 z"
           style="fill:#338000"
           sodipodi:nodetypes="ccc"
           id="path3693"
           inkscape:connector-curvature="0" />
        <path
           d="m 415,212.36 c -13.619,32.962 -17.22,56.572 -49,55.037 33.427,0.86498 46.669,-7.2109 49,-55.037 z"
           style="fill:#338000"
           sodipodi:nodetypes="ccc"
           id="path3691"
           inkscape:connector-curvature="0" />
      </g>
    </g>
    <g
       transform="matrix(0.0492007,0.02312068,-0.02312068,0.0492007,82.425468,958.08407)"
       inkscape:label="Camada 1"
       id="layer1-3">
      <path
         d="m 483.79,307.6 c -5.42,0 -7.79,5.78 -8.51,19.14 -2.53,47.79 -0.18,68.14 9.57,76.56 3.47,3.01 5.65,7.14 7.44,13.83 0.67,0.43 1.51,0.6 2.13,1.06 9.05,6.78 10.86,12.16 14.89,20.21 4.25,8.5 5.31,15.6 5.31,25.52 l 0,24.45 c 0,10.35 3.17,14.78 5.32,23.4 2.45,9.8 4.27,18.08 12.76,22.33 6.51,3.26 17.77,1.06 25.52,1.06 9.92,0 16.35,-19.07 18.08,-23.39 2.46,-6.15 2.13,-15.08 2.13,-23.4 l 0,-24.45 c 0,-11.05 0.91,-15.65 4.25,-22.33 3.05,-6.09 5.95,-15.27 7.45,-21.27 1.17,-4.7 4.34,-7.42 8.5,-9.57 0.21,-3.1 0.44,-4.66 2.13,-5.32 4.93,-1.93 11.92,-19.82 12.76,-34.03 0.96,-16.37 -4.45,-17.19 -6.38,-1.06 -1.69,14.44 -11.46,30.94 -18.08,31.9 -3.61,0.48 -4.47,3.41 -5.31,10.63 -0.61,5.42 -3.84,14.51 -7.45,21.27 -6.26,11.86 -12.06,35.18 -11.7,49.98 0.12,4.09 -0.44,7.86 -2.12,8.51 -1.81,0.61 -3.19,2.68 -3.19,5.32 0,2.63 -1.15,8.93 -3.19,13.82 -3.98,9.45 -7.75,12.22 -4.26,3.19 2.65,-7.05 -0.04,-20.91 -4.25,-22.33 -2.41,-0.8 -3.33,-0.28 -2.13,5.32 2.41,10.9 -1.7,11.88 -5.31,1.06 -5.9,-17.91 -8.73,-5.01 -3.19,14.89 2.88,10.29 -3.72,1.03 -7.45,-10.64 -3.97,-11.89 -3.97,-13.2 0,-23.39 2.89,-7.77 3.09,-14.86 2.13,-25.52 -1.45,-16.99 -10.92,-42.92 -14.89,-41.48 -2.89,1.21 -2.89,1.99 0,9.57 2.29,5.76 -11.74,-10.13 -15.95,-18.07 -1.69,-3.25 -3.75,-4.74 -5.32,-4.26 -5.29,1.81 -11.65,-7.46 -13.82,-19.14 -4.82,-26.48 -5.38,-32.96 -2.13,-32.96 1.45,0 1.79,-1.27 1.07,-3.19 -0.73,-1.93 -0.14,-3.19 1.06,-3.19 1.2,0 1.78,-6.85 1.06,-13.83 -0.96,-8.54 -0.74,-12.74 1.07,-13.82 3.37,-2.05 3.37,-6.38 0,-6.38 z"
         style="fill:#000000;stroke-width:0;stroke-miterlimit:10.43299961"
         id="path17088"
         inkscape:connector-curvature="0" />
      <path
         d="m 737,188.99 -0.24,0.24 -0.24,0.36 -0.25,0.36 -0.36,0.49 -0.24,0.36 -0.24,0.48 -0.24,0.48 -0.24,0.48 -0.36,0.48 -0.24,0.48 -0.48,1.09 -0.48,0.96 -0.49,1.08 -0.48,1.09 -0.48,1.08 -0.24,0.48 -0.12,0.6 -0.24,0.49 -0.12,0.48 -0.12,0.48 -0.12,0.36 -0.12,0.48 -0.12,0.48 -0.12,0.36 -0.12,0.36 0,0.37 -0.12,0.36 c -0.61,5.41 -37.92,36.71 -51.52,43.09 -8.31,3.85 -18.9,9.63 -23.6,12.76 -13.84,9.51 -46.58,18.9 -64.04,18.54 -8.18,-0.12 -16.37,-0.24 -18.05,-0.12 -1.69,0.12 -18.3,0.72 -36.96,1.56 -18.66,0.85 -35.27,2.53 -36.83,3.73 -1.93,1.57 -4.7,1.33 -8.31,-0.6 -3.13,-1.56 -9.39,-3.13 -14.2,-3.37 -10.59,-0.6 -33.95,-11.19 -46.35,-20.82 -4.81,-3.85 -9.99,-7.1 -11.19,-7.1 -2.77,0 -51.4,-47.67 -57.78,-56.7 -3.37,-4.82 -5.9,-6.26 -8.91,-5.18 -5.9,2.41 -5.41,4.94 4.34,24.08 4.45,9.03 8.3,17.81 8.3,19.26 0,1.56 4.09,8.18 9.15,14.92 5.18,6.87 12.52,16.98 16.73,23 8.55,12.39 18.3,22.75 29.85,31.53 4.34,3.37 11.44,9.03 15.53,12.4 10.72,9.03 22.87,14.81 28.89,13.72 4.34,-0.72 3.37,-1.8 -5.53,-5.89 -6.14,-2.65 -12.64,-6.87 -14.69,-9.27 -1.93,-2.41 -11.07,-9.99 -20.58,-16.98 -9.39,-7.1 -20.23,-17.33 -24.32,-23.23 -7.34,-10.71 -10.59,-14.92 -18.9,-24.79 -5.54,-6.5 -16.85,-28.41 -15.41,-29.86 0.61,-0.6 3.25,1.45 5.9,4.82 8.31,10.47 42.25,40.44 50.08,44.05 4.09,1.93 13.6,7.11 20.94,11.44 20.83,12.52 32.74,16.73 39.73,14.08 3.85,-1.44 6.62,-1.44 7.58,0.12 1.08,1.57 3.13,1.09 5.78,-1.32 3.13,-2.89 4.69,-3.13 6.86,-0.96 2.05,2.04 3.73,1.92 6.5,-0.24 2.53,-2.17 9.39,-2.65 23.71,-1.57 11.08,0.72 29.37,1.45 40.81,1.45 11.31,0 23.59,1.2 27.32,2.76 5.3,2.17 7.71,1.93 10.96,-0.84 2.29,-2.04 10.59,-6.14 18.66,-9.03 23.95,-9.02 39.96,-16.97 41.41,-20.82 0.84,-1.93 8.42,-6.98 16.61,-10.95 9.27,-4.34 17.81,-10.72 21.91,-16.01 9.75,-12.76 10.47,-8.19 0.96,5.89 -11.8,17.22 -48.63,49.84 -71.26,62.72 -10.6,6.14 -22.27,13.24 -25.76,15.53 l -6.5,4.45 -1.45,-7.58 c -0.72,-4.1 -0.36,-8.79 0.96,-10.36 3.01,-3.61 0.73,-6.25 -3.85,-4.57 -1.92,0.84 -3.49,3.73 -3.61,6.62 -0.24,4.09 -0.48,4.33 -1.32,0.96 -0.72,-2.88 -3.49,-4.33 -8.31,-4.33 -7.58,0 -9.63,3.49 -3.49,5.78 2.17,0.72 3.61,2.89 3.61,5.05 0,2.17 1.09,3.74 2.41,3.74 1.32,0 2.53,2.4 2.53,4.93 0,2.77 1.68,5.66 3.61,6.38 1.92,0.72 3.61,2.89 3.61,4.7 0,5.41 4.69,3.97 6.14,-1.93 0.96,-3.73 5.05,-6.98 12.76,-10.11 16.73,-6.74 46.46,-25.04 57.54,-35.39 31.29,-29.61 44.29,-43.94 49.71,-54.65 3.37,-6.74 6.74,-12.52 7.83,-13 0.96,-0.48 1.8,-2.65 1.8,-4.82 0,-2.16 2.29,-7.7 4.94,-12.03 6.26,-10.12 6.26,-17.46 0.24,-17.46 -2.41,0 -5.66,1.45 -6.86,3.01 z"
         style="fill:#000000;stroke-width:0;stroke-miterlimit:10.43299961"
         id="path19378"
         inkscape:connector-curvature="0" />
      <path
         d="m 567.75,354.87 -1.08,2.52 -0.97,2.53 -0.84,2.41 -0.84,2.53 -0.72,2.4 -0.73,2.41 -0.6,2.29 -0.48,2.29 -0.48,2.16 -0.48,2.17 -0.12,0.96 -0.12,1.09 -0.12,0.96 -0.12,0.96 -0.12,0.97 -0.12,0.84 0,0.96 -0.12,0.84 0,0.85 0,0.84 0,0.72 0,0.72 0,0.73 0.12,0.72 0,0.6 0.12,0.6 0.12,0.6 0.12,0.61 0.12,0.48 0.24,0.48 0.12,0.48 0.24,0.36 0.12,0.36 0.24,0.36 0.24,0.24 0.36,0.24 0.24,0.12 0.24,0.13 0.37,0.12 0.36,0.12 0.24,0 0.36,-0.12 0.48,-0.12 0.36,-0.13 0.36,-0.12 0.48,-0.24 0.36,-0.36 0.49,-0.36 0.48,-0.36 0.48,-0.48 0.6,-0.48 0.48,-0.6 0.48,-0.61 0.61,-0.72 c 7.94,-10.23 19.01,-34.3 19.01,-41.29 0,-6.26 -5.41,-11.91 -11.55,-11.91 -1.2,0 -5.3,7.34 -9.03,16.13 z"
         style="fill:#000000;stroke-width:0;stroke-miterlimit:10.43299961"
         id="path19428"
         inkscape:connector-curvature="0" />
      <path
         d="m 496.25,345.84 -0.12,0.24 0,0.24 0,0.36 0,0.24 0,0.24 0,0.24 0,0.24 -0.12,0.24 0,0.25 0,0.24 -0.12,0.12 0,0.24 -0.12,0.24 0,0.12 -0.12,0.24 0,0.12 -0.12,0.24 0,0.12 -0.12,0.12 -0.12,0.12 0,0.12 -0.12,0.12 -0.13,0.12 -0.12,0.12 0,0.12 -0.12,0 -0.12,0.12 -0.12,0 -0.12,0.12 -0.12,0 -0.12,0 c -1.2,0 -2.77,3.37 -3.73,7.83 -1.32,6.5 0.12,10.11 8.79,22.99 5.78,8.55 11.55,15.29 13.24,15.29 5.78,0 10.35,-3.13 10.35,-7.1 0,-2.17 1.2,-5.3 2.65,-6.63 1.68,-1.68 1.68,-4.69 -0.12,-9.26 -3.49,-9.03 -17.33,-30.34 -19.74,-30.34 -0.97,0 -3.37,-0.6 -5.54,-1.44 -2.77,-1.09 -3.85,0 -3.85,3.61 z"
         style="fill:#000000;stroke-width:0;stroke-miterlimit:10.43299961"
         id="path19430"
         inkscape:connector-curvature="0" />
      <path
         d="m 497.93,363.65 0,0.12 -0.12,0 0,0.12 0,0.12 -0.12,0 0,0.13 0,0.12 -0.12,0 0,0.12 -0.12,0 -0.12,0 -0.12,0 0,-0.12 -0.12,0 0,-0.12 0,-0.13 -0.12,-0.12 0,-0.12 0,-0.12 -0.12,-0.12 0,-0.12 0,-0.12 0,-0.12 0,-0.12 0,-0.12 0,-0.12 -0.12,-0.12 0,-0.12 0,-0.12 0,-0.12 0,-0.12 0,-0.12 0,-0.12 0,-0.12 0,-0.24 0,-0.12 0,-0.12 0,-0.12 0,-0.12 0,-0.24 0,-0.13 0,-0.12 c 0,-3.37 0.48,-4.69 1.2,-3 0.73,1.68 0.73,4.33 0,6.01 z"
         style="fill:#000000;stroke-width:0;stroke-miterlimit:10.43299961"
         id="path19432"
         inkscape:connector-curvature="0" />
    </g>
  </g>
</svg>
