<?xml version="1.0" encoding="UTF-8" standalone="no"?>
<!-- Created with Inkscape (http://www.inkscape.org/) -->

<svg
   xmlns:osb="http://www.openswatchbook.org/uri/2009/osb"
   xmlns:dc="http://purl.org/dc/elements/1.1/"
   xmlns:cc="http://creativecommons.org/ns#"
   xmlns:rdf="http://www.w3.org/1999/02/22-rdf-syntax-ns#"
   xmlns:svg="http://www.w3.org/2000/svg"
   xmlns="http://www.w3.org/2000/svg"
   xmlns:sodipodi="http://sodipodi.sourceforge.net/DTD/sodipodi-0.dtd"
   xmlns:inkscape="http://www.inkscape.org/namespaces/inkscape"
   width="256"
   height="512"
   viewBox="0 0 67.733332 135.46667"
   version="1.1"
   id="svg8"
   inkscape:version="0.92.4 (5da689c313, 2019-01-14)"
   sodipodi:docname="tile-desert.svg"
   inkscape:export-filename="/home/paul/code/private/pio-code/pioneers/ogre_resources/textures/tile-desert.svg.png"
   inkscape:export-xdpi="96"
   inkscape:export-ydpi="96">
  <defs
     id="defs2">
    <linearGradient
       id="linearGradient5667"
       osb:paint="gradient">
      <stop
         style="stop-color:#ffffff;stop-opacity:1;"
         offset="0"
         id="stop5663" />
      <stop
         style="stop-color:#ffffff;stop-opacity:0;"
         offset="1"
         id="stop5665" />
    </linearGradient>
    <linearGradient
       id="linearGradient5551"
       osb:paint="solid">
      <stop
         style="stop-color:#ffffff;stop-opacity:1;"
         offset="0"
         id="stop5549" />
    </linearGradient>
    <filter
       inkscape:collect="always"
       style="color-interpolation-filters:sRGB"
       id="filter4756"
       x="-0.11140552"
       width="1.222811"
       y="-0.60994391"
       height="2.2198878">
      <feGaussianBlur
         inkscape:collect="always"
         stdDeviation="0.9606032"
         id="feGaussianBlur4758" />
    </filter>
    <filter
       inkscape:collect="always"
       style="color-interpolation-filters:sRGB"
       id="filter4756-6"
       x="-0.11140552"
       width="1.222811"
       y="-0.60994393"
       height="2.2198877">
      <feGaussianBlur
         inkscape:collect="always"
         stdDeviation="0.9606032"
         id="feGaussianBlur4758-7" />
    </filter>
    <filter
       inkscape:collect="always"
       style="color-interpolation-filters:sRGB"
       id="filter4756-3"
       x="-0.11140552"
       width="1.222811"
       y="-0.60994393"
       height="2.2198877">
      <feGaussianBlur
         inkscape:collect="always"
         stdDeviation="0.9606032"
         id="feGaussianBlur4758-5" />
    </filter>
    <pattern
       patternUnits="userSpaceOnUse"
       width="96.495328"
       height="105.35715"
       patternTransform="matrix(0.26458333,0,0,0.26458333,-63.122021,219.70386)"
       id="pattern5540">
      <g
         id="g5538"
         transform="matrix(3.7795276,0,0,3.7795276,238.57142,-830.37678)">
        <rect
           style="fill:#3751ff;fill-opacity:1;stroke:none;stroke-width:1.37850463;stroke-miterlimit:4;stroke-dasharray:none;stroke-opacity:1"
           id="rect4517"
           width="25.531055"
           height="27.875746"
           x="-63.122021"
           y="219.70386" />
        <path
           style="fill:none;stroke:#ffffff;stroke-width:1;stroke-linecap:butt;stroke-linejoin:miter;stroke-miterlimit:4;stroke-dasharray:none;stroke-opacity:1;filter:url(#filter4756)"
           d="m -60.627381,233.97246 c 4.063246,-2.07887 5.953125,-3.68527 9.543899,-2.36236 3.590774,1.32292 11.150298,-1.41741 11.150298,-1.41741"
           id="path4534"
           inkscape:connector-curvature="0" />
        <path
           style="fill:none;stroke:#ffffff;stroke-width:1;stroke-linecap:butt;stroke-linejoin:miter;stroke-miterlimit:4;stroke-dasharray:none;stroke-opacity:1;filter:url(#filter4756-6)"
           d="m -60.629395,243 c 4.063246,-2.07887 5.953125,-3.68527 9.543899,-2.36236 3.590774,1.32292 11.150298,-1.41741 11.150298,-1.41741"
           id="path4534-5"
           inkscape:connector-curvature="0" />
        <path
           style="fill:none;stroke:#ffffff;stroke-width:1;stroke-linecap:butt;stroke-linejoin:miter;stroke-miterlimit:4;stroke-dasharray:none;stroke-opacity:1;filter:url(#filter4756-3)"
           d="m -60.674628,226.50743 c 4.063246,-2.07887 5.953125,-3.68527 9.543899,-2.36236 3.590774,1.32292 11.150298,-1.41741 11.150298,-1.41741"
           id="path4534-6"
           inkscape:connector-curvature="0" />
      </g>
    </pattern>
    <pattern
       patternUnits="userSpaceOnUse"
       width="96.495328"
       height="105.35715"
       patternTransform="matrix(0.26458333,0,0,0.26458333,-73.13839,217.436)"
       id="pattern1584">
      <g
         id="g1582"
         transform="matrix(3.7795276,0,0,3.7795276,276.42856,-821.80537)">
        <rect
           style="fill:#ffff00;stroke:none"
           width="25.531055"
           height="27.875746"
           x="-73.13839"
           y="217.436"
           id="rect5547" />
        <path
           style="fill:none;stroke:#000000;stroke-width:0.26458332px;stroke-linecap:butt;stroke-linejoin:miter;stroke-opacity:1"
           d="m -68.130207,232.08258 c 0,-0.28349 0,-0.56697 0,-0.85045 0,-0.0315 -0.01408,-0.0663 0,-0.0945 0.01992,-0.0398 0.08041,-0.0522 0.09449,-0.0945 0.01442,-0.0433 0,-0.41973 0,-0.47247 0,-0.34648 0,-0.69296 0,-1.03943 0,-0.0446 0.0043,-0.46819 0,-0.47247 -0.02228,-0.0223 -0.07222,0.0223 -0.09449,0 -0.02228,-0.0223 0.02817,-0.0804 0,-0.0945 -0.05635,-0.0282 -0.125992,0 -0.188989,0 -0.0315,0 -0.07222,0.0223 -0.09449,0 -0.02228,-0.0223 0.02817,-0.0804 0,-0.0945 -0.05635,-0.0282 -0.125992,0 -0.18899,0 -0.06299,0 -0.125992,0 -0.188986,0 -0.063,0 -0.125992,0 -0.18899,0 -0.06299,0 -0.13264,-0.0282 -0.188986,0 -0.02817,0.0141 0.01408,0.0663 0,0.0945 -0.09556,0.19111 -0.219292,0.0303 -0.283483,0.0945 -0.09056,0.0905 0.212612,0.22836 -0.188989,0.0945 -0.04226,-0.0141 -0.06299,-0.063 -0.09449,-0.0945 -0.0315,-0.0315 -0.07457,-0.0547 -0.09449,-0.0945 -0.02817,-0.0563 0.01992,-0.12922 0,-0.18899 -0.02228,-0.0668 -0.07222,-0.12217 -0.0945,-0.18899 -0.01982,-0.0595 0,-0.38729 0,-0.47246 0,-0.0315 0,-0.063 0,-0.0945 0,-0.0315 -0.01408,-0.0663 0,-0.0945 0.01992,-0.0398 0.07457,-0.0547 0.0945,-0.0945 0.06517,-0.13034 -0.114438,-0.0845 0.09449,-0.18899 0.02817,-0.0141 0.07222,0.0223 0.09449,0 0.02228,-0.0223 -0.02228,-0.0722 0,-0.0945 0.02228,-0.0223 0.07222,0.0223 0.0945,0 0.195511,-0.19551 -0.298767,0.008 0.09449,-0.18899 0.02817,-0.0141 0.07222,0.0223 0.09449,0 0.04454,-0.0445 -0.04455,-0.14444 0,-0.18899 0.02228,-0.0223 0.06632,0.0141 0.09449,0 0.393263,-0.19663 -0.101015,0.007 0.0945,-0.18898 0.003,-0.003 0.260564,0 0.283482,0 0.0315,0 0.063,0 0.09449,0 0.0315,0 0.06632,-0.0141 0.09449,0 0.03984,0.0199 0.05224,0.0804 0.09449,0.0945 0.05976,0.0199 0.129225,-0.0199 0.18899,0 0.04226,0.0141 0.05223,0.0804 0.09449,0.0945 0.430165,0 0.0054,-0.0445 0.283482,0.0945 0.251984,0 -0.0315,-0.0315 0.09449,0.0945 0.02228,0.0223 0.125992,0 0.0945,0 -0.07913,0 -0.400611,0.018 -0.472472,0 -0.456306,-0.11407 0.0047,-0.0449 -0.283483,-0.18899 -0.02817,-0.0141 -0.06461,0.01 -0.09449,0 -0.06682,-0.0223 -0.122171,-0.0722 -0.188987,-0.0945 -0.02988,-0.01 -0.06632,0.0141 -0.0945,0 -0.07968,-0.0398 -0.109302,-0.14915 -0.188986,-0.18899 -0.08452,-0.0423 -0.198964,0.0423 -0.283483,0 -0.02817,-0.0141 0.02817,-0.0804 0,-0.0945 -0.05635,-0.0282 -0.132643,0.0282 -0.188989,0 -0.02817,-0.0141 0.02817,-0.0804 0,-0.0945 -0.05635,-0.0282 -0.132641,0.0282 -0.188986,0 -0.02817,-0.0141 0.02228,-0.0722 0,-0.0945 -0.115094,-0.11509 -0.211122,-0.0443 -0.283483,-0.18899 -0.02817,-0.0563 0.02817,-0.13264 0,-0.18899 -0.01992,-0.0398 -0.07457,-0.0547 -0.09449,-0.0945 -0.01408,-0.0282 0,-0.063 0,-0.0945 0,-0.0315 -0.01408,-0.0663 0,-0.0945 0.01254,-0.0251 0.258392,-0.27093 0.28348,-0.28348 0.02817,-0.0141 0.06632,0.0141 0.0945,0 0.07968,-0.0398 0.109302,-0.14915 0.188986,-0.18899 0.02817,-0.0141 0.063,0 0.0945,0 0.0315,0 0.063,0 0.09449,0 0.08,0 0.327176,-0.0169 0.377976,0 0.04226,0.0141 0.05465,0.0746 0.09449,0.0945 0.02817,0.0141 0.06461,-0.01 0.0945,0 0.06682,0.0223 0.122169,0.0722 0.188987,0.0945 0.02988,0.01 0.06632,-0.0141 0.09449,0 0.03984,0.0199 0.05465,0.0746 0.0945,0.0945 0.05635,0.0282 0.144442,-0.0445 0.188987,0 0.02228,0.0223 -0.02228,0.0722 0,0.0945 0.02228,0.0223 0.07222,0.0223 0.0945,0 0.02228,-0.0223 0.0099,-0.0646 0,-0.0945 -0.09699,-0.29097 -0.391475,-0.42748 -0.566965,-0.66146 -0.251984,-0.50397 0.09449,0.0945 -0.283483,-0.28349 -0.0498,-0.0498 -0.04469,-0.13918 -0.09449,-0.18899 -0.0498,-0.0498 -0.130387,-0.0554 -0.188989,-0.0945 -0.07413,-0.0494 -0.109305,-0.14914 -0.188987,-0.18899 -0.02817,-0.0141 -0.06632,0.0141 -0.0945,0 -0.02508,-0.0125 -0.270936,-0.25839 -0.283482,-0.28348 -0.01408,-0.0282 0,-0.063 0,-0.0945 0,-0.0315 -0.02228,-0.0722 0,-0.0945 0.02228,-0.0223 0.07222,0.0223 0.0945,0 0.02228,-0.0223 -0.02228,-0.0722 0,-0.0945 0.02228,-0.0223 0.06632,0.0141 0.09449,0 0.03984,-0.0199 0.05465,-0.0746 0.09449,-0.0945 0.02817,-0.0141 0.063,0 0.0945,0 0.125992,0 0.251984,0 0.377976,0 0.063,0 0.129225,0.0199 0.188986,0 0.06682,-0.0223 0.122172,-0.0722 0.18899,-0.0945 0.05947,-0.0198 0.387297,0 0.472469,0 0.0315,0 0.063,0 0.0945,0 0.0315,0 0.06632,-0.0141 0.09449,0 0.233532,0.11677 -0.03262,0.0945 0.188987,0.0945 0.0315,0 0.07222,-0.0223 0.0945,0 0.02228,0.0223 0.0315,0.0945 0,0.0945 -0.0315,0 0.02228,-0.0722 0,-0.0945 -0.02228,-0.0223 -0.07222,0.0223 -0.0945,0 -0.07712,-0.0771 -0.20183,-0.45809 -0.28348,-0.56696 -0.05345,-0.0713 -0.125992,-0.12599 -0.188989,-0.18899 -0.0315,-0.0315 -0.08041,-0.0522 -0.09449,-0.0945 -0.136374,-0.40913 0.180645,0.0347 -0.0945,-0.37798 -0.02471,-0.0371 -0.06299,-0.063 -0.09449,-0.0945 -0.0315,-0.0315 -0.05465,-0.0746 -0.09449,-0.0945 -0.130342,-0.0652 -0.08452,0.11444 -0.18899,-0.0945 -0.01407,-0.0282 0.02817,-0.0804 0,-0.0945 -0.05634,-0.0282 -0.129225,0.0199 -0.188986,0 -0.188039,-0.0627 -0.0441,-0.0882 -0.0945,-0.18898 -0.01992,-0.0399 -0.07457,-0.0546 -0.09449,-0.0945 -0.01408,-0.0282 0,-0.063 0,-0.0945 0,-0.0315 0,-0.063 0,-0.0945 0,-0.0315 0,-0.063 0,-0.0945 0,-0.0315 -0.02228,-0.0722 0,-0.0945 0.02228,-0.0223 0.06461,0.01 0.09449,0 0.564446,-0.18815 -0.186468,-8e-4 0.377978,-0.18899 0.07606,-0.0253 0.31759,0.0302 0.377976,0 0.03984,-0.0199 0.05465,-0.0746 0.09449,-0.0945 0.02484,-0.0124 0.328562,0 0.377975,0 0.283483,0 0.566965,0 0.850448,0 0.15749,0 0.314978,0 0.472469,0 0.0315,0 0.063,0 0.09449,0 0.0315,0 0.06632,-0.0141 0.0945,0 0.07968,0.0398 0.104468,0.16081 0.188987,0.18898 0.430165,0 0.0054,-0.0445 0.283482,0.0945 0.02817,0.0141 0.07222,-0.0223 0.09449,0 0.02228,0.0223 -0.02228,0.0722 0,0.0945 0.02228,0.0223 0.07222,-0.0223 0.0945,0 0.02228,0.0223 -0.02228,0.0722 0,0.0945 0.02228,0.0223 0.07222,-0.0223 0.09449,0 0.02228,0.0223 0,0.063 0,0.0945 0,0.0315 0,0.063 0,0.0945 0,0.34647 0,0.69295 0,1.03943 0,0.0229 0.003,0.28044 0,0.28348 -0.02228,0.0223 -0.06632,-0.0141 -0.09449,0 -0.07968,0.0398 -0.109305,0.14915 -0.18899,0.18899 -0.07559,0.0378 -0.207885,-0.0378 -0.283482,0 -0.03984,0.0199 -0.05465,0.0746 -0.09449,0.0945 -0.05939,0.0297 -0.318584,-0.0297 -0.377975,0 -0.03984,0.0199 -0.05465,0.0746 -0.09449,0.0945 -0.02876,0.0144 -0.240927,0 -0.283482,0 -0.0315,0 -0.0945,0.0315 -0.0945,0 0,-0.0315 0.06632,-0.0141 0.0945,0 0.03984,0.0199 0.05223,0.0804 0.09449,0.0945 0.05976,0.0199 0.129225,-0.0199 0.188989,0 0.08452,0.0282 0.109302,0.14915 0.188987,0.18899 0.02817,0.0141 0.07222,-0.0223 0.09449,0 0.02228,0.0223 -0.02817,0.0804 0,0.0945 0.05635,0.0282 0.132644,-0.0282 0.188989,0 0.02817,0.0141 -0.02228,0.0722 0,0.0945 0.02228,0.0223 0.07222,-0.0223 0.09449,0 0.02228,0.0223 -0.01408,0.0663 0,0.0945 0.01992,0.0398 0.07457,0.0547 0.0945,0.0945 0.02969,0.0594 -0.0297,0.31858 0,0.37797 0.01992,0.0398 0.07457,0.0546 0.09449,0.0945 0.01437,0.0288 0,0.24093 0,0.28349 0,0.0315 0.02817,0.0804 0,0.0945 -0.05635,0.0282 -0.125992,0 -0.188989,0 -0.063,0 -0.125992,0 -0.188987,0 -0.188989,0 -0.377976,0 -0.566965,0 -0.063,0 -0.125992,0 -0.188989,0 -0.0315,0 -0.09449,-0.0315 -0.09449,0 0,0.0445 0.063,0.063 0.09449,0.0945 0.04975,0.0497 0.233016,0.25824 0.283482,0.28348 0.02817,0.0141 0.07222,-0.0223 0.0945,0 0.195512,0.19551 -0.298767,-0.008 0.09449,0.18899 0.02817,0.0141 0.07222,-0.0223 0.09449,0 0.02228,0.0223 -0.01408,0.0663 0,0.0945 0.01992,0.0398 0.07457,0.0547 0.09449,0.0945 0.02817,0.0563 -0.04454,0.14444 0,0.18898 0.02228,0.0223 0.07222,-0.0223 0.0945,0 0.02228,0.0223 0,0.063 0,0.0945 0,0.0315 0,0.063 0,0.0945 0,0.12966 0.04961,0.30593 -0.0945,0.37798 -0.05634,0.0282 -0.144441,-0.0445 -0.188986,0 -0.157491,0.15749 0.346477,0.0945 -0.18899,0.0945 -0.0486,0 -0.377975,-0.0519 -0.377975,0.0945 0,0.16579 0.218329,0.0619 0.283482,0.0945 0.393261,0.19663 -0.101018,-0.007 0.09449,0.18899 0.02228,0.0223 0.06632,-0.0141 0.0945,0 0.03984,0.0199 0.063,0.063 0.09449,0.0945 0.0315,0.0315 0.07457,0.0547 0.09449,0.0945 0.01408,0.0282 -0.01408,0.0663 0,0.0945 0.03984,0.0797 0.149146,0.1093 0.188989,0.18899 0.01408,0.0282 0,0.063 0,0.0945 0,0.0315 0,0.063 0,0.0945 0,0.15749 0,0.31499 0,0.47248 0,0.0347 0.0038,0.37417 0,0.37797 -0.02228,0.0223 -0.07222,-0.0223 -0.0945,0 -0.02228,0.0223 0.02817,0.0804 0,0.0945 -0.05634,0.0282 -0.125992,0 -0.188986,0 -0.063,0 -0.132644,0.0282 -0.18899,0 -0.02817,-0.0141 0.02817,-0.0804 0,-0.0945 -0.05634,-0.0282 -0.13264,0.0282 -0.188986,0 -0.02817,-0.0141 0.02817,-0.0804 0,-0.0945 -0.05635,-0.0282 -0.132644,0.0282 -0.188989,0 -0.02817,-0.0141 0.02228,-0.0722 0,-0.0945 -0.02228,-0.0223 -0.07222,0.0223 -0.09449,0 -0.02228,-0.0223 -0.0315,-0.0945 0,-0.0945 0.0315,0 0,0.063 0,0.0945 0,0.0315 0,0.063 0,0.0945 0,0.22048 0,0.44097 0,0.66146 0,0.0425 0.01437,0.25472 0,0.28348 -0.01992,0.0398 -0.07457,0.0546 -0.09449,0.0945 -0.01408,0.0282 0,0.063 0,0.0945 0,0.0315 0,0.063 0,0.0945 0,0.25198 0,0.50397 0,0.75595 0,0.0426 -0.01437,0.25473 0,0.28348 0.01992,0.0399 0.07457,0.0547 0.09449,0.0945 0.01408,0.0282 -0.02228,0.0722 0,0.0945 0.02228,0.0223 0.07222,-0.0223 0.09449,0 0.04454,0.0445 -0.02817,0.13265 0,0.18899 0.01992,0.0398 0.07457,0.0547 0.09449,0.0945 0.01408,0.0282 0,0.063 0,0.0945 0,0.063 0,0.12599 0,0.18899 0,0.15749 0,0.31498 0,0.47247 0,0.0315 0.02228,0.0722 0,0.0945 -0.02228,0.0223 -0.06632,-0.0141 -0.09449,0 -0.393261,0.19663 0.101018,-0.007 -0.09449,0.18899 -0.02228,0.0223 -0.07222,-0.0223 -0.09449,0 -0.02228,0.0223 0.02817,0.0804 0,0.0945 -0.05635,0.0282 -0.129225,-0.0199 -0.188989,0 -0.04226,0.0141 -0.05465,0.0746 -0.09449,0.0945 -0.02484,0.0124 -0.328565,0 -0.377976,0"
           id="path1548"
           inkscape:connector-curvature="0" />
        <path
           style="fill:none;stroke:#000000;stroke-width:0.26458332px;stroke-linecap:butt;stroke-linejoin:miter;stroke-opacity:1"
           d="m -57.595615,231.18538 c 0,-0.28349 0,-0.56697 0,-0.85045 0,-0.0315 -0.01408,-0.0663 0,-0.0945 0.01992,-0.0398 0.08041,-0.0522 0.09449,-0.0945 0.01442,-0.0433 0,-0.41973 0,-0.47247 0,-0.34648 0,-0.69296 0,-1.03943 0,-0.0446 0.0043,-0.46819 0,-0.47247 -0.02228,-0.0223 -0.07222,0.0223 -0.09449,0 -0.02228,-0.0223 0.02817,-0.0804 0,-0.0945 -0.05635,-0.0282 -0.125992,0 -0.188989,0 -0.0315,0 -0.07222,0.0223 -0.09449,0 -0.02228,-0.0223 0.02817,-0.0804 0,-0.0945 -0.05635,-0.0282 -0.125992,0 -0.18899,0 -0.06299,0 -0.125992,0 -0.188986,0 -0.063,0 -0.125992,0 -0.18899,0 -0.06299,0 -0.13264,-0.0282 -0.188986,0 -0.02817,0.0141 0.01408,0.0663 0,0.0945 -0.09556,0.19111 -0.219292,0.0303 -0.283483,0.0945 -0.09056,0.0905 0.212612,0.22836 -0.188989,0.0945 -0.04226,-0.0141 -0.06299,-0.063 -0.09449,-0.0945 -0.0315,-0.0315 -0.07457,-0.0547 -0.09449,-0.0945 -0.02817,-0.0563 0.01992,-0.12922 0,-0.18899 -0.02228,-0.0668 -0.07222,-0.12217 -0.0945,-0.18899 -0.01982,-0.0595 0,-0.38729 0,-0.47246 0,-0.0315 0,-0.063 0,-0.0945 0,-0.0315 -0.01408,-0.0663 0,-0.0945 0.01992,-0.0398 0.07457,-0.0547 0.0945,-0.0945 0.06517,-0.13034 -0.114438,-0.0845 0.09449,-0.18899 0.02817,-0.0141 0.07222,0.0223 0.09449,0 0.02228,-0.0223 -0.02228,-0.0722 0,-0.0945 0.02228,-0.0223 0.07222,0.0223 0.0945,0 0.195511,-0.19551 -0.298767,0.008 0.09449,-0.18899 0.02817,-0.0141 0.07222,0.0223 0.09449,0 0.04454,-0.0445 -0.04455,-0.14444 0,-0.18899 0.02228,-0.0223 0.06632,0.0141 0.09449,0 0.393263,-0.19663 -0.101015,0.007 0.0945,-0.18898 0.003,-0.003 0.260564,0 0.283482,0 0.0315,0 0.063,0 0.09449,0 0.0315,0 0.06632,-0.0141 0.09449,0 0.03984,0.0199 0.05224,0.0804 0.09449,0.0945 0.05976,0.0199 0.129225,-0.0199 0.18899,0 0.04226,0.0141 0.05223,0.0804 0.09449,0.0945 0.430165,0 0.0054,-0.0445 0.283482,0.0945 0.251984,0 -0.0315,-0.0315 0.09449,0.0945 0.02228,0.0223 0.125992,0 0.0945,0 -0.07913,0 -0.400611,0.018 -0.472472,0 -0.456306,-0.11407 0.0047,-0.0449 -0.283483,-0.18899 -0.02817,-0.0141 -0.06461,0.01 -0.09449,0 -0.06682,-0.0223 -0.122171,-0.0722 -0.188987,-0.0945 -0.02988,-0.01 -0.06632,0.0141 -0.0945,0 -0.07968,-0.0398 -0.109302,-0.14915 -0.188986,-0.18899 -0.08452,-0.0423 -0.198964,0.0423 -0.283483,0 -0.02817,-0.0141 0.02817,-0.0804 0,-0.0945 -0.05635,-0.0282 -0.132643,0.0282 -0.188989,0 -0.02817,-0.0141 0.02817,-0.0804 0,-0.0945 -0.05635,-0.0282 -0.132641,0.0282 -0.188986,0 -0.02817,-0.0141 0.02228,-0.0722 0,-0.0945 -0.115094,-0.11509 -0.211122,-0.0443 -0.283483,-0.18899 -0.02817,-0.0563 0.02817,-0.13264 0,-0.18899 -0.01992,-0.0398 -0.07457,-0.0547 -0.09449,-0.0945 -0.01408,-0.0282 0,-0.063 0,-0.0945 0,-0.0315 -0.01408,-0.0663 0,-0.0945 0.01254,-0.0251 0.258392,-0.27093 0.28348,-0.28348 0.02817,-0.0141 0.06632,0.0141 0.0945,0 0.07968,-0.0398 0.109302,-0.14915 0.188986,-0.18899 0.02817,-0.0141 0.063,0 0.0945,0 0.0315,0 0.063,0 0.09449,0 0.08,0 0.327176,-0.0169 0.377976,0 0.04226,0.0141 0.05465,0.0746 0.09449,0.0945 0.02817,0.0141 0.06461,-0.01 0.0945,0 0.06682,0.0223 0.122169,0.0722 0.188987,0.0945 0.02988,0.01 0.06632,-0.0141 0.09449,0 0.03984,0.0199 0.05465,0.0746 0.0945,0.0945 0.05635,0.0282 0.144442,-0.0445 0.188987,0 0.02228,0.0223 -0.02228,0.0722 0,0.0945 0.02228,0.0223 0.07222,0.0223 0.0945,0 0.02228,-0.0223 0.0099,-0.0646 0,-0.0945 -0.09699,-0.29097 -0.391475,-0.42748 -0.566965,-0.66146 -0.251984,-0.50397 0.09449,0.0945 -0.283483,-0.28349 -0.0498,-0.0498 -0.04469,-0.13918 -0.09449,-0.18899 -0.0498,-0.0498 -0.130387,-0.0554 -0.188989,-0.0945 -0.07413,-0.0494 -0.109305,-0.14914 -0.188987,-0.18899 -0.02817,-0.0141 -0.06632,0.0141 -0.0945,0 -0.02508,-0.0125 -0.270936,-0.25839 -0.283482,-0.28348 -0.01408,-0.0282 0,-0.063 0,-0.0945 0,-0.0315 -0.02228,-0.0722 0,-0.0945 0.02228,-0.0223 0.07222,0.0223 0.0945,0 0.02228,-0.0223 -0.02228,-0.0722 0,-0.0945 0.02228,-0.0223 0.06632,0.0141 0.09449,0 0.03984,-0.0199 0.05465,-0.0746 0.09449,-0.0945 0.02817,-0.0141 0.063,0 0.0945,0 0.125992,0 0.251984,0 0.377976,0 0.063,0 0.129225,0.0199 0.188986,0 0.06682,-0.0223 0.122172,-0.0722 0.18899,-0.0945 0.05947,-0.0198 0.387297,0 0.472469,0 0.0315,0 0.063,0 0.0945,0 0.0315,0 0.06632,-0.0141 0.09449,0 0.233532,0.11677 -0.03262,0.0945 0.188987,0.0945 0.0315,0 0.07222,-0.0223 0.0945,0 0.02228,0.0223 0.0315,0.0945 0,0.0945 -0.0315,0 0.02228,-0.0722 0,-0.0945 -0.02228,-0.0223 -0.07222,0.0223 -0.0945,0 -0.07712,-0.0771 -0.20183,-0.45809 -0.28348,-0.56696 -0.05345,-0.0713 -0.125992,-0.12599 -0.188989,-0.18899 -0.0315,-0.0315 -0.08041,-0.0522 -0.09449,-0.0945 -0.136374,-0.40913 0.180645,0.0347 -0.0945,-0.37798 -0.02471,-0.0371 -0.06299,-0.063 -0.09449,-0.0945 -0.0315,-0.0315 -0.05465,-0.0746 -0.09449,-0.0945 -0.130342,-0.0652 -0.08452,0.11444 -0.18899,-0.0945 -0.01407,-0.0282 0.02817,-0.0804 0,-0.0945 -0.05634,-0.0282 -0.129225,0.0199 -0.188986,0 -0.188039,-0.0627 -0.0441,-0.0882 -0.0945,-0.18898 -0.01992,-0.0399 -0.07457,-0.0546 -0.09449,-0.0945 -0.01408,-0.0282 0,-0.063 0,-0.0945 0,-0.0315 0,-0.063 0,-0.0945 0,-0.0315 0,-0.063 0,-0.0945 0,-0.0315 -0.02228,-0.0722 0,-0.0945 0.02228,-0.0223 0.06461,0.01 0.09449,0 0.564446,-0.18815 -0.186468,-7.9e-4 0.377978,-0.18899 0.07606,-0.0253 0.31759,0.0302 0.377976,0 0.03984,-0.0199 0.05465,-0.0746 0.09449,-0.0945 0.02484,-0.0124 0.328562,0 0.377975,0 0.283483,0 0.566965,0 0.850448,0 0.15749,0 0.314978,0 0.472469,0 0.0315,0 0.063,0 0.09449,0 0.0315,0 0.06632,-0.0141 0.0945,0 0.07968,0.0398 0.104468,0.16081 0.188987,0.18898 0.430165,0 0.0054,-0.0445 0.283482,0.0945 0.02817,0.0141 0.07222,-0.0223 0.09449,0 0.02228,0.0223 -0.02228,0.0722 0,0.0945 0.02228,0.0223 0.07222,-0.0223 0.0945,0 0.02228,0.0223 -0.02228,0.0722 0,0.0945 0.02228,0.0223 0.07222,-0.0223 0.09449,0 0.02228,0.0223 0,0.063 0,0.0945 0,0.0315 0,0.063 0,0.0945 0,0.34647 0,0.69295 0,1.03943 0,0.0229 0.003,0.28044 0,0.28348 -0.02228,0.0223 -0.06632,-0.0141 -0.09449,0 -0.07968,0.0398 -0.109305,0.14915 -0.18899,0.18899 -0.07559,0.0378 -0.207885,-0.0378 -0.283482,0 -0.03984,0.0199 -0.05465,0.0746 -0.09449,0.0945 -0.05939,0.0297 -0.318584,-0.0297 -0.377975,0 -0.03984,0.0199 -0.05465,0.0746 -0.09449,0.0945 -0.02876,0.0144 -0.240927,0 -0.283482,0 -0.0315,0 -0.0945,0.0315 -0.0945,0 0,-0.0315 0.06632,-0.0141 0.0945,0 0.03984,0.0199 0.05223,0.0804 0.09449,0.0945 0.05976,0.0199 0.129225,-0.0199 0.188989,0 0.08452,0.0282 0.109302,0.14915 0.188987,0.18899 0.02817,0.0141 0.07222,-0.0223 0.09449,0 0.02228,0.0223 -0.02817,0.0804 0,0.0945 0.05635,0.0282 0.132644,-0.0282 0.188989,0 0.02817,0.0141 -0.02228,0.0722 0,0.0945 0.02228,0.0223 0.07222,-0.0223 0.09449,0 0.02228,0.0223 -0.01408,0.0663 0,0.0945 0.01992,0.0398 0.07457,0.0547 0.0945,0.0945 0.02969,0.0594 -0.0297,0.31858 0,0.37797 0.01992,0.0398 0.07457,0.0546 0.09449,0.0945 0.01437,0.0288 0,0.24093 0,0.28349 0,0.0315 0.02817,0.0804 0,0.0945 -0.05635,0.0282 -0.125992,0 -0.188989,0 -0.063,0 -0.125992,0 -0.188987,0 -0.188989,0 -0.377976,0 -0.566965,0 -0.063,0 -0.125992,0 -0.188989,0 -0.0315,0 -0.09449,-0.0315 -0.09449,0 0,0.0445 0.063,0.063 0.09449,0.0945 0.04975,0.0497 0.233016,0.25824 0.283482,0.28348 0.02817,0.0141 0.07222,-0.0223 0.0945,0 0.195512,0.19551 -0.298768,-0.008 0.09449,0.18899 0.02817,0.0141 0.07222,-0.0223 0.09449,0 0.02228,0.0223 -0.01408,0.0663 0,0.0945 0.01992,0.0398 0.07457,0.0547 0.09449,0.0945 0.02817,0.0563 -0.04454,0.14444 0,0.18898 0.02228,0.0223 0.07222,-0.0223 0.0945,0 0.02228,0.0223 0,0.063 0,0.0945 0,0.0315 0,0.063 0,0.0945 0,0.12966 0.04961,0.30593 -0.0945,0.37798 -0.05634,0.0282 -0.144441,-0.0445 -0.188986,0 -0.157491,0.15749 0.346477,0.0945 -0.18899,0.0945 -0.0486,0 -0.377975,-0.0519 -0.377975,0.0945 0,0.16579 0.218329,0.0619 0.283482,0.0945 0.393261,0.19663 -0.101018,-0.007 0.09449,0.18899 0.02228,0.0223 0.06632,-0.0141 0.0945,0 0.03984,0.0199 0.063,0.063 0.09449,0.0945 0.0315,0.0315 0.07457,0.0547 0.09449,0.0945 0.01408,0.0282 -0.01408,0.0663 0,0.0945 0.03984,0.0797 0.149146,0.1093 0.188989,0.18899 0.01408,0.0282 0,0.063 0,0.0945 0,0.0315 0,0.063 0,0.0945 0,0.15749 0,0.31499 0,0.47248 0,0.0347 0.0038,0.37417 0,0.37797 -0.02228,0.0223 -0.07222,-0.0223 -0.0945,0 -0.02228,0.0223 0.02817,0.0804 0,0.0945 -0.05634,0.0282 -0.125992,0 -0.188986,0 -0.063,0 -0.132644,0.0282 -0.18899,0 -0.02817,-0.0141 0.02817,-0.0804 0,-0.0945 -0.05634,-0.0282 -0.13264,0.0282 -0.188986,0 -0.02817,-0.0141 0.02817,-0.0804 0,-0.0945 -0.05635,-0.0282 -0.132644,0.0282 -0.188989,0 -0.02817,-0.0141 0.02228,-0.0722 0,-0.0945 -0.02228,-0.0223 -0.07222,0.0223 -0.09449,0 -0.02228,-0.0223 -0.0315,-0.0945 0,-0.0945 0.0315,0 0,0.063 0,0.0945 0,0.0315 0,0.063 0,0.0945 0,0.22048 0,0.44097 0,0.66146 0,0.0425 0.01437,0.25472 0,0.28348 -0.01992,0.0398 -0.07457,0.0546 -0.09449,0.0945 -0.01408,0.0282 0,0.063 0,0.0945 0,0.0315 0,0.063 0,0.0945 0,0.25198 0,0.50397 0,0.75595 0,0.0426 -0.01437,0.25473 0,0.28348 0.01992,0.0399 0.07457,0.0547 0.09449,0.0945 0.01408,0.0282 -0.02228,0.0722 0,0.0945 0.02228,0.0223 0.07222,-0.0223 0.09449,0 0.04454,0.0445 -0.02817,0.13265 0,0.18899 0.01992,0.0398 0.07457,0.0547 0.09449,0.0945 0.01408,0.0282 0,0.063 0,0.0945 0,0.063 0,0.12599 0,0.18899 0,0.15749 0,0.31498 0,0.47247 0,0.0315 0.02228,0.0722 0,0.0945 -0.02228,0.0223 -0.06632,-0.0141 -0.09449,0 -0.393261,0.19663 0.101018,-0.007 -0.09449,0.18899 -0.02228,0.0223 -0.07222,-0.0223 -0.09449,0 -0.02228,0.0223 0.02817,0.0804 0,0.0945 -0.05635,0.0282 -0.129226,-0.0199 -0.188989,0 -0.04226,0.0141 -0.05465,0.0746 -0.09449,0.0945 -0.02484,0.0124 -0.328565,0 -0.377976,0"
           id="path1548-3"
           inkscape:connector-curvature="0" />
        <path
           style="fill:none;stroke:#000000;stroke-width:0.26458332px;stroke-linecap:butt;stroke-linejoin:miter;stroke-opacity:1"
           d="m -63.454246,242.71366 c 0,-0.28349 0,-0.56697 0,-0.85045 0,-0.0315 -0.01408,-0.0663 0,-0.0945 0.01992,-0.0398 0.08041,-0.0522 0.09449,-0.0945 0.01442,-0.0433 0,-0.41973 0,-0.47247 0,-0.34648 0,-0.69296 0,-1.03943 0,-0.0446 0.0043,-0.46819 0,-0.47247 -0.02228,-0.0223 -0.07222,0.0223 -0.09449,0 -0.02228,-0.0223 0.02817,-0.0804 0,-0.0945 -0.05635,-0.0282 -0.125992,0 -0.188989,0 -0.0315,0 -0.07222,0.0223 -0.09449,0 -0.02228,-0.0223 0.02817,-0.0804 0,-0.0945 -0.05635,-0.0282 -0.125992,0 -0.18899,0 -0.06299,0 -0.125992,0 -0.188986,0 -0.063,0 -0.125992,0 -0.18899,0 -0.06299,0 -0.13264,-0.0282 -0.188986,0 -0.02817,0.0141 0.01408,0.0663 0,0.0945 -0.09556,0.19111 -0.219292,0.0303 -0.283483,0.0945 -0.09056,0.0905 0.212612,0.22836 -0.188989,0.0945 -0.04226,-0.0141 -0.06299,-0.063 -0.09449,-0.0945 -0.0315,-0.0315 -0.07457,-0.0547 -0.09449,-0.0945 -0.02817,-0.0563 0.01992,-0.12922 0,-0.18899 -0.02228,-0.0668 -0.07222,-0.12217 -0.0945,-0.18899 -0.01982,-0.0595 0,-0.38729 0,-0.47246 0,-0.0315 0,-0.063 0,-0.0945 0,-0.0315 -0.01408,-0.0663 0,-0.0945 0.01992,-0.0398 0.07457,-0.0547 0.0945,-0.0945 0.06517,-0.13034 -0.114438,-0.0845 0.09449,-0.18899 0.02817,-0.0141 0.07222,0.0223 0.09449,0 0.02228,-0.0223 -0.02228,-0.0722 0,-0.0945 0.02228,-0.0223 0.07222,0.0223 0.0945,0 0.195511,-0.19551 -0.298767,0.008 0.09449,-0.18899 0.02817,-0.0141 0.07222,0.0223 0.09449,0 0.04454,-0.0445 -0.04455,-0.14444 0,-0.18899 0.02228,-0.0223 0.06632,0.0141 0.09449,0 0.393263,-0.19663 -0.101015,0.007 0.0945,-0.18898 0.003,-0.003 0.260564,0 0.283482,0 0.0315,0 0.063,0 0.09449,0 0.0315,0 0.06632,-0.0141 0.09449,0 0.03984,0.0199 0.05224,0.0804 0.09449,0.0945 0.05976,0.0199 0.129225,-0.0199 0.18899,0 0.04226,0.0141 0.05223,0.0804 0.09449,0.0945 0.430165,0 0.0054,-0.0445 0.283482,0.0945 0.251984,0 -0.0315,-0.0315 0.09449,0.0945 0.02228,0.0223 0.125992,0 0.0945,0 -0.07913,0 -0.400611,0.018 -0.472472,0 -0.456306,-0.11407 0.0047,-0.0449 -0.283483,-0.18899 -0.02817,-0.0141 -0.06461,0.01 -0.09449,0 -0.06682,-0.0223 -0.122171,-0.0722 -0.188987,-0.0945 -0.02988,-0.01 -0.06632,0.0141 -0.0945,0 -0.07968,-0.0398 -0.109302,-0.14915 -0.188986,-0.18899 -0.08452,-0.0423 -0.198964,0.0423 -0.283483,0 -0.02817,-0.0141 0.02817,-0.0804 0,-0.0945 -0.05635,-0.0282 -0.132643,0.0282 -0.188989,0 -0.02817,-0.0141 0.02817,-0.0804 0,-0.0945 -0.05635,-0.0282 -0.132641,0.0282 -0.188986,0 -0.02817,-0.0141 0.02228,-0.0722 0,-0.0945 -0.115094,-0.11509 -0.211122,-0.0443 -0.283483,-0.18899 -0.02817,-0.0563 0.02817,-0.13264 0,-0.18899 -0.01992,-0.0398 -0.07457,-0.0547 -0.09449,-0.0945 -0.01408,-0.0282 0,-0.063 0,-0.0945 0,-0.0315 -0.01408,-0.0663 0,-0.0945 0.01254,-0.0251 0.258392,-0.27093 0.28348,-0.28348 0.02817,-0.0141 0.06632,0.0141 0.0945,0 0.07968,-0.0398 0.109302,-0.14915 0.188986,-0.18899 0.02817,-0.0141 0.063,0 0.0945,0 0.0315,0 0.063,0 0.09449,0 0.08,0 0.327176,-0.0169 0.377976,0 0.04226,0.0141 0.05465,0.0746 0.09449,0.0945 0.02817,0.0141 0.06461,-0.01 0.0945,0 0.06682,0.0223 0.122169,0.0722 0.188987,0.0945 0.02988,0.01 0.06632,-0.0141 0.09449,0 0.03984,0.0199 0.05465,0.0746 0.0945,0.0945 0.05635,0.0282 0.144442,-0.0445 0.188987,0 0.02228,0.0223 -0.02228,0.0722 0,0.0945 0.02228,0.0223 0.07222,0.0223 0.0945,0 0.02228,-0.0223 0.0099,-0.0646 0,-0.0945 -0.09699,-0.29097 -0.391475,-0.42748 -0.566965,-0.66146 -0.251984,-0.50397 0.09449,0.0945 -0.283483,-0.28349 -0.0498,-0.0498 -0.04469,-0.13918 -0.09449,-0.18899 -0.0498,-0.0498 -0.130387,-0.0554 -0.188989,-0.0945 -0.07413,-0.0494 -0.109305,-0.14914 -0.188987,-0.18899 -0.02817,-0.0141 -0.06632,0.0141 -0.0945,0 -0.02508,-0.0125 -0.270936,-0.25839 -0.283482,-0.28348 -0.01408,-0.0282 0,-0.063 0,-0.0945 0,-0.0315 -0.02228,-0.0722 0,-0.0945 0.02228,-0.0223 0.07222,0.0223 0.0945,0 0.02228,-0.0223 -0.02228,-0.0722 0,-0.0945 0.02228,-0.0223 0.06632,0.0141 0.09449,0 0.03984,-0.0199 0.05465,-0.0746 0.09449,-0.0945 0.02817,-0.0141 0.063,0 0.0945,0 0.125992,0 0.251984,0 0.377976,0 0.063,0 0.129225,0.0199 0.188986,0 0.06682,-0.0223 0.122172,-0.0722 0.18899,-0.0945 0.05947,-0.0198 0.387297,0 0.472469,0 0.0315,0 0.063,0 0.0945,0 0.0315,0 0.06632,-0.0141 0.09449,0 0.233532,0.11677 -0.03262,0.0945 0.188987,0.0945 0.0315,0 0.07222,-0.0223 0.0945,0 0.02228,0.0223 0.0315,0.0945 0,0.0945 -0.0315,0 0.02228,-0.0722 0,-0.0945 -0.02228,-0.0223 -0.07222,0.0223 -0.0945,0 -0.07712,-0.0771 -0.20183,-0.45809 -0.28348,-0.56696 -0.05345,-0.0713 -0.125992,-0.12599 -0.188989,-0.18899 -0.0315,-0.0315 -0.08041,-0.0522 -0.09449,-0.0945 -0.136374,-0.40913 0.180645,0.0347 -0.0945,-0.37798 -0.02471,-0.0371 -0.06299,-0.063 -0.09449,-0.0945 -0.0315,-0.0315 -0.05465,-0.0746 -0.09449,-0.0945 -0.130342,-0.0652 -0.08452,0.11444 -0.18899,-0.0945 -0.01407,-0.0282 0.02817,-0.0804 0,-0.0945 -0.05634,-0.0282 -0.129225,0.0199 -0.188986,0 -0.188039,-0.0627 -0.0441,-0.0882 -0.0945,-0.18898 -0.01992,-0.0399 -0.07457,-0.0546 -0.09449,-0.0945 -0.01408,-0.0282 0,-0.063 0,-0.0945 0,-0.0315 0,-0.063 0,-0.0945 0,-0.0315 0,-0.063 0,-0.0945 0,-0.0315 -0.02228,-0.0722 0,-0.0945 0.02228,-0.0223 0.06461,0.01 0.09449,0 0.564446,-0.18815 -0.186468,-7.9e-4 0.377978,-0.18899 0.07606,-0.0253 0.31759,0.0302 0.377976,0 0.03984,-0.0199 0.05465,-0.0746 0.09449,-0.0945 0.02484,-0.0124 0.328562,0 0.377975,0 0.283483,0 0.566965,0 0.850448,0 0.15749,0 0.314978,0 0.472469,0 0.0315,0 0.063,0 0.09449,0 0.0315,0 0.06632,-0.0141 0.0945,0 0.07968,0.0398 0.104468,0.16081 0.188987,0.18898 0.430165,0 0.0054,-0.0445 0.283482,0.0945 0.02817,0.0141 0.07222,-0.0223 0.09449,0 0.02228,0.0223 -0.02228,0.0722 0,0.0945 0.02228,0.0223 0.07222,-0.0223 0.0945,0 0.02228,0.0223 -0.02228,0.0722 0,0.0945 0.02228,0.0223 0.07222,-0.0223 0.09449,0 0.02228,0.0223 0,0.063 0,0.0945 0,0.0315 0,0.063 0,0.0945 0,0.34647 0,0.69295 0,1.03943 0,0.0229 0.003,0.28044 0,0.28348 -0.02228,0.0223 -0.06632,-0.0141 -0.09449,0 -0.07968,0.0398 -0.109305,0.14915 -0.18899,0.18899 -0.07559,0.0378 -0.207885,-0.0378 -0.283482,0 -0.03984,0.0199 -0.05465,0.0746 -0.09449,0.0945 -0.05939,0.0297 -0.318584,-0.0297 -0.377975,0 -0.03984,0.0199 -0.05465,0.0746 -0.09449,0.0945 -0.02876,0.0144 -0.240927,0 -0.283482,0 -0.0315,0 -0.0945,0.0315 -0.0945,0 0,-0.0315 0.06632,-0.0141 0.0945,0 0.03984,0.0199 0.05223,0.0804 0.09449,0.0945 0.05976,0.0199 0.129224,-0.0199 0.188989,0 0.08452,0.0282 0.109302,0.14915 0.188987,0.18899 0.02817,0.0141 0.07222,-0.0223 0.09449,0 0.02228,0.0223 -0.02817,0.0804 0,0.0945 0.05635,0.0282 0.132644,-0.0282 0.188989,0 0.02817,0.0141 -0.02228,0.0722 0,0.0945 0.02228,0.0223 0.07222,-0.0223 0.09449,0 0.02228,0.0223 -0.01408,0.0663 0,0.0945 0.01992,0.0398 0.07457,0.0547 0.0945,0.0945 0.02969,0.0594 -0.0297,0.31858 0,0.37797 0.01992,0.0398 0.07457,0.0546 0.09449,0.0945 0.01437,0.0288 0,0.24093 0,0.28349 0,0.0315 0.02817,0.0804 0,0.0945 -0.05635,0.0282 -0.125992,0 -0.188989,0 -0.063,0 -0.125992,0 -0.188987,0 -0.188989,0 -0.377976,0 -0.566965,0 -0.063,0 -0.125992,0 -0.188989,0 -0.0315,0 -0.09449,-0.0315 -0.09449,0 0,0.0445 0.063,0.063 0.09449,0.0945 0.04975,0.0497 0.233016,0.25824 0.283482,0.28348 0.02817,0.0141 0.07222,-0.0223 0.0945,0 0.195512,0.19551 -0.298768,-0.008 0.09449,0.18899 0.02817,0.0141 0.07222,-0.0223 0.09449,0 0.02228,0.0223 -0.01408,0.0663 0,0.0945 0.01992,0.0398 0.07457,0.0547 0.09449,0.0945 0.02817,0.0563 -0.04454,0.14444 0,0.18898 0.02228,0.0223 0.07222,-0.0223 0.0945,0 0.02228,0.0223 0,0.063 0,0.0945 0,0.0315 0,0.063 0,0.0945 0,0.12966 0.04961,0.30593 -0.0945,0.37798 -0.05634,0.0282 -0.144441,-0.0445 -0.188986,0 -0.157491,0.15749 0.346477,0.0945 -0.18899,0.0945 -0.0486,0 -0.377975,-0.0519 -0.377975,0.0945 0,0.16579 0.218329,0.0619 0.283482,0.0945 0.393261,0.19663 -0.101018,-0.007 0.09449,0.18899 0.02228,0.0223 0.06632,-0.0141 0.0945,0 0.03984,0.0199 0.063,0.063 0.09449,0.0945 0.0315,0.0315 0.07457,0.0547 0.09449,0.0945 0.01408,0.0282 -0.01408,0.0663 0,0.0945 0.03984,0.0797 0.149146,0.1093 0.188989,0.18899 0.01408,0.0282 0,0.063 0,0.0945 0,0.0315 0,0.063 0,0.0945 0,0.15749 0,0.31499 0,0.47248 0,0.0347 0.0038,0.37417 0,0.37797 -0.02228,0.0223 -0.07222,-0.0223 -0.0945,0 -0.02228,0.0223 0.02817,0.0804 0,0.0945 -0.05634,0.0282 -0.125993,0 -0.188986,0 -0.063,0 -0.132644,0.0282 -0.18899,0 -0.02817,-0.0141 0.02817,-0.0804 0,-0.0945 -0.05634,-0.0282 -0.132641,0.0282 -0.188986,0 -0.02817,-0.0141 0.02817,-0.0804 0,-0.0945 -0.05635,-0.0282 -0.132645,0.0282 -0.188989,0 -0.02817,-0.0141 0.02228,-0.0722 0,-0.0945 -0.02228,-0.0223 -0.07222,0.0223 -0.09449,0 -0.02228,-0.0223 -0.0315,-0.0945 0,-0.0945 0.0315,0 0,0.063 0,0.0945 0,0.0315 0,0.063 0,0.0945 0,0.22048 0,0.44097 0,0.66146 0,0.0425 0.01437,0.25472 0,0.28348 -0.01992,0.0398 -0.07457,0.0546 -0.09449,0.0945 -0.01408,0.0282 0,0.063 0,0.0945 0,0.0315 0,0.063 0,0.0945 0,0.25198 0,0.50397 0,0.75595 0,0.0426 -0.01437,0.25473 0,0.28348 0.01992,0.0399 0.07457,0.0547 0.09449,0.0945 0.01408,0.0282 -0.02228,0.0722 0,0.0945 0.02228,0.0223 0.07222,-0.0223 0.09449,0 0.04454,0.0445 -0.02817,0.13265 0,0.18899 0.01992,0.0398 0.07457,0.0547 0.09449,0.0945 0.01408,0.0282 0,0.063 0,0.0945 0,0.063 0,0.12599 0,0.18899 0,0.15749 0,0.31498 0,0.47247 0,0.0315 0.02228,0.0722 0,0.0945 -0.02228,0.0223 -0.06632,-0.0141 -0.09449,0 -0.393261,0.19663 0.101018,-0.007 -0.09449,0.18899 -0.02228,0.0223 -0.07222,-0.0223 -0.09449,0 -0.02228,0.0223 0.02817,0.0804 0,0.0945 -0.05635,0.0282 -0.129226,-0.0199 -0.18899,0 -0.04226,0.0141 -0.05465,0.0746 -0.09449,0.0945 -0.02484,0.0124 -0.328565,0 -0.377976,0"
           id="path1548-6"
           inkscape:connector-curvature="0" />
        <path
           style="fill:none;stroke:#000000;stroke-width:0.26458332px;stroke-linecap:butt;stroke-linejoin:miter;stroke-opacity:1"
           d="m -51.64249,241.57972 c 0,-0.28349 0,-0.56697 0,-0.85045 0,-0.0315 -0.01408,-0.0663 0,-0.0945 0.01992,-0.0398 0.08041,-0.0522 0.09449,-0.0945 0.01442,-0.0433 0,-0.41973 0,-0.47247 0,-0.34648 0,-0.69296 0,-1.03943 0,-0.0446 0.0043,-0.46819 0,-0.47247 -0.02228,-0.0223 -0.07222,0.0223 -0.09449,0 -0.02228,-0.0223 0.02817,-0.0804 0,-0.0945 -0.05635,-0.0282 -0.125992,0 -0.188989,0 -0.0315,0 -0.07222,0.0223 -0.09449,0 -0.02228,-0.0223 0.02817,-0.0804 0,-0.0945 -0.05635,-0.0282 -0.125992,0 -0.18899,0 -0.06299,0 -0.125992,0 -0.188986,0 -0.063,0 -0.125992,0 -0.18899,0 -0.06299,0 -0.13264,-0.0282 -0.188986,0 -0.02817,0.0141 0.01408,0.0663 0,0.0945 -0.09556,0.19111 -0.219292,0.0303 -0.283483,0.0945 -0.09056,0.0905 0.212612,0.22836 -0.188989,0.0945 -0.04226,-0.0141 -0.06299,-0.063 -0.09449,-0.0945 -0.0315,-0.0315 -0.07457,-0.0547 -0.09449,-0.0945 -0.02817,-0.0563 0.01992,-0.12922 0,-0.18899 -0.02228,-0.0668 -0.07222,-0.12217 -0.0945,-0.18899 -0.01982,-0.0595 0,-0.38729 0,-0.47246 0,-0.0315 0,-0.063 0,-0.0945 0,-0.0315 -0.01408,-0.0663 0,-0.0945 0.01992,-0.0398 0.07457,-0.0547 0.0945,-0.0945 0.06517,-0.13034 -0.114438,-0.0845 0.09449,-0.18899 0.02817,-0.0141 0.07222,0.0223 0.09449,0 0.02228,-0.0223 -0.02228,-0.0722 0,-0.0945 0.02228,-0.0223 0.07222,0.0223 0.0945,0 0.195511,-0.19551 -0.298767,0.008 0.09449,-0.18899 0.02817,-0.0141 0.07222,0.0223 0.09449,0 0.04454,-0.0445 -0.04455,-0.14444 0,-0.18899 0.02228,-0.0223 0.06632,0.0141 0.09449,0 0.393263,-0.19663 -0.101015,0.007 0.0945,-0.18898 0.003,-0.003 0.260564,0 0.283482,0 0.0315,0 0.063,0 0.09449,0 0.0315,0 0.06632,-0.0141 0.09449,0 0.03984,0.0199 0.05224,0.0804 0.09449,0.0945 0.05976,0.0199 0.129225,-0.0199 0.18899,0 0.04226,0.0141 0.05223,0.0804 0.09449,0.0945 0.430165,0 0.0054,-0.0445 0.283482,0.0945 0.251984,0 -0.0315,-0.0315 0.09449,0.0945 0.02228,0.0223 0.125992,0 0.0945,0 -0.07913,0 -0.400611,0.018 -0.472472,0 -0.456306,-0.11407 0.0047,-0.0449 -0.283483,-0.18899 -0.02817,-0.0141 -0.06461,0.01 -0.09449,0 -0.06682,-0.0223 -0.122171,-0.0722 -0.188987,-0.0945 -0.02988,-0.01 -0.06632,0.0141 -0.0945,0 -0.07968,-0.0398 -0.109302,-0.14915 -0.188986,-0.18899 -0.08452,-0.0423 -0.198964,0.0423 -0.283483,0 -0.02817,-0.0141 0.02817,-0.0804 0,-0.0945 -0.05635,-0.0282 -0.132643,0.0282 -0.188989,0 -0.02817,-0.0141 0.02817,-0.0804 0,-0.0945 -0.05635,-0.0282 -0.132641,0.0282 -0.188986,0 -0.02817,-0.0141 0.02228,-0.0722 0,-0.0945 -0.115094,-0.11509 -0.211122,-0.0443 -0.283483,-0.18899 -0.02817,-0.0563 0.02817,-0.13264 0,-0.18899 -0.01992,-0.0398 -0.07457,-0.0547 -0.09449,-0.0945 -0.01408,-0.0282 0,-0.063 0,-0.0945 0,-0.0315 -0.01408,-0.0663 0,-0.0945 0.01254,-0.0251 0.258392,-0.27093 0.28348,-0.28348 0.02817,-0.0141 0.06632,0.0141 0.0945,0 0.07968,-0.0398 0.109302,-0.14915 0.188986,-0.18899 0.02817,-0.0141 0.063,0 0.0945,0 0.0315,0 0.063,0 0.09449,0 0.08,0 0.327176,-0.0169 0.377976,0 0.04226,0.0141 0.05465,0.0746 0.09449,0.0945 0.02817,0.0141 0.06461,-0.01 0.0945,0 0.06682,0.0223 0.122169,0.0722 0.188987,0.0945 0.02988,0.01 0.06632,-0.0141 0.09449,0 0.03984,0.0199 0.05465,0.0746 0.0945,0.0945 0.05635,0.0282 0.144442,-0.0445 0.188987,0 0.02228,0.0223 -0.02228,0.0722 0,0.0945 0.02228,0.0223 0.07222,0.0223 0.0945,0 0.02228,-0.0223 0.0099,-0.0646 0,-0.0945 -0.09699,-0.29097 -0.391475,-0.42748 -0.566965,-0.66146 -0.251984,-0.50397 0.09449,0.0945 -0.283483,-0.28349 -0.0498,-0.0498 -0.04469,-0.13918 -0.09449,-0.18899 -0.0498,-0.0498 -0.130387,-0.0554 -0.188989,-0.0945 -0.07413,-0.0494 -0.109305,-0.14914 -0.188987,-0.18899 -0.02817,-0.0141 -0.06632,0.0141 -0.0945,0 -0.02508,-0.0125 -0.270936,-0.25839 -0.283482,-0.28348 -0.01408,-0.0282 0,-0.063 0,-0.0945 0,-0.0315 -0.02228,-0.0722 0,-0.0945 0.02228,-0.0223 0.07222,0.0223 0.0945,0 0.02228,-0.0223 -0.02228,-0.0722 0,-0.0945 0.02228,-0.0223 0.06632,0.0141 0.09449,0 0.03984,-0.0199 0.05465,-0.0746 0.09449,-0.0945 0.02817,-0.0141 0.063,0 0.0945,0 0.125992,0 0.251984,0 0.377976,0 0.063,0 0.129225,0.0199 0.188986,0 0.06682,-0.0223 0.122172,-0.0722 0.18899,-0.0945 0.05947,-0.0198 0.387297,0 0.472469,0 0.0315,0 0.063,0 0.0945,0 0.0315,0 0.06632,-0.0141 0.09449,0 0.233532,0.11677 -0.03262,0.0945 0.188987,0.0945 0.0315,0 0.07222,-0.0223 0.0945,0 0.02228,0.0223 0.0315,0.0945 0,0.0945 -0.0315,0 0.02228,-0.0722 0,-0.0945 -0.02228,-0.0223 -0.07222,0.0223 -0.0945,0 -0.07712,-0.0771 -0.20183,-0.45809 -0.28348,-0.56696 -0.05345,-0.0713 -0.125992,-0.12599 -0.188989,-0.18899 -0.0315,-0.0315 -0.08041,-0.0522 -0.09449,-0.0945 -0.136374,-0.40913 0.180645,0.0347 -0.0945,-0.37798 -0.02471,-0.0371 -0.06299,-0.063 -0.09449,-0.0945 -0.0315,-0.0315 -0.05465,-0.0746 -0.09449,-0.0945 -0.130342,-0.0652 -0.08452,0.11444 -0.18899,-0.0945 -0.01407,-0.0282 0.02817,-0.0804 0,-0.0945 -0.05634,-0.0282 -0.129225,0.0199 -0.188986,0 -0.188039,-0.0627 -0.0441,-0.0882 -0.0945,-0.18898 -0.01992,-0.0399 -0.07457,-0.0546 -0.09449,-0.0945 -0.01408,-0.0282 0,-0.063 0,-0.0945 0,-0.0315 0,-0.063 0,-0.0945 0,-0.0315 0,-0.063 0,-0.0945 0,-0.0315 -0.02228,-0.0722 0,-0.0945 0.02228,-0.0223 0.06461,0.01 0.09449,0 0.564446,-0.18815 -0.186468,-7.9e-4 0.377978,-0.18899 0.07606,-0.0253 0.31759,0.0302 0.377976,0 0.03984,-0.0199 0.05465,-0.0746 0.09449,-0.0945 0.02484,-0.0124 0.328562,0 0.377975,0 0.283483,0 0.566965,0 0.850448,0 0.15749,0 0.314978,0 0.472469,0 0.0315,0 0.063,0 0.09449,0 0.0315,0 0.06632,-0.0141 0.0945,0 0.07968,0.0398 0.104468,0.16081 0.188987,0.18898 0.430165,0 0.0054,-0.0445 0.283482,0.0945 0.02817,0.0141 0.07222,-0.0223 0.09449,0 0.02228,0.0223 -0.02228,0.0722 0,0.0945 0.02228,0.0223 0.07222,-0.0223 0.0945,0 0.02228,0.0223 -0.02228,0.0722 0,0.0945 0.02228,0.0223 0.07222,-0.0223 0.09449,0 0.02228,0.0223 0,0.063 0,0.0945 0,0.0315 0,0.063 0,0.0945 0,0.34647 0,0.69295 0,1.03943 0,0.0229 0.003,0.28044 0,0.28348 -0.02228,0.0223 -0.06632,-0.0141 -0.09449,0 -0.07968,0.0398 -0.109305,0.14915 -0.18899,0.18899 -0.07559,0.0378 -0.207885,-0.0378 -0.283482,0 -0.03984,0.0199 -0.05465,0.0746 -0.09449,0.0945 -0.05939,0.0297 -0.318584,-0.0297 -0.377975,0 -0.03984,0.0199 -0.05465,0.0746 -0.09449,0.0945 -0.02876,0.0144 -0.240927,0 -0.283482,0 -0.0315,0 -0.0945,0.0315 -0.0945,0 0,-0.0315 0.06632,-0.0141 0.0945,0 0.03984,0.0199 0.05223,0.0804 0.09449,0.0945 0.05976,0.0199 0.129225,-0.0199 0.188989,0 0.08452,0.0282 0.109302,0.14915 0.188987,0.18899 0.02817,0.0141 0.07222,-0.0223 0.09449,0 0.02228,0.0223 -0.02817,0.0804 0,0.0945 0.05635,0.0282 0.132644,-0.0282 0.188989,0 0.02817,0.0141 -0.02228,0.0722 0,0.0945 0.02228,0.0223 0.07222,-0.0223 0.09449,0 0.02228,0.0223 -0.01408,0.0663 0,0.0945 0.01992,0.0398 0.07457,0.0547 0.0945,0.0945 0.02969,0.0594 -0.0297,0.31858 0,0.37797 0.01992,0.0398 0.07457,0.0546 0.09449,0.0945 0.01437,0.0288 0,0.24093 0,0.28349 0,0.0315 0.02817,0.0804 0,0.0945 -0.05635,0.0282 -0.125992,0 -0.188989,0 -0.063,0 -0.125992,0 -0.188987,0 -0.188989,0 -0.377976,0 -0.566965,0 -0.063,0 -0.125992,0 -0.188989,0 -0.0315,0 -0.09449,-0.0315 -0.09449,0 0,0.0445 0.063,0.063 0.09449,0.0945 0.04975,0.0497 0.233016,0.25824 0.283482,0.28348 0.02817,0.0141 0.07222,-0.0223 0.0945,0 0.195512,0.19551 -0.298768,-0.008 0.09449,0.18899 0.02817,0.0141 0.07222,-0.0223 0.09449,0 0.02228,0.0223 -0.01408,0.0663 0,0.0945 0.01992,0.0398 0.07457,0.0547 0.09449,0.0945 0.02817,0.0563 -0.04454,0.14444 0,0.18898 0.02228,0.0223 0.07222,-0.0223 0.0945,0 0.02228,0.0223 0,0.063 0,0.0945 0,0.0315 0,0.063 0,0.0945 0,0.12966 0.04961,0.30593 -0.0945,0.37798 -0.05634,0.0282 -0.144441,-0.0445 -0.188986,0 -0.157491,0.15749 0.346477,0.0945 -0.18899,0.0945 -0.0486,0 -0.377975,-0.0519 -0.377975,0.0945 0,0.16579 0.218329,0.0619 0.283482,0.0945 0.393261,0.19663 -0.101018,-0.007 0.09449,0.18899 0.02228,0.0223 0.06632,-0.0141 0.0945,0 0.03984,0.0199 0.063,0.063 0.09449,0.0945 0.0315,0.0315 0.07457,0.0547 0.09449,0.0945 0.01408,0.0282 -0.01408,0.0663 0,0.0945 0.03984,0.0797 0.149146,0.1093 0.188989,0.18899 0.01408,0.0282 0,0.063 0,0.0945 0,0.0315 0,0.063 0,0.0945 0,0.15749 0,0.31499 0,0.47248 0,0.0347 0.0038,0.37417 0,0.37797 -0.02228,0.0223 -0.07222,-0.0223 -0.0945,0 -0.02228,0.0223 0.02817,0.0804 0,0.0945 -0.05634,0.0282 -0.125992,0 -0.188986,0 -0.063,0 -0.132644,0.0282 -0.18899,0 -0.02817,-0.0141 0.02817,-0.0804 0,-0.0945 -0.05634,-0.0282 -0.13264,0.0282 -0.188986,0 -0.02817,-0.0141 0.02817,-0.0804 0,-0.0945 -0.05635,-0.0282 -0.132644,0.0282 -0.188989,0 -0.02817,-0.0141 0.02228,-0.0722 0,-0.0945 -0.02228,-0.0223 -0.07222,0.0223 -0.09449,0 -0.02228,-0.0223 -0.0315,-0.0945 0,-0.0945 0.0315,0 0,0.063 0,0.0945 0,0.0315 0,0.063 0,0.0945 0,0.22048 0,0.44097 0,0.66146 0,0.0425 0.01437,0.25472 0,0.28348 -0.01992,0.0398 -0.07457,0.0546 -0.09449,0.0945 -0.01408,0.0282 0,0.063 0,0.0945 0,0.0315 0,0.063 0,0.0945 0,0.25198 0,0.50397 0,0.75595 0,0.0426 -0.01437,0.25473 0,0.28348 0.01992,0.0399 0.07457,0.0547 0.09449,0.0945 0.01408,0.0282 -0.02228,0.0722 0,0.0945 0.02228,0.0223 0.07222,-0.0223 0.09449,0 0.04454,0.0445 -0.02817,0.13265 0,0.18899 0.01992,0.0398 0.07457,0.0547 0.09449,0.0945 0.01408,0.0282 0,0.063 0,0.0945 0,0.063 0,0.12599 0,0.18899 0,0.15749 0,0.31498 0,0.47247 0,0.0315 0.02228,0.0722 0,0.0945 -0.02228,0.0223 -0.06632,-0.0141 -0.09449,0 -0.393261,0.19663 0.101018,-0.007 -0.09449,0.18899 -0.02228,0.0223 -0.07222,-0.0223 -0.09449,0 -0.02228,0.0223 0.02817,0.0804 0,0.0945 -0.05635,0.0282 -0.129226,-0.0199 -0.188989,0 -0.04226,0.0141 -0.05465,0.0746 -0.09449,0.0945 -0.02484,0.0124 -0.328565,0 -0.377976,0"
           id="path1548-7"
           inkscape:connector-curvature="0" />
      </g>
    </pattern>
  </defs>
  <sodipodi:namedview
     id="base"
     pagecolor="#ffffff"
     bordercolor="#666666"
     borderopacity="1.0"
     inkscape:pageopacity="0.0"
     inkscape:pageshadow="2"
     inkscape:zoom="1.979899"
     inkscape:cx="57.853882"
     inkscape:cy="222.89074"
     inkscape:document-units="mm"
     inkscape:current-layer="layer1"
     showgrid="false"
     units="px"
     inkscape:window-width="1920"
     inkscape:window-height="1008"
     inkscape:window-x="0"
     inkscape:window-y="24"
     inkscape:window-maximized="1">
    <inkscape:grid
       type="xygrid"
       id="grid3717" />
  </sodipodi:namedview>
  <metadata
     id="metadata5">
    <rdf:RDF>
      <cc:Work
         rdf:about="">
        <dc:format>image/svg+xml</dc:format>
        <dc:type
           rdf:resource="http://purl.org/dc/dcmitype/StillImage" />
        <dc:title />
      </cc:Work>
    </rdf:RDF>
  </metadata>
  <g
     inkscape:label="Layer 1"
     inkscape:groupmode="layer"
     id="layer1"
     transform="translate(0,-161.53332)">
    <path
       sodipodi:type="star"
       id="path3715"
       sodipodi:sides="6"
       sodipodi:cx="33.898205"
       sodipodi:cy="229.26665"
       sodipodi:r1="39.109962"
       sodipodi:r2="33.87022"
       sodipodi:arg1="0.52359878"
       sodipodi:arg2="1.0471976"
       inkscape:flatsided="true"
       inkscape:rounded="0"
       inkscape:randomized="0"
       d="m 67.768426,248.82163 -33.870221,19.55498 -33.87022132,-19.55498 1.8e-7,-39.10996 33.87022114,-19.55499 33.870221,19.55499 z"
       style="fill:#eded95;stroke:#000000;stroke-width:0.51276147;stroke-opacity:1;fill-opacity:1" />
    <path
       style="fill:none;stroke:#000000;stroke-width:0.26458332px;stroke-linecap:butt;stroke-linejoin:miter;stroke-opacity:1"
       d="m 10.289877,211.87464 c 9.888972,0.13364 10.289876,-5.74629 20.178848,-5.87993 9.888974,-0.13363 15.635269,6.01357 23.118815,6.1472"
       id="path1555"
       inkscape:connector-curvature="0" />
    <path
       style="fill:none;stroke:#000000;stroke-width:0.26458332px;stroke-linecap:butt;stroke-linejoin:miter;stroke-opacity:1"
       d="m 2.9399646,226.3072 c 9.7553384,-2.00452 11.7598594,-6.68174 19.7779454,-6.94901 8.018086,-0.26727 13.363476,4.81085 17.773424,4.67722"
       id="path1557"
       inkscape:connector-curvature="0" />
    <path
       style="fill:none;stroke:#000000;stroke-width:0.26458332px;stroke-linecap:butt;stroke-linejoin:miter;stroke-opacity:1"
       d="m 24.455161,235.79526 c 14.566189,-1.33634 14.833458,-5.61266 22.985178,-6.1472 8.151722,-0.53453 11.893494,4.40995 15.768902,4.54359"
       id="path1559"
       inkscape:connector-curvature="0" />
    <path
       style="fill:none;stroke:#000000;stroke-width:0.26458332px;stroke-linecap:butt;stroke-linejoin:miter;stroke-opacity:1"
       d="m 14.298633,249.15983 c 9.888973,0.13364 10.289876,-5.74629 20.178848,-5.87993 9.888974,-0.13363 15.635269,6.01357 23.118815,6.1472"
       id="path1555-3"
       inkscape:connector-curvature="0" />
  </g>
</svg>
