<?xml version="1.0" encoding="UTF-8" standalone="no"?>
<!-- Created with Inkscape (http://www.inkscape.org/) -->

<svg
   xmlns:dc="http://purl.org/dc/elements/1.1/"
   xmlns:cc="http://creativecommons.org/ns#"
   xmlns:rdf="http://www.w3.org/1999/02/22-rdf-syntax-ns#"
   xmlns:svg="http://www.w3.org/2000/svg"
   xmlns="http://www.w3.org/2000/svg"
   xmlns:xlink="http://www.w3.org/1999/xlink"
   xmlns:sodipodi="http://sodipodi.sourceforge.net/DTD/sodipodi-0.dtd"
   xmlns:inkscape="http://www.inkscape.org/namespaces/inkscape"
   width="11"
   height="16"
   id="svg2"
   version="1.1"
   inkscape:version="0.91 r13725"
   sodipodi:docname="Lumber_Icon.svg">
  <defs
     id="defs4">
    <linearGradient
       id="linearGradient4075-87">
      <stop
         style="stop-color:#339900;stop-opacity:1;"
         offset="0"
         id="stop4077-62" />
      <stop
         style="stop-color:#015a01;stop-opacity:1"
         offset="1"
         id="stop4079-04" />
    </linearGradient>
    <linearGradient
       id="linearGradient10972-9">
      <stop
         style="stop-color:#339900;stop-opacity:1;"
         offset="0"
         id="stop10974-35" />
      <stop
         style="stop-color:#015a01;stop-opacity:1"
         offset="1"
         id="stop10976-30" />
    </linearGradient>
    <linearGradient
       id="linearGradient4075-2">
      <stop
         style="stop-color:#339900;stop-opacity:1;"
         offset="0"
         id="stop4077-0" />
      <stop
         style="stop-color:#015a01;stop-opacity:1"
         offset="1"
         id="stop4079-3" />
    </linearGradient>
    <linearGradient
       id="linearGradient10972-0">
      <stop
         style="stop-color:#339900;stop-opacity:1;"
         offset="0"
         id="stop10974-3" />
      <stop
         style="stop-color:#015a01;stop-opacity:1"
         offset="1"
         id="stop10976-4" />
    </linearGradient>
    <linearGradient
       id="linearGradient4075-12">
      <stop
         style="stop-color:#339900;stop-opacity:1;"
         offset="0"
         id="stop4077-6" />
      <stop
         style="stop-color:#015a01;stop-opacity:1"
         offset="1"
         id="stop4079-62" />
    </linearGradient>
    <linearGradient
       id="linearGradient10972-3">
      <stop
         style="stop-color:#339900;stop-opacity:1;"
         offset="0"
         id="stop10974-9" />
      <stop
         style="stop-color:#015a01;stop-opacity:1"
         offset="1"
         id="stop10976-9" />
    </linearGradient>
    <linearGradient
       id="linearGradient4075-4">
      <stop
         style="stop-color:#339900;stop-opacity:1;"
         offset="0"
         id="stop4077-7" />
      <stop
         style="stop-color:#015a01;stop-opacity:1"
         offset="1"
         id="stop4079-4" />
    </linearGradient>
    <linearGradient
       id="linearGradient10972-8">
      <stop
         style="stop-color:#339900;stop-opacity:1;"
         offset="0"
         id="stop10974-68" />
      <stop
         style="stop-color:#015a01;stop-opacity:1"
         offset="1"
         id="stop10976-7" />
    </linearGradient>
    <linearGradient
       id="linearGradient4075-1">
      <stop
         style="stop-color:#339900;stop-opacity:1;"
         offset="0"
         id="stop4077-4" />
      <stop
         style="stop-color:#015a01;stop-opacity:1"
         offset="1"
         id="stop4079-9" />
    </linearGradient>
    <linearGradient
       id="linearGradient10972-5">
      <stop
         style="stop-color:#339900;stop-opacity:1;"
         offset="0"
         id="stop10974-1" />
      <stop
         style="stop-color:#015a01;stop-opacity:1"
         offset="1"
         id="stop10976-38" />
    </linearGradient>
    <linearGradient
       id="linearGradient4075-0">
      <stop
         style="stop-color:#339900;stop-opacity:1;"
         offset="0"
         id="stop4077-8" />
      <stop
         style="stop-color:#015a01;stop-opacity:1"
         offset="1"
         id="stop4079-2" />
    </linearGradient>
    <linearGradient
       id="linearGradient10972-2">
      <stop
         style="stop-color:#339900;stop-opacity:1;"
         offset="0"
         id="stop10974-78" />
      <stop
         style="stop-color:#015a01;stop-opacity:1"
         offset="1"
         id="stop10976-23" />
    </linearGradient>
    <linearGradient
       id="linearGradient4075-7">
      <stop
         style="stop-color:#339900;stop-opacity:1;"
         offset="0"
         id="stop4077-50" />
      <stop
         style="stop-color:#015a01;stop-opacity:1"
         offset="1"
         id="stop4079-6" />
    </linearGradient>
    <linearGradient
       id="linearGradient10972-6">
      <stop
         style="stop-color:#339900;stop-opacity:1;"
         offset="0"
         id="stop10974-8" />
      <stop
         style="stop-color:#015a01;stop-opacity:1"
         offset="1"
         id="stop10976-3" />
    </linearGradient>
    <linearGradient
       id="linearGradient4075-8">
      <stop
         style="stop-color:#339900;stop-opacity:1;"
         offset="0"
         id="stop4077-5" />
      <stop
         style="stop-color:#015a01;stop-opacity:1"
         offset="1"
         id="stop4079-0" />
    </linearGradient>
    <linearGradient
       id="linearGradient10972-1">
      <stop
         style="stop-color:#339900;stop-opacity:1;"
         offset="0"
         id="stop10974-6" />
      <stop
         style="stop-color:#015a01;stop-opacity:1"
         offset="1"
         id="stop10976-2" />
    </linearGradient>
    <linearGradient
       id="linearGradient4075">
      <stop
         style="stop-color:#339900;stop-opacity:1;"
         offset="0"
         id="stop4077" />
      <stop
         style="stop-color:#015a01;stop-opacity:1"
         offset="1"
         id="stop4079" />
    </linearGradient>
    <linearGradient
       id="linearGradient10972-4">
      <stop
         style="stop-color:#339900;stop-opacity:1;"
         offset="0"
         id="stop10974-7" />
      <stop
         style="stop-color:#015a01;stop-opacity:1"
         offset="1"
         id="stop10976-1" />
    </linearGradient>
    <linearGradient
       inkscape:collect="always"
       id="linearGradient12396">
      <stop
         style="stop-color:#aa7d23;stop-opacity:1"
         offset="0"
         id="stop12398" />
      <stop
         style="stop-color:#986601;stop-opacity:1"
         offset="1"
         id="stop12400" />
    </linearGradient>
    <radialGradient
       inkscape:collect="always"
       xlink:href="#linearGradient10972"
       id="radialGradient12155"
       gradientUnits="userSpaceOnUse"
       gradientTransform="matrix(0.07894647,0.50694359,-0.43764103,0.06815232,638.29969,564.88839)"
       cx="-80.996529"
       cy="432.79779"
       fx="-80.996529"
       fy="432.79779"
       r="198.36472" />
    <linearGradient
       id="linearGradient10972">
      <stop
         style="stop-color:#339900;stop-opacity:1;"
         offset="0"
         id="stop10974" />
      <stop
         style="stop-color:#015a01;stop-opacity:1"
         offset="1"
         id="stop10976" />
    </linearGradient>
    <radialGradient
       inkscape:collect="always"
       xlink:href="#linearGradient11508"
       id="radialGradient12152"
       gradientUnits="userSpaceOnUse"
       gradientTransform="matrix(0.27479282,-1.4340745,0.66543522,0.12750911,310.05561,-437.22248)"
       cx="-537.40118"
       cy="338.70801"
       fx="-537.40118"
       fy="338.70801"
       r="114.64719" />
    <linearGradient
       inkscape:collect="always"
       id="linearGradient11508">
      <stop
         style="stop-color:#339900;stop-opacity:1"
         offset="0"
         id="stop11510" />
      <stop
         style="stop-color:#015a01;stop-opacity:1"
         offset="1"
         id="stop11512" />
    </linearGradient>
    <radialGradient
       inkscape:collect="always"
       xlink:href="#linearGradient11518"
       id="radialGradient12149"
       gradientUnits="userSpaceOnUse"
       gradientTransform="matrix(0.12217521,-0.55073608,0.52988298,0.11288127,179.65645,138.78411)"
       cx="-507.09659"
       cy="374.63495"
       fx="-507.09659"
       fy="374.63495"
       r="140.50288" />
    <linearGradient
       inkscape:collect="always"
       id="linearGradient11518">
      <stop
         style="stop-color:#339900;stop-opacity:1"
         offset="0"
         id="stop11520" />
      <stop
         style="stop-color:#015a01;stop-opacity:1"
         offset="1"
         id="stop11522" />
    </linearGradient>
    <radialGradient
       inkscape:collect="always"
       xlink:href="#linearGradient11518"
       id="radialGradient12146"
       gradientUnits="userSpaceOnUse"
       gradientTransform="matrix(0.12424279,-0.47622246,0.53885025,0.09760864,277.36273,181.08148)"
       cx="-507.09659"
       cy="374.63495"
       fx="-507.09659"
       fy="374.63495"
       r="140.50288" />
    <radialGradient
       inkscape:collect="always"
       xlink:href="#linearGradient10972"
       id="radialGradient12143"
       gradientUnits="userSpaceOnUse"
       gradientTransform="matrix(0.06543578,0.40874557,-0.36274431,0.05495081,483.47919,378.60731)"
       cx="-80.996529"
       cy="432.79779"
       fx="-80.996529"
       fy="432.79779"
       r="198.36472" />
    <linearGradient
       id="linearGradient12254">
      <stop
         style="stop-color:#339900;stop-opacity:1;"
         offset="0"
         id="stop12256" />
      <stop
         style="stop-color:#015a01;stop-opacity:1"
         offset="1"
         id="stop12258" />
    </linearGradient>
    <radialGradient
       inkscape:collect="always"
       xlink:href="#linearGradient11508"
       id="radialGradient12140"
       gradientUnits="userSpaceOnUse"
       gradientTransform="matrix(-0.90336325,-1.0349262,0.36713006,-0.5069476,-297.95973,202.72977)"
       cx="-537.40118"
       cy="338.70801"
       fx="-537.40118"
       fy="338.70801"
       r="114.64719" />
    <radialGradient
       inkscape:collect="always"
       xlink:href="#linearGradient11518"
       id="radialGradient12137"
       gradientUnits="userSpaceOnUse"
       gradientTransform="matrix(0.10976969,-0.48367383,0.47607933,0.0991359,250.01792,262.51268)"
       cx="-507.09659"
       cy="374.63495"
       fx="-507.09659"
       fy="374.63495"
       r="140.50288" />
    <radialGradient
       r="140.50288"
       fy="374.63495"
       fx="-507.09659"
       cy="374.63495"
       cx="-507.09659"
       gradientTransform="matrix(0.10976969,-0.48367383,0.47607933,0.0991359,250.01792,262.51268)"
       gradientUnits="userSpaceOnUse"
       id="radialGradient12283"
       xlink:href="#linearGradient11518"
       inkscape:collect="always" />
    <radialGradient
       inkscape:collect="always"
       xlink:href="#linearGradient12396"
       id="radialGradient12402"
       cx="386.34476"
       cy="459.59039"
       fx="386.34476"
       fy="459.59039"
       r="75.88269"
       gradientTransform="matrix(-0.16929935,2.2123255,-0.31328051,-0.02397404,570.0814,-285.83916)"
       gradientUnits="userSpaceOnUse" />
  </defs>
  <sodipodi:namedview
     id="base"
     pagecolor="#ffffff"
     bordercolor="#666666"
     borderopacity="1.0"
     inkscape:pageopacity="0.0"
     inkscape:pageshadow="2"
     inkscape:zoom="7.9195959"
     inkscape:cx="-5.0400262"
     inkscape:cy="3.0849375"
     inkscape:document-units="px"
     inkscape:current-layer="layer1"
     showgrid="true"
     inkscape:window-width="1537"
     inkscape:window-height="871"
     inkscape:window-x="59"
     inkscape:window-y="0"
     inkscape:window-maximized="1">
    <inkscape:grid
       type="xygrid"
       id="grid3419"
       empspacing="5"
       visible="true"
       enabled="true"
       snapvisiblegridlinesonly="true" />
  </sodipodi:namedview>
  <metadata
     id="metadata7">
    <rdf:RDF>
      <cc:Work
         rdf:about="">
        <dc:format>image/svg+xml</dc:format>
        <dc:type
           rdf:resource="http://purl.org/dc/dcmitype/StillImage" />
        <dc:title></dc:title>
      </cc:Work>
    </rdf:RDF>
  </metadata>
  <g
     inkscape:label="Layer 1"
     inkscape:groupmode="layer"
     id="layer1"
     transform="translate(0,-1036.3622)">
    <g
       id="g4948"
       transform="matrix(0.05980944,0,0,0.03550343,24.864733,1016.2529)"
       style="fill:#024900;fill-opacity:1">
      <path
         style="fill:#024900;fill-opacity:1"
         d="m -378.15065,936.909 c -8.12717,-9.46642 -18.84492,2.03727 -24.34935,-10.34474 11.40055,-6.1249 27.08909,-5.0749 30.73008,-18.8887 -9.34102,7.44794 -13.81839,-0.75677 -21.66758,-5.88679 -12.04406,-13.5118 35.5818,-1.46621 15.37084,-12.85923 -6.47591,-10.57675 -14.33464,-0.66793 -22.39949,2.05556 -17.9026,-2.53327 9.62556,-13.5092 -6.17544,-16.67084 -2.5204,-3.61057 21.53673,-11.3714 5.43562,-7.03596 -5.60211,-3.36275 -11.23581,-10.90803 0.52892,-11.71693 6.0572,-5.82036 -14.13891,-11.48264 -12.25827,-21.35858 -8.53277,-11.8599 4.45696,-14.99737 12.24287,-7.21606 9.94747,4.47379 10.32195,1.75747 1.64709,-2.4061 -14.77328,-13.89217 16.2108,-6.42723 18.75697,-11.64585 -10.98395,1.32047 -7.91713,-15.86517 -19.78165,-14.42816 1.77325,-9.07194 -9.9669,-4.47162 -10.74,-14.11361 -5.78034,-13.37198 17.91192,3.12026 23.79771,3.65521 8.76633,6.09242 21.56627,-0.59142 24.19271,-4.29972 -9.4427,-1.70178 -11.70672,-11.96739 -22.37056,-12.26861 0.84375,-7.77095 -23.41946,-16.86922 -5.1486,-16.27391 13.84547,-1.71255 -3.19022,-12.75319 -5.41538,-21.06655 -10.78636,-7.98477 4.54272,-4.36098 8.23093,-2.25581 -3.90289,-5.32808 -10.4178,-14.08939 1.77868,-11.09098 16.29618,3.81364 20.09714,-6.56278 5.11955,-10.93049 -12.25879,-17.18935 37.50693,4.73844 18.99697,-10.77147 -9.46427,-3.87367 2.74467,-19.02718 10.54016,-7.89668 13.47748,10.14737 5.63563,-10.60693 -3.15289,-9.19967 -5.69249,-4.61424 -13.82619,-14.82605 -12.98532,-20.47263 7.32473,-0.003 17.98384,6.09899 9.19278,-3.5362 -6.7929,-6.18187 -4.77929,-21.7555 4.2833,-8.74835 17.67416,18.78135 -7.74619,-25.00745 10.96453,-14.93061 6.12747,-8.85381 -13.67402,-25.28725 6.50325,-21.50808 11.3452,0.74905 -9.76672,-21.06375 4.93259,-12.5844 12.55436,8.45107 -5.09387,-7.07755 6.3496,-8.47691 -6.14235,-4.24128 0.64266,-19.76361 4.80709,-25.33214 3.1655,7.13543 10.79953,12.471 12.80091,19.91828 12.57382,1.07303 2.32797,19.8066 6.88742,16.30518 10.21862,3.30336 8.91613,18.62815 10.0119,26.65459 12.7117,-1.52471 -4.0403,3.43332 2.6628,8.12869 -11.40974,10.51072 15.28624,-4.73382 6.26738,8.60665 2.76395,7.05152 11.64516,17.80434 10.0625,26.09375 4.27138,8.04821 -8.51308,19.90015 3.23428,26.24502 -5.5259,11.9275 -22.22811,-1.21955 -18.0015,14.48019 8.87062,7.6729 9.30065,-7.14926 20.46776,-0.93031 8.30467,-0.14573 6.23546,15.48021 15.76125,3.89755 14.21306,3.66313 -8.6969,16.72082 -14.64423,11.24498 -3.04535,3.82111 -19.64218,6.80383 -15.58712,10.12187 10.51839,-2.18551 27.8475,1.717 19.99676,13.65035 8.52292,-0.5943 14.13666,0.47004 10.74462,10.79243 9.06463,5.96413 -7.85487,7.61529 2.84017,12.47107 11.17241,11.34545 -1.27341,18.6735 -5.83862,28.75967 8.8303,4.89595 4.84787,10.56435 -3.37852,11.07966 12.30582,0.91211 6.45532,13.51202 1.62399,22.33932 7.24965,0.24297 16.31699,11.67071 17.05862,-0.7839 13.13097,2.78906 -1.6027,9.49761 -3.00388,15.34827 11.44666,8.0405 -18.25737,15.98951 -7.49216,23.48992 10.65065,-3.89698 15.09611,13.53087 2.7688,15.29893 -2.59212,11.62749 -19.50276,-5.28877 -14.7017,6.54986 11.02902,-0.42291 17.31148,7.70979 11.99915,16.987 11.78965,-3.24502 10.52455,11.10681 -0.18128,10.17629 -11.86286,10.01881 -23.42243,27.83967 -41.38139,17.95565 -39.89664,-14.87765 -53.56454,-17.3302 -88.93562,-4.37697 z M -362.5,919.86218 c -2.22658,-3.94115 -13.49192,1.4011 -1.54239,0.80891 z m 3.75,-6.83259 c -1.98775,-9.94925 -10.26099,-11.81515 -2.77368,-0.69078 l 1.4599,1.27337 z m 68.125,-3.89502 c -19.67378,-1.28159 13.6444,5.45423 0,0 z m -60.60632,-1.71469 c -10.56992,-5.131 5.12477,6.66846 1.64093,1.26079 z M -303.75,905.6313 c -11.21402,-23.30906 -3.73878,9.85987 0,0 z m 46.90808,-3.02771 c -4.05492,0.0597 -3.67202,4.71592 0,0 z M -340,892.21639 c -6.51961,-8.46994 -7.09425,10.40487 0,0 z m -11.64387,-2.44211 c 8.85102,-6.80216 -20.57756,1.56886 -2.5531,0.89488 z m 60.88802,-6.89688 c -1.79666,-4.49198 -12.03677,-9.7954 -19.24415,-12.37646 2.80609,5.39966 12.96258,19.18881 19.24415,12.37646 z m -62.98243,-14.92103 c 3.44701,-4.7611 15.51935,-12.84664 1.93812,-7.0512 -4.30748,0.30286 -7.96482,16.31023 -1.93812,7.0512 z m -32.61589,-10.14504 c -7.72635,-2.23563 -9.60837,3.84724 0,0 z m 21.73241,-9.9694 c 5.68168,-0.67033 17.79508,-5.49437 4.52798,-3.33193 -9.99675,-2.38576 -30.32089,-13.50769 -35.97021,-4.69184 8.46573,4.09379 17.91996,3.21907 22.0791,9.84645 3.16251,-0.37078 6.25613,-1.15196 9.36313,-1.82268 z M -258.75,831.11218 c -1.86617,-3.95026 -2.82105,4.29311 0,0 z M -280,812.43595 c -4.5599,-7.67582 -12.13883,5.04078 0,0 z m -76.43653,-3.94606 c 13.8329,-7.55201 -28.301,-9.93856 -14.45115,-1.80695 4.76862,0.68628 9.74949,4.69075 14.45115,1.80695 z M -280,796.89023 c -4.97333,-8.02391 -5.31318,2.8409 0,0 z m -7.06332,-10.11301 c -0.74329,-7.40529 -8.73817,7.24108 0,0 z m 38.03898,-5.46703 c -5.08241,-5.09943 -7.97909,6.69179 0,0 z M -357.5,776.73718 c -3.16289,-6.50909 -2.54726,6.27485 0,0 z m 29.375,-6.875 c -0.50697,-5.8761 -10.35219,6.58258 0,0 z m 67.1875,-7.07785 c -4.95933,-1.05828 -4.19184,1.96788 0,0 z M -255,762.36218 c -3.36565,-5.03748 -2.94582,4.86674 0,0 z m -106.08003,-1.34168 c -2.68,-9.66861 -7.57558,-0.64268 -16.13515,-4.73985 2.15713,3.97823 18.98693,8.01675 16.13515,4.73985 z m 59.10461,-3.16776 c 3.16266,-7.81546 -14.19836,-7.88981 -3.93814,0.64506 l 1.72665,-0.011 2.21149,-0.63402 0,0 z m -22.93083,-3.33431 c -2.21326,-3.79343 -3.76925,5.14316 0,0 z m 38.65625,-7.19652 c -7.54195,-8.07834 -13.36073,2.0527 0,0 z m -10.625,-14.95973 c 5.84616,-4.81168 -11.73021,3.69625 0,0 z m -33.85312,-3.58539 c 14.71962,-8.68216 -21.69202,0.76823 -9.91552,0.97571 3.32199,-0.0784 6.65033,-0.34059 9.91552,-0.97571 z m 40.143,-6.3501 c -11.90181,-7.76432 -1.54527,6.59514 0,0 z M -265,721.81095 c -2.01849,-4.09608 -5.25634,2.70562 0,0 z m -85,-7.57377 c -10.68306,-6.37955 0.49659,5.9117 0,0 z m 19.69376,-10.9375 c -9.54511,-8.04941 -5.4876,6.11803 0,0 z m -27.81876,-8.4375 c -2.3401,-4.63038 -4.78658,4.22309 0,0 z m 56.875,-11.25 c -3.36565,-5.03748 -2.94582,4.86674 0,0 z m -38.1579,-11.19676 c -3.12389,-8.16111 -16.08796,-8.08397 -5.19788,-0.062 1.42678,0.3476 4.17113,2.2591 5.19788,0.062 z m 10.6579,-10.05324 c -3.36565,-5.03748 -2.94582,4.86674 0,0 z m 37.55061,-1.48507 c 10.72172,-9.55046 -8.38303,0.30406 -2.94752,2.03276 z m -7.88825,-8.59522 c -2.786,-7.04435 -4.00027,8.23074 0,0 z M -328.75,618.04714 c -6.11891,-9.34461 -3.59202,9.57351 0,0 z m 84.03646,151.58066 c 4.79306,-6.78977 3.40272,5.51316 0,0 z m -22.47455,-61.32812 c 7.72998,-7.45189 2.55986,4.56007 0,0 z m -83.43691,-78.4375 c 0.3299,-4.58416 3.75202,4.21098 0,0 z"
         id="path4962"
         inkscape:connector-curvature="0"
         sodipodi:nodetypes="cccccccccccccccccccccccccccccccccccccccccccccccccccccccccccccccccccccccccccccccccccccccccccccccccccccccccccccccccccccccccccccccccccccccccccccccccccccccccccccccccccccc" />
      <path
         style="fill:#024900;fill-opacity:1"
         d="m -369.17569,935.0116 c -10.47291,-2.16785 -20.78096,-3.89796 -28.75557,-4.93535 -5.55445,-12.6196 23.80489,-1.38679 21.13598,-14.62697 11.96344,-2.88241 4.71379,-14.16739 -4.21303,-6.1819 -6.6382,-4.04195 -22.01855,-14.70135 -4.50227,-13.55844 9.75188,3.49308 21.84091,-3.796 6.9742,-8.14071 -6.22417,-14.39971 -25.05412,11.93771 -26.6056,-2.98003 13.99144,-2.66929 -6.26465,-14.81497 8.76723,-15.86583 11.01325,-5.90385 -18.65856,-3.072 -7.21659,-11.11588 19.56721,-6.44557 -10.44356,-10.73571 -7.97116,-24.0874 0.20896,-3.84002 1.54754,-8.08233 0.75301,-9.90691 5.07156,4.11986 29.93961,12.35146 14.46872,1.43208 -19.67365,-12.97478 21.39641,-4.58443 16.54784,-13.56421 -11.11688,0.96734 -3.59053,-18.0035 -18.53611,-15.03135 6.49092,-8.52074 -12.12529,-1.65256 -11.33366,-13.1544 2.59557,-6.36401 24.14752,9.78362 34.64409,7.83994 7.03842,-0.19919 21.60034,-6.99589 10.38331,-11.50128 3.44288,-2.6713 10.47785,2.81514 9.68071,-6.70053 -5.63366,-4.4762 -23.49894,6.30902 -28.45459,-7.69476 -6.57056,-3.1179 -17.29096,-7.89115 -4.61083,-9.44104 21.64235,-0.0739 -18.59753,-25.35754 5.29839,-21.30959 15.52809,2.65512 -21.02825,-13.00879 -2.72862,-12.00642 4.98623,0.98289 28.86103,7.50505 14.25136,0.74273 13.98638,-8.24657 -25.71207,-18.76003 -2.84901,-18.9159 8.88311,-1.09733 12.98884,9.6871 19.44118,1.92378 -8.04967,-5.82618 2.5644,-14.24426 -6.64332,-15.59826 4.36968,-5.36051 32.39506,18.57085 17.84116,-0.63952 1.32615,-12.38282 -24.18679,-9.051 -18.00692,-25.27077 11.29465,-4.15271 15.52619,22.19911 23.23426,13.93298 -7.12633,-3.79583 8.87588,-10.34457 -5.54928,-11.534 -10.83054,-4.14763 -12.23266,-13.0917 -17.0227,-21.92267 5.08568,1.9075 18.49303,20.45289 20.00002,11.44715 -5.33091,-1.90457 -13.72824,-26.20212 -0.17225,-21.44697 5.46151,-7.99518 -12.78797,-29.19937 6.3889,-18.57355 12.31795,13.14022 -0.69029,-12.79949 1.06288,-15.44252 8.44832,7.47667 9.8486,-0.0606 5.45897,-5.99961 7.80068,-2.8147 0.89064,-25.00616 7.62138,-24.84863 6.75795,4.23345 5.92487,8.69049 4.38046,12.65451 12.73983,3.37974 13.32953,13.87135 11.81282,25.62281 12.36673,-11.46609 -8.28601,12.0886 4.53526,2.5 11.05359,-5.6468 0.30423,21.12312 8.36285,27.59751 -5.48021,11.68717 17.67386,-5.29494 6.77336,9.00349 -0.0987,5.95576 10.35248,7.04568 5.16366,14.23089 7.28014,3.67026 6.46031,15.28227 3.67074,21.30433 4.02885,4.2609 -3.27687,13.24032 -4.16738,4.78688 -11.52084,3.46829 12.87335,13.87416 -0.73405,13.12404 -6.62656,-1.84016 -11.09631,12.66076 -9.93749,13.70286 6.43017,6.02615 -17.21184,3.90426 -2.94433,10.58528 3.85053,-4.7467 13.67693,-1.97608 15.69882,-4.01663 3.65727,-5.36784 0.56332,-12.2448 12.017,-8.06404 10.33365,8.40096 -12.07523,-1.59492 -3.74384,9.22072 5.75843,8.09578 -8.73628,-0.60607 -6.27576,7.14482 -4.5361,0.0288 -16.8173,12.51302 -4.02073,8.81262 7.81298,-2.15209 17.94644,1.63475 15.73969,6.02602 5.39115,-1.21143 -3.21677,12.63101 8.125,9.02207 8.74534,1.02784 3.01267,6.66799 -2.48239,3.1137 -6.71741,0.78042 -14.12624,15.78338 -4.22582,16.00706 6.20176,1.3686 20.20304,-1.3372 7.56885,4.13516 -9.76848,11.45895 8.57617,6.31762 10.93765,5.27444 0.48951,9.24521 -18.0634,17.79284 -5.56139,27.66829 -10.64654,0.38334 -10.06715,15.93456 -12.48446,23.20377 8.21828,5.40158 12.29794,12.58165 22.99544,11.28786 -6.33138,7.32377 2.6735,16.36386 -10.2975,19.85087 -4.05283,9.42917 -0.81133,13.44744 8.23712,13.44206 8.15954,12.33431 -13.52021,11.69064 -18.13772,9.89887 -11.99897,10.26293 15.67229,11.74442 1.70576,13.7115 -13.70085,9.91941 20.2221,-4.56225 8.326,6.23551 -7.97941,10.30522 18.73463,6.23496 4.90016,12.83599 -14.61282,4.00175 -20.05615,28.40271 -38.09801,22.04163 -27.47857,-12.49449 -36.25407,-7.97782 -86.62185,-7.28815 z m 8.19001,-13.7542 c 10.80692,-6.6755 -8.75363,-28.46297 -3.35014,-11.73366 8.83428,9.50904 -20.97887,9.69715 -5.07345,12.15891 2.81026,-0.007 5.63567,-0.0303 8.42359,-0.42525 z m 74.43242,-10.45772 c -6.10562,-8.13688 -16.84526,0.9478 -4.60631,1.64862 0.29109,-0.5966 4.84911,0.56408 4.60631,-1.64862 z m -61.6246,-0.85197 c -8.06657,-14.62674 -12.81301,5.90652 0,0 z M -304,908.36218 c 6.03354,-7.55442 -14.42348,-15.68304 -4.12328,-2.95847 0.36247,2.50214 1.07884,6.57928 4.12328,2.95847 z m 31.67403,-3.60462 c 6.73397,-1.98555 -15.6926,-0.87263 -14.22001,-2.12134 3.48941,4.1741 9.86167,6.67317 14.22001,2.12134 z m -68.40428,-8.60537 c 5.37962,-3.80376 4.7834,-15.61981 -2.88124,-7.79021 -8.52549,-9.48151 -28.81039,7.34427 -11.30094,3.54161 9.88491,-7.0755 5.76224,9.3246 14.18218,4.2486 z m 51.16601,-12.65773 c 5.31635,-8.42558 -8.80774,-2.9699 -10.77547,-10.33348 -22.39432,-14.99627 -0.16253,22.28535 10.77547,10.33348 z M -352.5,867.84981 c 6.08258,-4.19602 14.16592,-13.90326 0.80097,-8.55351 -7.42028,0.95009 -8.40187,20.22603 -0.80097,8.55351 z m -32.1598,-8.77749 c 18.41334,-8.47297 -25.26399,1.33495 -4.19332,0.79319 l 2.13062,-0.42355 z m 23.14201,-10.65261 c 9.17649,1.53959 20.31472,-13.67294 4.8933,-5.70524 -12.87922,0.33908 -25.58196,-10.51286 -39.914,-6.80607 -4.39712,9.39555 17.69979,7.47194 21.22152,14.64646 4.6607,-0.14622 9.19819,-1.46152 13.79918,-2.13515 z M -266.25,835.48718 c -4.00996,-7.28693 -3.86573,7.15441 0,0 z m -15,-0.68879 c -5.44909,-6.30185 -14.64441,-4.57377 -3.08938,0.49745 0.59262,1.36656 3.31707,1.12692 3.08938,-0.49745 z m 17.93668,-10.52117 c -2.10793,-10.251 -6.91558,7.15481 0,0 z m -15.69087,-12.12074 c -3.08452,-7.60133 -20.65386,3.39027 -5.41002,2.2092 1.77131,0.14103 4.94183,0.20729 5.41002,-2.2092 z M -295,811.24592 c -6.5795,-7.59421 -5.93456,4.44959 0,0 z m -57.1875,-3.1238 c 6.31006,-10.36787 -38.12797,-9.8053 -19.05515,0.11984 6.10523,1.3691 13.1704,2.63118 19.05515,-0.11984 z m 79.375,-11.08535 c 4.65306,-9.61945 -6.97029,3.75014 -10.67549,-4.13101 -6.00573,6.29571 7.61023,7.87445 10.67549,4.13101 z m -25.9375,-5.84035 c -7.32864,-7.608 -10.5503,4.94005 0,0 z m 12.57183,-3.96844 c 3.14853,-11.72086 -15.82264,5.99774 -1.86828,1.91153 l 1.86828,-1.91153 z M -342.5,779.38297 c -1.32225,-2.89484 -9.5306,0.079 -3.19877,0.47921 z m 70.625,-4.52079 c -6.52448,-4.91968 -4.43801,5.02127 0,0 z m -54.80635,-4.42891 c 0.99227,-6.95558 -29.88814,2.22031 -10.71224,1.88315 3.359,-0.40096 8.29948,1.12136 10.71224,-1.88315 z M -367.5,767.98718 c -4.68557,-6.87646 -2.36596,6.12246 0,0 z m 8.81676,-7.00344 c -0.74612,-5.33929 -3.84575,-10.15898 -12.05422,-7.88587 2.91346,5.59587 -19.55998,-1.1102 -5.15831,6.21843 1.93558,1.91218 26.47195,8.01094 17.21253,1.66744 z m 54.2903,-1.38081 c 13.76606,-3.71046 -9.69774,-15.40555 -8.56948,-0.49534 0.8135,4.24281 6.10029,0.44924 8.56948,0.49534 z m -19.31309,-4.16872 c 0.56604,-12.89309 -10.87498,6.89313 0,0 z m -20.04397,0.18671 c -5.32254,-4.5329 -3.02229,2.26483 0,0 z m 10,-3.25874 c -2.9936,-4.99395 -1.99353,4.64868 0,0 z m -40.01914,-2.1875 c -2.72939,-10.2172 -7.33892,4.41264 0,0 z m 20.01914,0.29554 c -2.09371,-5.49132 -1.32878,-17.04873 -5.50012,-5.37169 0.15556,1.08233 4.00755,7.83575 5.50012,5.37169 z m 68.75,-3.06407 c -1.57125,-9.64769 -21.0745,-1.62552 -5.67269,1.23432 1.79005,0.65975 6.02257,2.43136 5.67269,-1.23432 z m 14.375,1.20603 c -2.34006,-4.63039 -4.78661,4.22309 0,0 z m -74.9486,-8.83316 c -0.008,-7.54402 -8.07845,4.62301 0,0 z m -18.1764,-1.71807 c -2.86353,-7.64068 -15.02392,3.35973 -1.64515,1.55914 l 1.2333,-0.50747 z m 67.8125,-4.5145 c 14.95306,-6.27728 -15.59794,-2.3314 -3.58603,0.93702 l 1.56139,-0.38606 z m -33.84439,-3.8973 c 16.99488,-10.1374 -29.19597,-3.26744 -11.50877,1.43479 3.87215,0.0338 7.77554,-0.3817 11.50877,-1.43479 z m 6.03189,-10.368 c -9.6794,-13.90036 -3.97548,6.86881 0,0 z m -23.75,-3.22123 c -2.59133,-11.06077 -21.02788,-1.26255 -4.79403,0.29787 1.19285,-0.14052 4.89387,2.13801 4.79403,-0.29787 z m 17.99093,-10.98081 c 1.53201,-12.76948 -16.15675,1.25278 -1.17082,0.81371 z M -345,703.61218 c -3.36565,-5.03748 -2.94582,4.86674 0,0 z m 47.42175,-21.27489 c 14.1575,-14.37237 -23.63148,12.15565 0,0 z m 6.082,-20.08325 c 14.55212,-11.41703 -10.09427,-4.92938 -6.25,3.85814 2.29085,-0.92543 4.24663,-2.45491 6.25,-3.85814 z M -327.5,662.94795 c -6.62416,-10.58656 -5.84231,7.48075 0,0 z m 31.12051,-7.50427 c 12.74146,-12.79118 -14.52754,-6.99756 -5.71117,4.47663 2.54641,-0.30747 3.91698,-3.07609 5.71117,-4.47663 z m -40.89134,-15.85233 c -4.98783,-1.58312 3.25688,5.48788 0,0 z m 81.29632,190.04632 c -6.21676,-10.371 15.70329,-9.70449 2.39543,-0.82613 l -1.00422,1.55737 -1.39118,-0.73124 z M -370,779.31095 c 2.85772,-6.56779 2.73948,4.55844 0,0 z m -15.57162,-10.6124 c 1.12121,-6.7801 5.67946,4.48975 0,0 z m 123.0839,-0.69658 c -1.03915,-7.25434 25.18016,-3.19461 7.10512,1.45093 -2.35199,0.57416 -5.38329,0.59963 -7.10512,-1.45093 z m 0.79242,-42.51367 c -4.97878,-5.78434 11.9251,-5.45692 14.98123,-8.08595 1.43808,5.77208 -10.61199,12.07311 -14.98123,8.08595 z M -273.75,697.36218 c 2.45701,-4.46219 5.17945,4.76742 0,0 z"
         id="path4960"
         inkscape:connector-curvature="0"
         sodipodi:nodetypes="ccccccccccccccccccccccccccccccccccccccccccccccccccccccccccccccccccccccccccccccccccccccccccccccccccccccccccccccccccccccccccccccccccccccccccccccccccccccccccccccccccccccccccccccccccccccccccccccccccccccccccccccccccccccc" />
      <path
         style="fill:#024900;fill-opacity:1"
         d="m -336.58762,1016.9355 c 0,0 1.85674,-62.5435 -0.50009,-79.34519 -15.10119,0.25545 -32.75268,-3.95658 -48.05667,-7.25869 -5.28672,-1.35784 -21.12619,-2.69731 -7.24916,-6.17362 10.22585,-1.80793 36.61756,1.07543 36.66437,-9.29582 -5.34495,-4.24307 16.11729,-2.28667 4.94853,-9.36204 -6.0688,-0.5736 -10.76037,-1.57198 -16.51481,-2.49655 3.66866,8.28141 4.87336,14.99266 -6.45455,14.98359 -11.95521,4.59106 15.53667,-12.10859 0.41993,-12.47823 -8.4922,7.72544 -12.43382,-3.22694 -19.98568,-6.10259 2.52772,-5.23687 34.19192,-0.069 18.84302,-10.35647 -7.93188,-9.1677 -14.03531,-10.06442 -22.85501,-1.36994 -18.98313,3.49018 10.21141,-9.80113 -4.41367,-13.27815 -1.52796,-4.11318 11.85535,-6.30647 12.31524,-13.06551 6.903,0.36051 18.05818,-8.01964 4.05839,-6.47411 -11.66956,-2.55029 -10.25447,15.21043 -20.51926,4.68596 7.53108,-2.00211 17.44,-10.05824 3.8084,-12.25243 -13.2941,-8.03834 -9.52274,-25.25618 6.76614,-15.71513 17.32594,1.04999 -20.01896,-17.22631 1.75237,-13.88525 7.58448,1.01713 13.11893,-3.28125 17.01303,2.4176 12.20789,2.43413 -4.9903,-10.76734 -7.90495,-12.12575 1.43684,-11.5012 -12.42172,-9.99469 -12.31304,-18.1038 -11.13163,5.78361 -14.58956,-15.40768 -1.24897,-4.29187 14.42771,8.91579 33.61366,9.19632 43.65624,-5.72933 1.52814,-4.58515 2.97248,-13.96297 -7.57726,-9.31886 -11.37672,-5.41651 -0.0811,-6.63054 6.42375,-7.10252 -1.30055,-12.08947 -16.16444,-13.90867 -24.37836,-18.32157 -8.72893,-0.28628 -14.82231,-15.82803 -0.053,-9.30009 11.94461,0.59017 17.87725,14.64961 27.01478,15.32233 3.09517,-5.10856 -4.07272,-12.65422 5.13862,-8.56879 13.61817,-7.92009 -9.20789,-5.93247 -11.59687,-3.9255 -3.41639,5.54983 -3.9754,-9.27298 -12.09084,-4.51137 -8.45015,0.0191 -27.22225,-14.05096 -8.31755,-10.02362 7.15244,4.75333 22.92934,3.14387 10.13395,-2.51209 12.78071,-6.68395 -22.60897,-15.2603 -4.1544,-16.20422 12.49064,-1.9635 9.24479,17.44528 20.32672,11.40855 18.28099,5.64072 -6.43427,-12.93198 -3.71996,-19.18123 3.98992,-9.9249 14.60529,0.84926 19.1676,5.00487 7.37941,14.05951 15.86151,-10.92415 2.96118,-5.35419 -9.01813,-4.52299 -11.02594,-17.24862 -1.17057,-17.18168 -3.66323,-6.07581 4.70286,-12.29897 -6.59109,-13.98002 -5.68974,-0.28708 -19.41764,-12.03294 -8.02001,-11.23281 5.53396,12.42474 18.85141,2.10226 9.07748,-4.02188 -6.37701,-6.2245 -3.90383,-22.465 4.11512,-8.48753 8.61343,-0.58381 -8.43891,-23.11017 -3.60561,-27.94993 5.10464,2.2671 14.50657,14.30779 14.33029,1.23799 -5.57939,-7.1561 -4.91858,-10.66259 2.61227,-12.18275 -2.02066,-9.59452 2.95394,-17.90064 2.58249,-28.72728 15.32508,-1.85504 -3.55933,9.37691 8.90818,12.45801 8.0281,5.17446 11.88107,25.69192 2.26886,27.70015 -5.05493,4.75246 11.18781,-0.10677 13.69702,-5.04397 1.89979,7.31068 -1.26606,21.01796 4.25249,28.97893 -4.44269,12.95027 16.88664,-3.73249 7.62252,9.87164 1.59116,5.91549 8.38582,7.49801 4.58053,14.64372 8.04414,2.71132 2.58894,15.98193 2.91942,20.88071 3.16545,3.91604 -14.61417,4.92214 -4.14114,12.1191 6.81757,5.70423 -11.13851,3.67054 -8.60009,13.38568 -6.87832,3.86483 3.42796,10.11319 -8.50162,9.32576 -1.66823,6.58737 13.37278,9.31059 -1.62975,10.969 -8.20051,9.30933 15.35792,5.52089 11.16067,-4.60568 6.22023,-7.87611 16.82155,3.41348 4.75126,4.89012 -14.17474,16.88038 32.18245,3.42709 11.90067,15.79102 -9.73897,10.37234 13.04826,-6.27044 8.11016,5.12014 5.86022,8.17153 -7.63962,11.18191 -4.04901,22.37996 8.24735,-1.56585 16.62841,2.68962 3.67181,6.89842 -12.75052,8.69929 23.95296,-0.1358 12.29924,13.66408 -3.2731,6.88656 -7.12281,10.35523 0.97374,14.08946 -9.38442,0.81209 -4.67461,17.2586 -15.54899,13.16538 -0.67901,8.8914 12.24935,22.44553 20.85305,22.92565 17.14198,-1.04223 -13.32879,7.30659 3.43943,9.93397 -1.43623,7.68937 -13.28829,10.4178 -9.2013,19.57061 -2.50294,9.75481 14.8735,-0.62371 10.0555,10.59615 -6.37207,9.65429 -24.30113,-7.85088 -20.13706,10.79703 1.5693,6.01069 -2.29115,14.66911 8.4733,9.02955 5.88752,4.41552 -1.13358,10.03247 4.72282,13.35594 -8.28572,9.05081 -14.34788,23.47926 -27.8208,24.72371 -10.29286,0.18875 -23.05325,-11.98145 -27.62126,2.19833 -8.42865,0.19301 -11.60664,2.57245 -11.51205,8.55175 -0.36744,9.23471 -1.74958,63.95339 -1.74958,63.95339 z m 49.61038,-104.08206 c 6.25373,-7.16576 -18.84884,-8.83931 -8.56891,0.65589 2.86316,0.23018 5.78603,0.10312 8.56891,-0.65589 z m -15.59744,-5.75937 c 5.09909,-8.02538 -18.00584,-14.55867 -6.79239,-2.54532 1.0159,4.67746 3.35105,9.48597 6.79239,2.54532 z m 29.82405,-1.00582 c 9.98459,-8.72911 -11.75888,0.93485 -15.35568,-5.84721 0.17039,5.32866 10.96639,11.18803 15.35568,5.84721 z m -67.56187,-9.51393 c 8.05701,-5.78166 3.17184,-19.43016 -4.15089,-9.58947 -3.15365,-9.04862 -29.96592,4.89391 -13.71201,6.74569 9.32153,-7.40277 9.38631,6.7059 17.8629,2.84378 z m 51.5625,-5.46214 c -2.45702,-4.46219 -5.17944,4.76742 0,0 z m -0.37874,-7.02259 c 6.09356,-8.88547 -13.81356,-10.10762 -19.54854,-15.02795 -12.3523,-1.3358 15.33721,27.58371 19.54854,15.02795 z m 13.50374,0.77259 c -6.52448,-4.91968 -4.43801,5.02127 0,0 z m -113.6986,-6.33316 c -0.76212,-6.80118 -8.65262,4.2611 0,0 z m 10.33923,-7.33872 c -0.97411,-4.35511 -5.94614,5.19872 -0.86817,1.31934 z m 26.38958,-1.70381 c 4.83299,-4.34493 16.92399,-14.70692 3.21979,-12.12431 -8.15532,-0.73162 -14.61216,21.72887 -3.21979,12.12431 z m 55.71979,-0.87431 c -5.4279,-4.62485 -0.64205,4.22921 0,0 z m 8.125,-1.80123 c -3.15311,-4.89496 -3.44257,2.62766 0,0 z m -80.28646,-7.18315 c -4.79307,-6.78978 -3.40272,5.51316 0,0 z m 6.36363,-10.23335 c 7.17159,-2.69046 12.63688,5.87329 15.37624,-5.97523 6.53995,-11.29449 -16.85591,3.9582 -15.00691,-3.97061 -11.88112,0.33732 -29.87572,-12.77909 -38.20356,-0.64561 12.55872,5.53835 23.50779,15.99295 37.83423,10.59145 z m 97.25304,-12.7413 c -1.78444,-12.93318 -9.59758,7.5763 0,0 z M -280,834.77217 c -2.79525,-8.22501 -24.79403,-6.11446 -19.0625,-0.562 6.05002,-6.16352 15.25955,6.07239 19.0625,0.562 z m -73.75,0.09 c -4.60274,-5.03044 -4.79552,4.88991 0,0 z m 19.38194,-3.75766 c 6.11377,-9.44698 -15.20363,5.62856 -2.06402,1.59644 z m 55.5564,-16.79304 c 11.81524,-3.98476 -11.30868,-6.41244 -14.92138,-4.14861 -27.27677,-5.22248 12.72777,10.33176 14.92138,4.14861 z m -73.22,-5.79939 c 7.72854,-9.57656 -29.31157,-13.79994 -23.72642,-1.54509 7.13817,2.74621 16.71969,6.35037 23.72642,1.54509 z m 91.41212,-2.40874 c -3.86525,-8.30994 -6.54564,4.87639 0,0 z M -310,801.73718 c -4.00998,-7.28694 -3.8657,7.15442 0,0 z m 37.52031,-4.14009 c 5.7738,-5.56582 -2.1381,-10.35101 -4.55828,-2.83032 -17.64119,-9.02219 -6.45542,12.73926 4.55828,2.83032 z m -25.93977,-4.73212 c 0.66929,-9.76798 -18.20806,0.22721 -2.11356,0.60405 z m 12.57301,-4.23434 c 6.70665,-14.53445 -11.19804,-4.68543 -7.59105,1.6412 2.57042,0.61578 5.47318,-0.10005 7.59105,-1.6412 z m -55.33752,-3.14345 c -3.29763,-4.80701 -5.46989,6.26121 0,0 z m 10.61037,-0.70816 c -0.008,-7.54402 -8.07845,4.62301 0,0 z m -10.69554,-6.896 c -14.8284,-6.59816 -4.25927,11.18565 0,0 z m 30.01914,0.17793 c -3.15311,-4.89496 -3.44257,2.62766 0,0 z M -270,775.5865 c -13.32813,-10.63448 -8.6994,6.97554 0,0 z m -56.91081,-3.66856 c 7.16046,-12.23238 -36.20696,-0.0379 -11.82003,1.4412 3.91447,0.17652 8.25891,0.56169 11.82003,-1.4412 z m 20.03581,-10.80576 c 14.99928,1.59495 5.03287,-14.947 -2.95042,-10.00378 -3.94433,3.57324 -5.67699,15.15835 2.95042,10.00378 z m -17.125,-4 c 7.333,-22.7981 -15.66667,5.62237 0,0 z m -18.87924,-1.73728 c -12.93822,-11.49265 -8.88825,4.84932 0,0 z M -332.5,752.43595 c -4.13581,-7.51638 -7.02825,4.83727 0,0 z m 48.5,-4.07377 c -0.39279,-12.94296 -27.50829,-4.3102 -8.14724,1.10688 2.22185,0.71292 7.38987,2.80148 8.14724,-1.10688 z m -40.00864,-11.05036 c 2.85566,-5.06532 -12.40707,-5.32129 -1.30259,-9.54057 6.18479,-7.65929 -0.92894,-25.39857 -6.4544,-12.26654 16.05167,11.19025 -29.01536,7.38717 -10.31601,16.10687 7.20391,-2.07774 13.80152,11.03345 18.073,5.70024 z m -4.11636,-23.69964 c 2.3401,-4.63038 4.78658,4.22309 0,0 z m -15.625,7.36626 c -5.86165,-4.77168 -5.71372,6.90493 0,0 z m 10,-2.36626 c -3.36565,-5.03748 -2.94582,4.86674 0,0 z m 28.87667,-14.12334 c -6.51817,-1.70945 4.94403,12.36443 0,0 z m -39.50167,-0.87666 c -6.06372,-9.16892 -5.45923,8.93067 0,0 z m 34.44103,-6.875 c -3.29763,-4.80701 -5.46989,6.26121 0,0 z M -322.5,695.07052 c -2.9521,-7.2009 -5.03238,4.25864 0,0 z m 25.84135,-11.88235 c 14.40205,-12.65632 -22.23607,0.0291 -5.78019,3.93108 2.28797,-0.72383 4.03341,-2.3909 5.78019,-3.93108 z m -13.07052,-6.05515 c -6.67098,-2.57088 2.25086,8.34424 0,0 z M -307.5,664.78841 c 3.62638,-2.50555 18.90105,-13.68614 8.36074,-1.51039 -1.29408,10.70978 24.69805,-10.70195 6.73971,-10.40803 0.80494,-14.16125 -15.05703,-1.14094 -13.15883,6.44549 -8.96456,0.15583 -5.62918,15.08085 -1.94162,5.47293 z m -19.375,-1.80123 c -5.54951,-9.57908 -11.48673,4.92341 -0.57659,1.96345 z m 9.81167,-7.54003 c -6.2505,-6.71006 -0.79208,9.00131 0,0 z m -0.52607,-12.56769 c -7.83398,-6.17694 1.11476,19.80671 0.83902,2.35217 z m -8.86725,-4.36519 c 8.62722,-9.64309 -6.38928,-9.99262 -4.39183,-2.34183 1.11252,3.7941 1.48692,9.55325 4.39183,2.34183 z m 9.36179,-0.40488 c -0.67693,-9.06771 -5.52567,6.14846 0,0 z m 71.4644,279.24396 c 3.03493,-7.76329 10.561,5.35897 0,0 z m -9.46918,-92.99612 c 9.18625,-6.4924 0.21582,6.35149 0,0 z M -363.75,779.86218 c 3.36565,-5.03748 2.94582,4.86674 0,0 z m -13.4029,-9.0625 c -0.52369,-8.11648 -24.33217,-11.48626 -7.23195,-14.91358 9.48338,4.18779 17.48,7.14034 13.43393,16.43731 -2.13014,0.16077 -4.50858,-0.067 -6.20198,-1.52373 z m 3.4029,-5.9375 c -3.36565,-5.03748 -2.94582,4.86674 0,0 z m 114.6875,4.05265 c -8.58811,-5.62855 16.5782,-0.877 0,0 z m -2.1875,-44.67765 c 0.57674,-2.70716 10.94278,-2.73683 13.3765,-6.4503 0.51831,4.21993 -10.16228,11.04541 -13.3765,6.4503 z m -14.33422,-1.80901 c 0.23559,-10.74574 9.27878,2.96529 0,0 z m 8.08422,-6.31599 c 4.60274,-5.03044 4.79552,4.88991 0,0 z m -85.88781,-37.5 c -9.43782,-2.3079 -8.83636,-17.3228 1.85112,-9.61952 -2.29127,6.63647 13.7022,15.42619 -1.33989,10.77811 z m 45.26281,-88.75 c 3.83306,-4.01898 0.39498,4.30718 0,0 z"
         id="path4958"
         inkscape:connector-curvature="0"
         sodipodi:nodetypes="cccccccccccccccccccccccccccccccccccccccccccccccccccccccccccccccccccccccccccccccccccccccccccccccccccccccccccccccccccccccccccccccccccccccccccccccccccccccccccccccccccccccccccccccccccccccccccccccccccccccccccccccccccccccccccccccccccccccccccccccccc" />
      <path
         style="fill:#024900;fill-opacity:1"
         d="m -366.37657,934.42109 c -9.07998,-2.81413 -26.02359,-5.80364 -29.97386,-8.24883 14.38324,-4.74817 32.4452,3.09009 44.39174,-10.44933 12.48697,-8.64153 -1.16902,-13.90702 -9.10068,-12.56324 -9.1069,-3.23512 -21.1298,9.67575 -29.10132,-3.63948 -4.8699,-4.93697 15.70208,0.49235 19.05977,-3.26101 10.20327,-8.47093 -13.60325,-9.98908 -14.82213,-19.89048 -6.53464,0.12456 -22.84634,-3.32586 -6.88945,-6.66943 12.61134,-2.75111 -5.886,-7.68399 8.48236,-9.26806 12.04096,-0.0378 9.24035,-9.89025 -1.83611,-6.48883 -8.41286,0.43819 -29.6457,-16.45667 -19.90499,-22.8111 13.69062,-1.70929 -1.99218,10.86197 11.21898,12.21577 10.17168,6.49966 26.46682,12.71689 35.39422,7.13677 4.74995,3.99108 19.21807,-3.15501 17.79137,-8.12168 -7.06791,6.88099 3.20827,-9.05478 -7.75976,-4.46085 -7.41336,6.04764 -12.62101,0.349 -3.07357,-2.45338 -4.30878,-7.21107 -12.96325,8.97194 -19.71211,0.81212 -12.0128,0.85294 -22.1742,-10.70266 -26.77071,-17.65617 6.98868,-4.47506 29.3923,8.59677 27.26768,-1.24166 -8.77247,-7.74907 -16.62633,-18.33955 -21.74469,-26.45747 13.62354,2.53124 30.2664,3.549 39.53277,-9.41642 12.90045,-3.73603 2.65931,12.69648 15.46839,5.32624 7.98432,2.27338 13.14683,-6.36354 3.23187,-6.81508 -5.21859,13.29119 -8.41316,-11.65452 4.05039,-6.37027 16.32959,-4.07384 -1.61457,-12.90893 -9.58912,-6.73065 -9.08244,-4.39288 -9.89263,9.67781 -17.61158,-0.31418 10.76086,-11.18678 -12.49618,-17.9105 -17.88861,-22.34378 -8.12954,1.40605 -19.23509,-13.11857 -3.56108,-7.14762 13.51159,4.12914 21.74645,15.90246 34.81803,20.71577 11.39698,-4.8142 -15.52012,-7.87392 -1.45725,-13.67669 12.29306,-8.76264 -3.12284,-8.86777 -9.195,-7.62914 -3.46358,-7.06312 -20.45371,-1.16592 -27.29456,-8.4466 -11.33301,-5.93402 10.22231,-2.18957 14.36403,0.41957 11.72758,-1.60129 -0.89127,-6.46263 1.63869,-12.61599 -5.46865,-3.91121 -18.54682,-12.60429 -3.55295,-7.68326 9.52184,4.44145 9.64327,13.71176 20.83023,16.51043 2.3802,9.98145 13.14157,6.08539 15.56229,13.32217 5.38415,-0.0268 11.98785,6.12921 12.1251,-4.27262 -8.28455,-5.21837 8.17292,-22.97285 -6.26177,-26.92399 -0.44663,-6.77498 12.84202,-17.90746 -1.44855,-12.93163 -7.80007,6.66335 -19.89875,-12.00195 -5.62701,-10.93375 0.93486,-9.42659 1.67106,-15.34127 -8.40298,-18.88841 7.51454,-7.07329 21.639,15.96722 17.32998,-3.75064 -6.75934,-2.65826 -14.96077,3.61645 -11.31813,-9.36131 -6.22708,-4.45791 -10.26387,-21.34267 -0.29737,-7.518 9.02668,6.67759 0.12727,-17.45377 7.26116,-2.75385 2.01996,5.44921 13.20538,3.94334 9.69983,14.3877 6.90225,13.68433 4.8599,-17.97712 4.54441,-21.25186 -7.64294,2.22844 -7.88085,-8.17252 -15.69886,-6.27811 -10.95988,-0.55156 -9.19498,-20.30774 -2.01117,-5.80781 12.22722,5.71601 6.22575,-12.12821 4.13899,-15.43156 10.44072,0.28612 4.38902,-15.7099 13.00217,-17.36848 -15.06764,1.03397 4.79494,-9.93912 5.19754,2.67464 3.67542,5.6978 7.72152,9.65214 0.97038,14.16954 6.91649,1.60245 3.43019,9.9185 -1.29187,6.85833 -3.35557,7.39157 4.44388,15.39524 6.1895,5.47571 13.35636,-18.53738 10.9017,13.39187 -0.23806,15.50903 5.32587,-2.40103 18.34667,0.75483 10.01748,10.62402 -8.76676,4.67252 -13.1506,15.16225 -16.25652,23.14645 5.27393,4.69653 10.27584,-9.51585 14.33934,0.70235 7.60086,-1.82398 22.75444,-22.72361 15.1921,-4.42307 12.40751,5.74081 1.63752,21.72294 -2.71598,28.7752 5.81352,8.54087 -7.30219,16.03119 -12.87286,19.54055 6.47933,0.73365 -7.88274,11.43342 1.05192,14.96825 -21.67945,5.67334 11.91879,37.66734 14.36742,19.37489 -8.95368,-8.94364 9.25288,-4.33095 13.64305,-4.31724 -6.33418,4.45308 -18.33053,12.82687 -2.20389,9.91891 12.44279,-4.25853 -0.44034,10.942 2.06756,17.57063 -3.01048,7.9258 -17.21876,-11.60569 -19.02197,0.45861 9.11045,5.11061 16.6532,10.74533 27.07985,4.76235 4.08479,3.16197 -17.48172,9.60165 -2.57897,11.82349 11.83143,-1.38654 11.24342,2.78731 8.85379,11.23024 -0.46744,7.74816 -17.65296,2.49064 -7.43929,10.57316 6.76588,-3.87273 15.37016,1.72594 3.46553,1.63278 0.89911,9.68918 -4.29187,8.63446 -9.9567,12.02769 4.08516,6.88091 -0.24592,9.67922 -2.53202,14.2045 5.09879,9.65516 10.87273,-8.72608 15.65292,4.1569 0.90131,7.89962 10.74775,13.23495 11.04695,17.60982 -3.77809,5.49674 -23.64189,8.05527 -7.91444,11.38161 -0.26166,2.23865 -5.18245,3.63518 0.46473,8.76669 2.03326,3.51066 17.97656,2.45842 5.66546,7.88496 -9.38074,2.62917 -29.86718,-8.0024 -34.21429,0.29786 11.92222,1.1088 -8.41439,10.81388 5.83112,7.47461 8.77421,-12.48318 16.68352,2.82171 11.7336,12.23448 6.03031,-0.0135 17.3175,-0.35588 8.48411,7.01356 10.75978,10.11633 -9.63931,13.13416 -9.75638,23.04729 -10.89144,17.44129 -33.13586,-11.57436 -39.53101,7.53767 -33.47882,-7.73805 -14.63419,1.86035 -62.08918,-9.1903 z m 28.39622,-2.29296 c -0.60002,-7.16949 -10.59458,7.83049 0,0 z M -322.5,930.56095 c -3.15311,-4.89496 -3.44257,2.62766 0,0 z m 0,-11.32377 c -3.16289,-6.50909 -2.54726,6.27485 0,0 z m 37.60966,-6.31778 c 2.12725,-10.58951 -23.06364,-7.2686 -10.29869,1.03063 3.4303,0.26709 7.06045,0.34948 10.29869,-1.03063 z m -17.02725,-5.47486 c 4.78736,-9.06501 -18.74278,-16.94545 -8.02392,-2.11626 1.05879,3.94514 5.93499,8.8193 8.02392,2.11626 z m 29.47967,-0.73946 c 10.81386,-9.94904 -10.99192,-0.29697 -15.34671,-6.40284 -6.41333,3.7455 13.07822,11.74467 15.34671,6.40284 z m -67.01845,-9.31196 c 8.41906,-6.53415 3.98621,-20.40645 -5.941,-14.21127 -7.75216,-2.09137 -28.47938,7.9481 -12.99561,11.19467 8.76626,-6.27686 10.71772,8.14713 18.93661,3.0166 z m 51.95637,-5.5222 c -5.09235,-8.93988 -8.71675,7.37096 0,0 z m -0.92895,-7.13748 c 8.15836,-8.83545 -12.62914,-8.7478 -6.39702,-16.16285 -7.92702,-7.59462 -3.71457,8.73005 -12.82977,-0.62541 -15.51146,-1.3823 13.66687,30.63764 19.22679,16.78826 z m -85.99943,-4.78489 c -0.90465,-8.53684 -3.75603,5.3323 0,0 z M -257.5,878.61218 c -5.32651,-7.73765 -15.91766,-1.8165 -3.05808,1.19785 0.67746,-0.0579 2.9692,0.18027 3.05808,-1.19785 z m -96.49652,-1.07119 c -1.58703,-9.38149 24.48098,-20.98655 5.14086,-21.65291 -11.85141,1.11438 -15.0309,21.74787 -5.14086,21.65291 z m -24.70951,-4.60678 c 1.25163,-11.68864 -9.62229,6.6193 0,0 z M -340,869.86218 c -3.36565,-5.03748 -2.94582,4.86674 0,0 z m 14.76563,-2.42188 c -0.97411,-4.35511 -5.94614,5.19872 -0.86817,1.31934 z m 36.8902,0.34939 c -1.82524,-11.04115 -7.9317,3.48121 0,0 z M -323.75,861.73718 c -3.16289,-6.50909 -2.54726,6.27485 0,0 z m -44.375,-2.60416 c -8.84656,-10.65939 -4.61089,9.73696 0,0 z m 110.625,0.10416 c -6.31248,-7.55769 -6.25213,7.34157 0,0 z m -69.06192,-9.0625 c -5.27816,-6.73466 -6.52651,7.25271 0,0 z m -1.62906,-12.91926 c -6.13696,-2.80129 0.0587,6.33435 0,0 z M -278.75,835.4688 c -1.74198,-11.63876 -31.25816,-5.98509 -20.4656,0.12192 7.25476,-8.34113 14.70137,6.29869 20.4656,-0.12192 z m -55.09591,-3.84273 c 10.41892,-4.17727 -13.0033,-15.71365 -3.71011,-4.14258 -9.76544,3.70522 -4.76602,11.94757 3.71011,4.14258 z m -35.24263,-0.0191 c -4.07218,-1.37749 -3.36141,2.32136 0,0 z m 46.94015,-3.76306 c -4.17518,-14.11669 -10.84168,1.39178 0,0 z m -24.72661,-1.7317 c -3.21294,-4.2505 -13.05247,3.79599 -1.7173,0.87718 z m 74.87032,-1.9878 c -0.0358,-11.26556 -8.48477,7.47488 0,0 z m -89.58386,-1.26741 c -4.07202,-1.37751 -3.36159,2.32136 0,0 z m 75.33854,-2.29602 c -3.15311,-4.89496 -3.44257,2.62766 0,0 z m 5,-1.25 c 2.14823,-5.14074 16.43706,-4.24243 4.33745,-10.34104 -10.38385,0.52086 -30.76507,-7.06414 -30.59287,10.26351 3.96745,-10.6915 13.76339,-3.30437 22.24449,-2.38839 0.90372,0.86297 3.15579,7.43058 4.01093,2.46592 z m -65.72944,-3.61647 c -1.93816,-8.15885 -15.66361,6.29025 -2.38579,2.9335 1.77383,2.7509 3.36458,-1.6355 2.38579,-2.9335 z m 24.47944,1.00347 c -6.91063,-10.73313 -4.99919,7.37781 0,0 z m -27.91112,-8.2867 c 4.76773,-7.61024 -14.90072,-12.57436 -21.45086,-8.66033 -22.72254,5.47713 17.21339,17.95251 21.45086,8.66033 z M -275,804.86218 c -3.36565,-5.03748 -2.94582,4.86674 0,0 z m -34.16979,-1.95903 c -1.98789,-13.41792 -8.20377,7.95155 0,0 z M -270,802.36218 c -2.99362,-4.99395 -1.99351,4.64869 0,0 z m -3.31334,-2.4284 c 10.38953,-3.60153 -0.96317,-18.21025 -4.13402,-6.72725 -16.22503,-7.42423 -7.06211,15.26324 4.13402,6.72725 z m -69.42103,-4.99348 c -0.97411,-4.35511 -5.94614,5.19872 -0.86817,1.31934 z m -7.24205,-2.53406 c -3.39007,-6.98166 -18.19943,3.39949 -4.95067,2.1875 0.89074,-0.26489 7.73144,1.4038 4.95067,-2.1875 z m 51.80528,0.4485 c 5.05171,-6.2967 -22.86705,-11.03011 -10.76647,-2.13814 1.8521,2.74397 8.43839,5.84543 10.76647,2.13814 z m 13.12716,-4.16039 c 9.22617,-16.59786 -14.61359,-5.64606 -9.71549,1.87178 3.06267,0.72441 7.85682,1.37296 9.71549,-1.87178 z m -37.83978,-8.49588 c -2.07425,1.43822 1.06978,7.27455 -2e-5,0 z m 12.00645,-1.12564 c -0.87572,-13.21374 -8.65285,2.21587 0,0 z m 26.29427,-18.67704 c -6.00175,-6.4309 -2.85051,11.68121 0,0 z m -20.87234,1.34909 c 19.7945,-2.11852 -7.96211,-23.64463 -9.27813,-4.18647 -0.0625,5.4629 5.17904,7.69037 9.27813,4.18647 z m -17.75891,-3.84699 c 4.77174,-7.45525 0.72282,-14.01472 -6.09069,-8.21427 -10.2019,-3.87388 -10.4686,7.61272 -0.83391,5.08011 -0.50701,4.8441 3.63306,6.91103 6.9246,3.13416 z M -311.25,745.4134 c -3.98434,-6.31945 -3.44522,8.73646 0,0 z m 0,-22.42622 c -3.16289,-6.50909 -2.54726,6.27485 0,0 z m 8.75,-13.9247 c 10.55048,-9.55065 -12.35089,-9.37925 -5.01707,1.1122 0.0542,3.50772 6.41448,2.5965 5.01707,-1.1122 z m -6.25,-12.89011 c -7.04323,-10.57783 10.37481,1.47704 9.8236,-9.89412 8.41387,-3.49994 9.38889,-15.74286 -1.4003,-7.87703 -4.8967,4.01865 -17.47778,-9.49598 -10.89617,3.65436 4.78723,3.7164 -10.84038,23.05613 1.81505,15.97861 z m -21.875,-8.81019 c -2.3401,-4.63038 -4.78658,4.22309 0,0 z m 46.875,-11.13298 c -5.30303,-7.17531 -6.00435,8.24525 0,0 z m -20.625,-2.61702 c -2.3401,-4.63038 -4.78658,4.22309 0,0 z m -3.68269,-45.10892 c -1.00134,-10.00546 -10.62578,5.71883 0,0 z M -318.75,603.61218 c -3.36565,-5.03748 -2.94582,4.86674 0,0 z m -58.125,313.75 c 3.83306,-4.01898 0.39498,4.30718 0,0 z m 133.75,0 c 0.3299,-4.58416 3.75203,4.21099 0,0 z m -126.28384,-2.55475 c 0.70827,-10.96918 8.24954,5.37417 0,0 z m -31.80166,-27.13275 c 1.41141,-10.61303 17.68188,-6.03384 4.41675,-2.26172 -0.83511,0.7123 -3.39753,5.31384 -4.41675,2.26172 z m 1.7231,-26.49106 c -12.31898,-4.63628 9.57099,-1.72627 0,0 z M -245,846.11218 c 9.073,-3.97698 -3.03751,4.53398 0,0 z m -160.42963,-59.00791 c -1.66652,-8.73084 15.60721,4.31501 1.91835,2.56245 l -1.17877,-0.87544 -0.73958,-1.68701 z M -376,770.86218 c -3.9573,-10.24688 10.48442,4.80633 0,0 z m -8.6875,-8.29936 c -16.12927,-7.4625 17.12478,-5.37023 5.71429,2.14896 -1.90493,-0.71588 -3.80958,-1.43249 -5.71429,-2.14896 z m 86.66681,-23.50455 c -1.56144,-7.65353 9.70594,5.02284 0.86033,1.28438 z m 7.4332,-2.88539 c -0.75868,-8.99285 9.97436,0.0923 0,0 z m 2.29053,-9.43831 c 7.93921,-11.46612 10.01558,7.06377 0,0 z m -54.50811,-3.3798 c -0.66042,-6.64359 -8.88181,-20.95925 2.95089,-21.02662 11.48887,4.94283 8.79279,10.78547 1.42647,17.11608 7.36546,1.9749 -7.72068,7.72504 -4.37736,3.91054 z M -332.5,719.23718 c 2.70635,-6.27484 4.21094,6.51143 0,0 z m 81.875,0.625 c 3.83307,-4.01898 0.39497,4.30718 0,0 z m -103.74026,-16.23116 c -7.84415,-11.77187 17.90242,-8.02142 4.72503,-2.14867 0.60424,5.20283 -0.71361,9.1107 -4.72503,2.14867 z m 2.61247,-23.4383 c -3.38995,-9.7096 9.70696,0.86546 0,0 z m -5.43471,-5.67692 c -8.06723,-4.86933 9.59635,-8.87158 2.2963,-1.39751 2.82462,2.53476 -0.75407,2.80656 -2.2963,1.39751 z m 6.61588,-13.31725 c 1.45034,-7.25208 10.97353,5.14922 0,0 z m -4.14192,-4.07075 c 4.79307,-6.78979 3.40271,5.51316 0,0 z m 63.46354,-7.26562 c 6.05175,-17.08729 5.52632,14.09787 0,0 z m -32.5,-10.625 c 3.16289,-6.50909 2.54726,6.27485 0,0 z m -10.625,-6.875 c 1.89567,-4.76083 3.81697,3.95789 0,0 z m 12.36672,-51.77157 c 0.02,-11.30963 15.22985,0.68104 0,0 z"
         id="path4956"
         inkscape:connector-curvature="0"
         sodipodi:nodetypes="ccccccccccccccccccccccccccccccccccccccccccccccccccccccccccccccccccccccccccccccccccccccccccccccccccccccccccccccccccccccccccccccccccccccccccccccccccccccccccccccccccccccccccccccccccccccccccccccccccccccccccccccccccccccccccccccccccccccccccccccccccccccccccccccccccccccccccccccccccccccccccccccccc" />
      <path
         style="fill:#024900;fill-opacity:1"
         d="m -346.92131,936.37091 c -0.50336,7.1272 -24.33173,-5.65899 -33.57059,-6.04041 -0.90081,-7.07925 21.13416,-2.47485 25.83328,-11.71832 7.97391,-3.9453 15.58828,-18.71322 2.15862,-15.625 -11.03957,-5.09532 -25.95927,6.96245 -36.10306,-2.97805 5.1831,-2.10284 19.78108,-3.09239 27.97806,-4.70743 7.58925,2.93676 10.24188,-0.6114 18.51783,3.91614 15.97488,-5.7277 5.84451,-27.51386 -8.87401,-16.0941 -12.14724,2.93836 -24.76253,11.00896 -31.5723,-5.4613 -4.43133,-1.5693 12.18978,-7.60193 1.95524,-10.04392 -4.17631,9.28706 -27.14905,6.82184 -8.67385,1.67374 8.06988,-4.15073 -7.54105,-6.88893 5.96673,-8.08839 4.10675,-4.97135 22.22522,6.1022 18.93036,-2.59169 -5.27468,-6.68211 26.24996,-7.80338 8.09761,0.8752 -8.09728,6.77003 -5.04423,15.20506 -0.6963,19.96064 6.58769,-4.77167 10.24809,-14.60336 17.88914,-20.65439 -17.10964,-5.89457 1.86957,-12.51221 2.82658,-15.18145 -15.48417,-6.33938 8.75385,-17.81764 13.94128,-13.45496 2.14572,-8.76911 0.56911,-25.23099 -12.77118,-19.69794 -7.33344,1.15167 17.67161,6.77501 4.69534,13.54479 -4.54817,2.47024 -8.68954,-11.83542 -11.43924,-0.25578 -5.54644,15.52788 -2.5428,-9.1488 -6.24058,-12.11517 -12.0436,5.02922 9.4725,-11.68545 -6.8718,-10.18251 -19.13689,-13.83419 27.01352,3.98589 16.15991,-9.07569 -8.00152,4.05012 -16.46145,-5.1644 -4.02819,-3.55419 8.74684,3.83205 30.61961,-6.37187 17.3457,-11.40039 0.75197,14.54528 -13.43015,-10.9108 -12.7971,5.76723 -5.4023,-9.76039 18.9248,-13.60634 22.0139,-8.4539 5.93962,16.35476 9.58119,-10.82159 -2.77602,-6.0913 -10.34206,-7.54297 -26.84699,-6.04635 -36.54587,-1.70954 2.58481,-6.62886 -4.23051,-19.22883 7.95873,-9.09944 8.94099,-3.59475 16.75432,0.40717 25.71873,2.53188 3.87825,-7.12296 0.42749,-23.84868 -7.07192,-11.82039 -6.94933,-10.64836 -11.62168,10.49592 -17.28368,0.2612 1.97493,-16.76202 33.15338,0.65385 23.0854,-20.06913 3.05164,-9.01205 4.10097,-19.17708 -3.7557,-23.29455 2.15236,-6.06261 8.8493,-5.03159 3.29929,-14.34526 -6.51302,2.47491 -21.54692,1.31207 -6.99735,-1.51303 6.59869,-4.521 -11.04844,-9.73757 -2.24321,-19.71418 -5.91943,-2.21915 -13.96804,-10.48742 -3.40538,-5.00773 5.91867,7.22353 13.53255,7.58085 12.13098,-3.5919 2.24154,-11.27368 -20.91956,2.82954 -9.94407,-6.63757 6.70914,0.3521 -20.22463,-22.3608 -5.79421,-12.13565 7.40641,5.96513 23.13898,0.1114 18.49351,16.3507 5.73259,2.80937 -1.49877,13.34807 7.03403,9.41047 6.90529,8.82875 -12.25636,2.98862 -2.53413,9.90415 13.96148,7.17265 -12.37767,26.42138 2.51654,30.90804 -2.21156,6.51639 -1.11108,15.9478 0.17959,21.24359 9.58068,-3.20151 -4.95992,-25.85825 7.96422,-15.38584 10.02087,9.20974 -0.61173,18.6875 -0.0626,27.77759 9.9331,6.01317 6.21456,7.13486 -3.21235,4.93463 -0.11847,-11.11673 -10.28721,-1.06383 -3.0075,3.50697 -12.62243,16.68397 18.46557,15.90513 16.78136,1.48863 7.25175,-0.90811 14.64211,3.16853 3.00819,5.11513 -5.95203,10.26911 -1.03966,3.01752 2.65558,5.13303 -14.31937,7.08445 8.38176,9.99072 6.24407,14.24306 -11.23427,-6.58628 -5.65738,10.45548 -14.80213,6.18666 15.11012,-6.20447 -18.99826,-15.6022 -1.44913,-5.87629 -9.49274,-0.26281 3.1722,12.89659 -9.85072,7.18733 -13.77975,0.11769 9.73238,17.66699 15.71209,7.43891 7.97161,-0.79766 10.21225,11.30279 13.4323,13.52292 -10.27961,2.41844 -33.68936,-0.7146 -26.37197,15.08407 5.3495,-7.51032 15.10887,-5.88552 16.24605,1.0031 8.80799,4.70238 14.06481,-7.37279 14.54216,5.35812 6.55322,3.73399 1.24567,17.42667 14.56168,11.42386 5.43818,11.79669 -13.30408,14.49567 -5.14539,26.26985 -15.6144,3.29619 13.23398,1.20472 6.58895,10.0025 -3.7606,-7.65867 -21.54249,2.62321 -6.55377,4.4111 5.48614,2.62671 30.61102,0.59674 16.29019,7.27732 -14.22501,-4.21901 -30.40497,-4.87688 -43.74956,-11.61688 2.63427,-3.69328 13.49665,-12.04144 1.099,-11.68856 -2.31136,12.01645 -24.90031,-15.1111 -19.38706,6.98209 2.49093,11.91406 16.75778,22.95524 25.90923,23.16958 -6.05071,-13.55308 7.62517,-8.51218 5.73162,1.77412 6.43499,2.00759 20.47726,-8.72702 17.35587,6.37075 -3.93538,7.64957 21.91496,17.42672 4.86302,23.9313 -51.65037,8.2204 -65.6047,-8.18069 -88.13004,11.03183 z M -355,931.11218 c -3.36565,-5.03748 -2.94582,4.86674 0,0 z m 33.75,0.15305 c -6.11122,-10.61239 -6.68299,4.63323 0,0 z m 11.25,-4.52805 c -8.51281,-7.74144 -7.18898,7.22793 0,0 z m 37.5,0.0738 c -3.15312,-4.89496 -3.44257,2.62767 0,0 z m -45,-1.85949 c -1.6988,-11.67051 -14.33514,-8.16972 -5.37214,-0.48454 0.83768,-0.4338 5.16029,3.17413 5.37214,0.48454 z m -19.375,-7.58926 c -0.38495,-4.41928 -5.52583,4.46549 0,0 z m 52.90304,-5.94562 c -0.87978,-4.91382 25.10313,-3.8547 12.73246,-11.27106 -6.32357,5.72164 -24.38152,-7.51992 -15.2886,6.43185 -9.49197,-7.57432 -19.71663,7.3678 -6.11003,8.26541 2.57161,-0.61341 10.4257,1.92366 8.66617,-3.4262 z m -52.09054,-0.92938 c -3.66397,-6.32389 -3.26613,6.16948 0,0 z M -325,911.18595 c -4.6807,-7.85727 -4.30368,4.64232 0,0 z m 22.5,-1.32377 c 9.9705,-9.93858 -19.57906,-21.02885 -8.08382,-4.50755 0.31883,4.3122 4.0646,10.24197 8.08382,4.50755 z m -31.8236,-6.33316 c -0.008,-7.54402 -8.07845,4.62301 0,0 z m 11.2138,-9.69332 c -5.02816,-0.78099 -0.98717,7.39649 0,0 z m -3.1402,-4.59852 c -5.28443,-11.33082 -2.4617,10.35919 0,0 z m -47.63764,-8.58415 c -0.3631,-11.81433 -7.68951,5.88558 0,0 z m 48.65327,-0.71273 c -0.97411,-4.35511 -5.94614,5.19872 -0.86817,1.31934 z m -13.14294,-7.11747 c -1.80069,-13.28034 -10.97338,1.12777 0,0 z m 12.61201,-2.80561 c 6.80312,-6.64917 0.5083,-17.96724 -2.61515,-4.30248 -10.36495,2.05867 -1.60919,9.63476 2.61515,4.30248 z m 45.1403,-0.15504 c -4.09122,-7.66985 -3.4159,7.41769 0,0 z m -85.89712,-2.30688 c -1.70973,-4.96072 -7.81261,5.29768 -1.04997,1.31469 z M -302.5,851.11218 c -4.21598,-11.55532 -12.14066,5.34373 0.6865,4.2499 3.91009,2.8188 -0.87767,-3.59258 -0.6865,-4.2499 z m -22.5,-1.91897 c -10.31863,-9.1979 -8.09086,12.89285 0,0 z m -1.51676,-10.73624 c -4.25855,-9.19623 -17.99844,7.51918 -1.43111,1.59505 l 0.97703,-0.68093 z m 20.89176,1.40521 c -0.3299,-4.58416 -3.75202,4.21098 0,0 z m 27.48404,-2.47416 c 1.92961,-15.32465 -35.24768,-10.54832 -21.86338,-0.65515 7.98332,-7.29978 14.35435,4.31616 21.86338,0.65515 z m -28.10904,-7.3321 c -8.17618,-13.81789 -5.81195,3.61888 0,0 z m -1.25,-29.32641 c 6.9202,4.39787 14.19731,1.48528 3.04027,-2.01703 -15.8342,-7.37347 -9.50186,16.41698 -3.04027,2.01703 z m 20.625,1.52851 c -13.66155,-10.27159 -6.44922,8.63089 0,0 z m -40.625,0.10416 c -4.62565,-4.76207 -2.9389,4.16071 0,0 z m -1.29398,-8.66783 c 4.11585,-9.41849 -10.82907,1.26699 -1.21596,1.73589 l 1.21596,-1.73569 z m 7.52484,-113.65341 c -2.16877,-12.54887 -7.02087,10.78817 0,0 z M -395.625,926.11218 c 12.21562,-5.0924 7.19533,4.86743 0,0 z m 27.5,-12.5 c 3.83306,-4.01898 0.39498,4.30718 0,0 z m -26.875,-31.25 c 3.36565,-5.03748 2.94582,4.86674 0,0 z m 89.30141,-14.33525 c -4.54023,-8.72342 9.42606,6.02963 0,0 z m 52.41439,-8.5248 c -7.76968,-2.89257 -8.4067,-17.44027 -0.44294,-5.98874 1.98187,1.57348 6.45031,11.18083 0.44294,5.98874 z M -371.25,853.61218 c 3.36565,-5.03748 2.94582,4.86674 0,0 z m -21.61219,-2.5 c -9.34075,-1.04703 -22.93613,-24.52487 -7.71714,-16.53558 -10.51118,9.32608 35.54398,18.24879 8.90186,18.3433 z M -357.5,839.82295 c 3.66959,-4.17859 5.79261,2.37714 0,0 z m -11.42402,-3.66918 c -7.92723,-3.04553 10.48959,-4.35117 -2.99595,-5.67836 -9.71981,10.38187 -24.01892,-8.29059 -26.244,-11.776 7.54514,-1.2683 33.26099,10.19237 26.90881,-2.95075 -6.32126,-8.00616 21.2226,-5.61446 14.23268,4.83718 14.67179,-0.50253 2.49191,4.56199 -3.14087,7.79078 5.5233,1.3595 16.5728,0.8714 3.02138,3.75598 -3.82103,2.05472 -7.10026,9.90721 -11.78205,4.02117 z M -360,822.98718 c -8.5128,-7.74144 -7.18899,7.22792 0,0 z m 8.75,12.78124 c 8.9529,-8.76852 9.85947,5.36655 0,0 z m 79.51984,-16.80307 c 2.50902,-12.03703 16.59122,2.3814 1.52104,0.23977 l -1.52104,-0.23976 z m 7.98016,-7.85317 c 3.36565,-5.03748 2.94582,4.86674 0,0 z M -380,807.2884 c 2.54132,-2.74329 2.83006,4.18284 0,0 z m -3.4375,-4.50407 c -3.36655,-6.11972 -15.96982,-13.99477 -0.48628,-10.30626 8.02856,6.85008 34.04816,-12.08243 21.42378,1.62537 -2.54614,6.026 -15.63191,6.67883 -20.9375,8.68089 z M -267.5,796.11218 c 2.45701,-4.46219 5.17945,4.76742 0,0 z m -14.01476,-5.85246 c -4.59561,-6.78092 1.45048,-11.77377 7.04026,-7.11263 7.34808,-11.51498 0.0795,12.95145 -7.04026,7.11263 z M -403.75,787.50558 c 4.18731,-7.27186 3.30088,7.05914 0,0 z m 51.875,-3.8934 c 9.63611,-5.39261 4.38848,5.64675 0,0 z m 85,-6.25 c 6.75971,-4.46609 2.52129,2.94034 0,0 z m -108.69662,-7.41363 c 1.12121,-6.7801 5.67946,4.48975 0,0 z m 100.15496,0.33029 c -2.13986,-8.11016 9.88613,2.80336 0,0 z m 1.69015,-6.65215 c -12.98775,-3.0291 3.53963,-10.99657 1.44009,0.59296 z m -110.96099,-1.99506 c -13.20356,-9.23495 15.17633,1.3692 3.02177,1.2637 z m 23.4375,-10.51945 c -3.56533,-6.86653 6.53827,2.88823 0,0 z m -10.3931,-6.36823 c -4.00989,0.47138 -23.13593,-10.43534 -7.39371,-7.20393 5.17626,-1.99873 16.55149,15.27572 7.39371,7.20393 z m 92.2681,1.36823 c 5.4279,-4.62485 0.64205,4.22921 0,0 z m -76.84483,-14.29811 c 1.69572,-9.41201 -23.50748,4.59913 -9.45988,-2.66158 8.40517,-5.21519 -3.12131,-15.5606 -5.8622,-20.25116 10.15001,4.18298 12.10689,14.13061 22.53004,19.54409 11.30994,7.29791 -6.23661,10.29923 -7.20796,3.36865 z m -23.05086,-2.7558 c -1.30573,-8.52731 13.66205,5.74719 1.41599,1.35187 z m -6.97931,-2.94609 c 4.60274,-5.03044 4.79552,4.88991 0,0 z m 98.75,0 c 6.93499,-5.2643 4.4034,4.7503 0,0 z m -50.625,-13.75 c -9.22095,-1.38648 -3.45056,-16.3595 2.5627,-4.70889 3.45894,1.89236 -0.37192,11.37119 -2.5627,4.70889 z m -6.875,0 c 3.36565,-5.03748 2.94582,4.86674 0,0 z m 33.75,-5.69878 c 3.0859,-4.56687 2.44214,6.10447 0,0 z m -42.73701,-3.69721 c -4.42515,-7.77366 14.31995,-8.10499 3.32821,-1.39453 0.0514,4.00235 -0.18396,7.00252 -3.32821,1.39453 z m 61.48701,1.89599 c -7.20229,-3.35273 -22.92004,-8.29676 -6.79299,-13.42889 7.25626,-16.84272 18.04774,4.97849 8.69744,12.27166 1.45597,1.8522 -1.59851,3.60578 -1.90445,1.15723 z m -0.625,-8.83705 c -6.96452,-8.75777 -4.13381,8.80247 0,0 z m -48.64364,-8.34825 c -0.1755,-6.95483 12.40509,0.478 0,0 z m 57.39364,-5.3147 c 0.3299,-4.58416 3.75203,4.21099 0,0 z m -66.875,-3.75 c 3.36565,-5.03748 2.94582,4.86674 0,0 z m 46.25,-1.25 c 3.36565,-5.03748 2.94582,4.86674 0,0 z m 23.75,-0.55123 c 2.96846,-8.5637 2.92051,6.28774 0,0 z m -18.75,-2.613 c 6.9791,-9.43067 6.00097,5.59769 0,0 z m 10,-3.08577 c -6.23036,-7.89443 8.23687,2.19891 1.66941,-7.16271 11.51721,-3.03257 9.45632,11.05431 -1.60985,8.84987 l -0.0596,-1.68711 0,-5e-5 z m -14.27131,-3.58223 c -1.45402,-6.6292 4.33285,2.22929 0,0 z M -315,660.55863 c 4.76244,-6.15887 2.7616,-12.78903 2.04524,-15.32926 9.943,2.3585 3.33723,-13.56884 0.99526,-2.46679 -11.79306,-4.82668 10.67001,-15.82628 7.18986,-24.899 9.32051,-8.31861 6.28058,12.97335 -1.45822,14.61801 -3.00314,7.24063 18.96164,-1.10649 7.94218,10.74563 -8.88618,2.14155 -9.06302,22.23169 -16.71432,17.33141 z m 31.3073,-2.05351 c 6.13718,-7.2864 -2.30849,8.14729 0,0 z M -290,649.23718 c 3.97394,-10.38815 2.25475,9.75736 0,0 z m -32.82966,-19.51411 c -1.56675,-5.1575 -19.92786,-4.2724 -6.09067,-6.40901 14.13043,-4.28504 -9.87288,-23.42062 6.2742,-13.09499 -0.35366,-8.08091 14.15985,3.9221 5.75301,-6.21399 -3.50887,-7.81788 -8.2067,-8.45406 2.36516,-14.02433 2.09872,5.10678 12.54348,10.76854 2.30712,15.2371 7.15379,4.20275 -6.67799,9.99503 -1.0933,19.01338 -0.41151,3.10557 -7.79048,13.95697 -9.51552,5.49184 z m -16.41436,-9.3453 c -1.52189,-8.94087 6.61484,4.34731 0,0 z M -321.25,578.74592 c 7.29823,-8.93723 4.80232,5.55671 0,0 z"
         id="path4954"
         inkscape:connector-curvature="0"
         sodipodi:nodetypes="cccccccccccccccccccccccccccccccccccccccccccccccccccccccccccccccccccccccccccccccccccccccccccccccccccccccccccccccccccccccccccccccccccccccccccccccccccccccccccccccccccccccccccccccccccccccccccccccccccccccccccccccccccccccccccccccccccccccccccccccccccccccccccccccccccccccccccccccccccccccccccccccccccccccc" />
      <path
         style="fill:#024900;fill-opacity:1"
         d="m -347.35807,938.37494 c -8.38888,4.37846 -23.69496,-7.86404 -25.5282,-10.91407 8.71971,-2.00938 21.18971,-6.7467 26.08549,-10.81736 -8.45315,-1.53681 10.31189,-18.15246 7.1163,-2.90484 -2.84028,14.47677 14.46115,-7.08124 0.93452,-7.58727 9.90486,-2.08791 2.69233,-5.67577 -0.64603,-6.98949 5.06896,-6.21389 8.31365,-15.05432 12.21123,-1.87225 10.97269,2.91056 -1.72842,-13.44727 4.13458,-18.89567 -6.92553,-4.74508 7.51302,-25.13125 -3.56197,-21.03181 -2.51089,2.62726 -9.2855,4.46408 -2.63113,7.30572 -4.27918,8.57706 -11.75987,6.67584 -12.45775,-2.34833 11.7858,-4.14814 -13.37672,-15.2504 3.92849,-14.15549 2.66158,-4.77163 9.93717,-9.39572 5.68852,0.12669 -2.72268,10.49445 12.99006,2.7311 7.01678,-3.87378 6.94168,-7.25135 5.0848,-25.41372 1.77641,-33.97406 -7.98741,-5.31625 11.62071,-9.6007 -2.55389,-11.59434 -7.33101,-3.41837 14.65415,-7.11649 10.61608,1.4663 2.14002,7.14433 12.89542,9.9795 3.43752,18.98204 4.89666,8.30932 9.93566,-8.01076 14.0629,3.10955 18.48143,3.1035 -5.45984,7.50093 -10.60199,2.99997 -14.35487,-8.17547 3.96999,9.18457 1.58899,10.70578 -7.71485,6.80931 3.98197,6.87809 7.0995,1.4999 9.51203,-2.41355 28.48596,8.03297 20.55301,-8.71932 9.72077,0.50278 2.79311,13.38626 -1.58935,15.22194 -1.05519,7.54076 18.90207,8.61332 3.85686,12.42569 -1.38798,9.47774 14.71183,14.99629 1.18015,18.52075 -2.85816,8.2211 -27.54527,-1.62433 -11.05245,-4.99808 10.45523,9.15081 9.04621,-11.15726 -1.85416,-7.68622 -5.39584,-7.57536 -12.61917,-12.2287 -19.30791,-17.34728 -1.19748,3.26659 -7.98998,-7.68735 -5.70473,1.93612 -3.12388,11.14058 16.67373,6.9493 14.30311,16.64648 -7.99079,-3.90368 -17.36789,-7.28119 -14.09669,6.72345 0.38805,6.22532 12.19348,18.50807 -1.33274,12.6183 -2.82407,9.61442 17.66907,0.26197 19.15071,10.15585 10.77529,6.59877 22.1619,-0.0104 31.02723,2.47964 3.71005,10.562 -11.29582,3.57619 -17.00995,4.97527 -8.4938,-6.61022 -8.96807,2.9363 -7.91311,5.24065 -8.32923,2.37438 -26.65416,-21.31075 -22.90649,-3.07528 0.91088,14.44139 12.30984,3.3035 16.06647,12.96903 13.06318,-0.66976 13.06196,9.48473 6.3944,10.0985 8.05466,6.87166 10.89967,-8.65524 16.08315,3.88617 13.16351,-6.72785 -18.0076,-9.29516 -8.26169,-20.58476 11.16563,-4.26875 31.38649,-1.3597 26.29819,14.93582 -8.39572,-0.31742 -11.40145,1.85849 -7.51252,9.17783 -18.82597,20.83709 -72.28353,-20.31832 -84.08784,5.16226 z m 35.07596,-3.90582 c -9.63256,-7.11382 16.02511,-2.94294 3.66267,-9.32337 -2.26867,-8.69857 -11.17078,1.96944 -13.33728,-9.98831 -5.31169,-11.23064 -9.97722,-6.30087 -4.58782,2.87294 -3.80831,5.57067 -11.94828,8.10942 -0.55392,10.32037 1.11359,7.79186 12.83031,4.70697 16.38949,8.08923 z m -9.59289,-7.10694 c 0.38495,-4.41928 5.52583,4.46549 0,0 z m -35,5.73084 c 10.32676,-10.63168 -14.64227,4.88284 -2.82858,1.96325 z m 26.47889,-15.96522 c -2.24628,-0.89252 0.84095,5.33615 0,0 z M -286.25,845.4134 c -8.5969,-7.59836 -3.58301,9.33356 0,0 z m -92.73437,83.59489 c 7.68677,-1.25392 -2.32236,2.41783 0,0 z m 0.82794,-25.44696 c -8.37593,0.92818 -12.3256,-6.34502 -1.15118,-4.88519 6.5882,-3.10393 33.37955,-3.78596 18.04337,2.71724 -5.40798,-5.36357 -12.41873,5.54902 -16.89219,2.16795 z m 25.83067,-1.6142 c -0.95381,-16.25072 14.33683,6.5389 0,0 z m 65.65022,-12.06069 c -2.83965,-13.82359 9.5639,10.00087 0,0 z m -88.89758,-3.69031 c 2.36096,-6.99966 14.00831,-7.87093 0.82344,-9.91934 -0.57918,-10.63155 -4.76532,-11.8352 -12.69,-4.90099 -15.416,6.71948 3.48486,-5.29546 7.38678,-10.298 6.51702,2.77031 26.40665,-2.27047 16.78992,9.78041 9.63973,3.39878 -2.55771,10.59239 -3.34137,15.00338 -2.85147,0.35327 -6.19188,1.98342 -8.96877,0.33454 z m 7.36675,-16.30301 c 12.09279,-13.80745 -16.68808,4.77371 0,0 z m 116.33137,14.96906 c -4.77606,-0.6365 -27.97556,-5.05226 -11.25,-4.10293 2.3611,-1.7176 23.52805,6.27447 11.25,4.10293 z m -108.66247,-1.10836 c 3.9592,-4.25992 10.67868,-6.57863 12.22202,-13.31831 4.45065,5.09341 27.9521,3.80792 14.15254,10.86153 -7.84352,-8.41026 -18.35473,6.10988 -26.37456,2.45678 z m -20.08753,-6.39164 c 0.3299,-4.58416 3.75202,4.21098 0,0 z m 18.3285,-18.83656 c -8.80206,-5.24909 22.99573,-5.73458 4.52915,-0.0447 -0.83867,2.57094 -3.28554,1.66812 -4.52915,0.0447 z m -30.24117,-8.13753 c -4.12745,-2.32912 -14.62131,-11.09444 -2.22885,-5.67298 6.83075,0.66344 12.07527,13.52067 2.22885,5.67298 z m 120.35017,-2.2258 c -8.53226,-10.05862 17.92018,-5.11845 3.43232,1.39347 l -1.5519,-0.5353 -1.88045,-0.85817 z m -133.33381,-6.88235 c -1.45401,-6.6292 4.33284,2.22932 0,0 z m 65.017,-2.47247 c 0.65384,-7.2799 6.08283,2.02035 0,0 z m -27.62615,-2.70412 c 10.16398,-15.16882 -23.60664,7.07575 -20.49,-12.51244 -12.77231,-3.54736 25.8137,-2.5692 27.79396,5.72847 5.01667,2.5682 -4.21047,11.1476 -7.30396,6.78397 z M -335,835.17103 c 3.57608,-12.44938 16.69145,1.33746 3.48883,-0.38963 -0.81308,-1.07246 -2.8997,2.14086 -3.48883,0.38963 z m -23.75,-10.819 c 6.81721,-5.97806 14.90243,0.62592 0,0 z m 26.7905,-1.85313 c -1.34731,-5.72296 -19.95588,-4.88439 -9.01121,-12.0485 5.10104,4.96323 19.09637,6.63952 9.01121,12.0485 z M -345,821.11218 c 2.9936,-4.99395 1.99353,4.64868 0,0 z m -22.85014,-0.76681 c -12.96855,-12.29176 19.54517,-8.82448 5.98694,-0.72437 -1.58572,0.56478 -4.23915,2.17086 -5.98694,0.72437 z m 20.03764,-11.79922 c 7.86168,-6.81988 -22.49207,-11.99941 -4.87829,-11.48811 12.10749,-3.83694 17.1136,11.61113 4.05998,12.69049 l 0.81831,-1.20238 z m 11.17403,0.34767 c -6.02601,-9.17306 7.97298,-16.42404 6.76936,-1.96839 -1.68119,1.8367 -4.40624,2.31841 -6.76936,1.96839 z M -383.75,799.83124 c -6.29678,-5.62019 -7.73445,-8.42865 2.43172,-6.07732 6.82634,-0.73376 27.28385,-1.13241 11.04778,4.80766 -4.66836,-2.90102 -12.27063,7.74727 -13.4795,1.26966 z m 82.1875,-1.67295 c -6.38275,-4.89971 24.34721,-8.19031 8.66071,0.47095 -2.88713,0.16877 -6.05346,1.66439 -8.66071,-0.47095 z M -347.5,791.11218 c 3.36565,-5.03748 2.94582,4.86674 0,0 z m 6.25,0 c 4.62565,-4.76207 2.9389,4.16071 0,0 z m 17.90362,-0.75115 c 3.35423,-11.90981 8.6567,7.54777 0,0 z m -38.23695,-0.65396 c 7.29905,-4.03452 -3.3198,4.29898 0,0 z M -403.75,787.36218 c 3.36565,-5.03748 2.94582,4.86674 0,0 z m 123.51563,0.39611 c 7.68675,-1.25392 -2.32236,2.41784 0,0 z m -39.03436,-3.83151 c -3.5491,-6.733 -4.19999,-15.21845 3.01866,-6.5646 2.61318,3.54643 16.72597,8.57247 4.64964,5.31609 -2.61056,-0.0196 -5.02631,1.94977 -7.6683,1.24851 z m -11.35627,-5.3146 c 0.70176,-10.62683 7.17516,3.87282 0,0 z m 21.41741,-2.60045 c 0.087,-8.52533 5.88269,-8.98023 2.32134,0.0493 1.55679,5.2903 -2.19755,4.01105 -2.32134,-0.0493 z M -320,766.45107 c -9.19685,-9.94703 16.7581,0.80894 0,0 z m -32.8125,-6.45554 c -8.852,-15.30757 12.76716,7.98595 0,3e-5 z m 8.88848,-0.17494 c 14.84738,-5.93984 2.04848,6.87851 -2.24106,1.86699 z m -43.81035,-0.8123 c 7.68677,-1.25392 -2.32236,2.41783 0,0 z m 68.87487,-0.39611 c 1.5126,-12.15091 -7.67422,-32.8433 1.82911,-39.30707 0.12763,9.02452 -1.21993,13.86156 8.85225,13.34587 8.22816,9.91512 -17.24643,8.01096 -5.19412,18.51525 -0.0164,0.68647 -5.54947,10.623 -5.48724,7.44595 z m -24.2655,-15 c 9.63611,-5.39261 4.38848,5.64675 0,0 z m 9.6875,0.42215 c -7.23865,-10.33886 18.77754,4.91252 0,0 z M -382.5,739.86218 c -1.20581,-7.75035 14.0812,5.71183 1.48232,1.6035 z m 27.80068,-7.48304 c -0.39945,-6.10291 -17.84058,-15.32157 -3.812,-10.01696 7.34909,-0.16775 15.81355,17.64316 3.812,10.01696 z M -378.75,728.61218 c 3.30675,-4.75683 7.875,4.94219 0,0 z m 70,-2.46078 c 3.82016,-2.76412 5.65933,4.36757 0,0 z m 0.29688,-7.74235 c -5.7866,-9.25844 6.31007,1.25353 0,0 z m -62.17188,-7.29687 c 0.38495,-4.41928 5.52583,4.46549 0,0 z m 32.67297,-0.625 c -12.12108,-8.88327 7.87443,-3.38638 0.83605,1.32422 l -0.83605,-1.32422 z m 14.44249,-2.85911 c -8.16619,-6.4553 10.6562,-0.52431 0,-3e-5 z m 21.68792,-8.92952 c 1.65841,-7.27884 8.00365,4.74057 0,0 z m -16.09817,-9.37735 c -13.63513,-8.22914 9.71147,0.30783 0,0 z m -13.86592,-8.92331 c -7.90773,-12.51323 12.57647,-5.52201 2.90904,1.87789 l -1.36907,-0.61828 -1.53997,-1.25956 z m 47.64509,-11.343 c -3.45297,-7.14613 10.87511,0.4528 0,0 z m -28.34024,-9.86235 c 2.17411,-9.29515 6.23516,-0.39962 0,0 z M -336.25,657.36218 c 2.9936,-4.99395 1.99353,4.64868 0,0 z m 7.75439,-3.41165 c -13.03431,-8.04396 -6.34367,-7.93691 3.45747,-5.03639 6.32283,-3.69359 -0.38736,6.95319 -3.45747,5.03639 z m 14.26962,-16.27585 c 3.52592,-13.02675 7.98058,2.54642 -0.26365,2.57541 z m 7.39382,2.2568 c 7.00688,-10.73233 13.70268,3.92198 0,0 z m -14.44562,-7.80803 c -13.24904,-12.22695 9.56025,-20.4714 5.74468,-5.10478 -6.50889,-2.89751 -1.81213,8.89159 -5.74468,5.10478 z m 17.76217,-6.0894 c 5.19353,-7.25275 2.70885,4.08033 0,0 z m -15.99989,-14.33588 c -3.95359,-13.42287 14.31135,9.87297 0,0 z m 2.49552,-11.83599 c -7.41944,-7.92703 4.13168,-10.60543 6.39499,-2.00266 9.0833,1.62924 -8.57587,12.55967 -6.39499,2.00266 z"
         id="path4952"
         inkscape:connector-curvature="0"
         sodipodi:nodetypes="ccccccccccccccccccccccccccccccccccccccccccccccccccccccccccccccccccccccccccccccccccccccccccccccccccccccccccccccccccccccccccccccccccccccccccccccccccccccccccccccccccccccccccccccccccccccccccccccccccccccccccccccccccccccccccccccccccccccc" />
      <path
         style="fill:#024900;fill-opacity:1"
         d="m -364.41807,927.1789 c 6.22268,-4.43943 11.96825,-7.24273 18.94585,-7.88911 -3.97022,-8.22646 7.15782,-14.58478 4.28649,-1.60821 16.35384,1.01336 -5.10354,21.05188 -14.32252,13.09354 -3.17715,-0.6646 -5.96562,-2.33395 -8.90982,-3.59622 z m 6.334,7.65798 c 17.3477,-14.85542 -19.05174,3.59345 -3.0387,1.58039 l 3.0387,-1.58039 z m 15.08928,-13.38616 c -4.52272,-0.51597 1.98742,6.40891 0,0 z m 36.28685,18.59606 c -8.52329,-10.93815 10.78356,-1.27207 1.76032,1.39701 l -1.76032,-1.39701 z m 25.41062,-0.0885 c -11.41514,-4.48479 -27.30762,-3.73747 -18.22953,-18.38309 -8.16373,4.4487 -7.12949,-0.4817 -12.33696,-7.45686 5.08056,-5.06629 26.52077,3.18016 16.87971,10.13798 7.17504,-0.35144 9.84966,17.71867 12.59299,10.04817 -3.07294,-12.12032 13.19681,7.5612 14.28049,-4.28708 14.03093,0.87071 -9.15079,14.81915 -13.1867,9.94088 z m 9.42232,-17.4514 c -10.94992,-0.95334 -13.84754,-16.63947 -0.0695,-14.09048 10.93656,-6.62359 13.59744,21.83578 0.0695,14.09048 z m -50.17021,-14.51252 c -10.5675,-2.95664 4.72226,-3.67184 1.17876,-13.84187 -3.4249,-5.13917 2.48194,-17.54132 1.97537,-8.39922 -3.65259,3.78595 20.37219,6.93942 7.56327,8.16548 -4.08668,1.45666 -3.76866,19.61348 -10.7174,14.07561 z m -9.82979,-4.38218 c 3.83306,-4.01898 0.39498,4.30718 0,0 z m 35.9375,0.36784 c -13.3819,-4.19227 -4.28174,-16.55859 4.52305,-5.57041 1.20449,4.62893 1.05769,8.02462 -4.52305,5.57041 z m -82.21893,-1.66869 c -16.30445,-2.42344 8.84525,-1.92743 0,0 z m 26.90643,-2.2961 c 2.81916,-8.2351 3.43194,6.12207 0,0 z m -21.97133,-0.30891 c 6.58806,-6.75948 24.90844,-1.24274 7.30936,0.76683 -2.44209,-0.0299 -4.99617,0.27054 -7.30936,-0.76683 z m 92.54493,0.0728 c -1.35467,-6.01891 5.95416,4.85261 0,0 z m 11.63332,-0.39269 c -3.45671,-10.1956 10.6527,5.00243 0,0 z m -66.36356,-2.56242 c 9.29601,-7.76323 2.23375,6.62249 -1.73772,2.38623 z m -23.90586,-14.32129 c 12.41237,-7.08234 4.36321,4.70476 0,0 z m -7.67885,-6.86797 c -0.68307,-10.91057 14.6384,6.01749 0,0 z M -350,874.9004 c 6.73559,-7.95197 7.23378,7.82187 0,0 z m 63.88543,-0.111 c -8.45308,-8.67442 16.56703,5.34023 2.49272,1.61647 l -2.49272,-1.61647 z m -34.0791,-2.13243 c -3.31703,-5.6432 0.11584,-16.20899 -1.27585,-23.752 11.88652,-4.50453 3.43965,4.31947 5.60944,7.91497 2.05473,2.51006 3.4821,24.83422 -4.33359,15.83703 z m -64.51918,-5.53116 c 2.42696,-12.13266 24.58295,1.48426 6.88958,-1.62451 -1.30912,-0.97816 -7.41991,5.89661 -6.88958,1.62451 z m 45.65035,-4.35666 c 3.60866,-3.70431 2.31268,-14.27992 9.87057,-7.0044 -2.75279,0.065 -13.93081,13.55257 -9.87057,7.0044 z m 30.9375,-2.90697 c 0.38495,-4.41928 5.52583,4.46549 0,0 z m 13.13593,-7.25919 c -9.37308,0.6522 -5.27928,-11.48876 -0.94843,-2.88007 5.61707,-0.50418 9.84698,4.97646 0.94843,2.88003 z m 8.11407,-0.24081 c 2.34008,-4.63038 4.7866,4.22309 0,0 z m -33.08525,-10.23873 c 2.85868,-8.65765 3.75463,2.92075 0,0 z m -45.35225,-7.53688 c 11.65508,-10.1074 -2.66636,5.42368 0,0 z m -20.36106,-4.77805 c -5.35301,-9.69904 22.11557,-6.51266 8.64591,0.66189 -2.70886,1.4906 -6.78538,2.98635 -8.64591,-0.66189 z m 18.41402,-0.91613 c -8.32235,-8.05953 12.08786,0.81269 0,0 z m 48.50954,-0.83144 c 2.85772,-6.56779 2.73948,4.55844 0,0 z m -1.25,-8.09653 c 0.98211,-11.82286 5.7411,4.29805 0,0 z m -47.5,-1.25 c 3.09917,-13.90455 12.01779,4.29982 0,0 z m 31.74126,-13.32948 c -0.14724,-11.22414 7.22454,2.47545 -0.056,1.47518 z m -19.65793,-5.1061 c -2.45886,-7.82586 13.21874,4.68023 0,0 z M -320,798.61218 c 3.36565,-5.03748 2.94582,4.86674 0,0 z m -49.44859,-3.16475 c 10.39875,-5.30577 -2.29576,7.35717 0,-5e-5 z m -10.96808,-53.91859 c -2.62908,-8.43178 8.09787,2.68225 0,0 z M -353.75,730.48718 c 3.16289,-6.50909 2.54726,6.27485 0,0 z m 30,-104.44877 c 2.54129,-2.74332 2.8301,4.18283 0,0 z m 8.33333,-23.25956 c -4.59907,-11.61842 3.37564,-9.77519 3.90092,-0.72917 -0.62439,1.61258 -2.90607,2.02418 -3.90092,0.72917 z"
         id="path4950"
         inkscape:connector-curvature="0"
         sodipodi:nodetypes="ccccccccccccccccccccccccccccccccccccccccccccccccccccccccccccccccccccccccccccccccccccccccccccccccccccccccccccccc" />
    </g>
  </g>
</svg>
