<?xml version="1.0" encoding="UTF-8" standalone="no"?>
<!-- Created with Inkscape (http://www.inkscape.org/) -->

<svg
   xmlns:dc="http://purl.org/dc/elements/1.1/"
   xmlns:cc="http://creativecommons.org/ns#"
   xmlns:rdf="http://www.w3.org/1999/02/22-rdf-syntax-ns#"
   xmlns:svg="http://www.w3.org/2000/svg"
   xmlns="http://www.w3.org/2000/svg"
   xmlns:sodipodi="http://sodipodi.sourceforge.net/DTD/sodipodi-0.dtd"
   xmlns:inkscape="http://www.inkscape.org/namespaces/inkscape"
   width="16"
   height="14"
   id="svg2"
   version="1.1"
   inkscape:version="0.91 r13725"
   sodipodi:docname="Sheep_Icon.svg"
   inkscape:export-filename="/media/Remainder/Dropbox/Projects/Catan Stuff/Sheep_Icon1.png"
   inkscape:export-xdpi="90"
   inkscape:export-ydpi="90">
  <defs
     id="defs4">
    <inkscape:perspective
       sodipodi:type="inkscape:persp3d"
       inkscape:vp_x="0 : 50 : 1"
       inkscape:vp_y="0 : 999.99997 : 0"
       inkscape:vp_z="91.666241 : 49.242386 : 1"
       inkscape:persp3d-origin="50 : 33.333333 : 1"
       id="perspective2987" />
  </defs>
  <sodipodi:namedview
     id="base"
     pagecolor="#ffffff"
     bordercolor="#666666"
     borderopacity="1.0"
     inkscape:pageopacity="0.0"
     inkscape:pageshadow="2"
     inkscape:zoom="11.2"
     inkscape:cx="-1.8659734"
     inkscape:cy="13.278467"
     inkscape:document-units="px"
     inkscape:current-layer="layer1"
     showgrid="true"
     showguides="true"
     inkscape:guide-bbox="true"
     inkscape:snap-bbox="false"
     inkscape:bbox-nodes="true"
     inkscape:bbox-paths="false"
     inkscape:snap-bbox-edge-midpoints="false"
     inkscape:snap-bbox-midpoints="false"
     inkscape:window-width="1537"
     inkscape:window-height="871"
     inkscape:window-x="59"
     inkscape:window-y="0"
     inkscape:window-maximized="1"
     inkscape:snap-nodes="false">
    <inkscape:grid
       type="xygrid"
       id="grid2985"
       empspacing="5"
       visible="true"
       enabled="true"
       snapvisiblegridlinesonly="true" />
  </sodipodi:namedview>
  <metadata
     id="metadata7">
    <rdf:RDF>
      <cc:Work
         rdf:about="">
        <dc:format>image/svg+xml</dc:format>
        <dc:type
           rdf:resource="http://purl.org/dc/dcmitype/StillImage" />
        <dc:title></dc:title>
      </cc:Work>
    </rdf:RDF>
  </metadata>
  <g
     inkscape:label="Layer 1"
     inkscape:groupmode="layer"
     id="layer1"
     transform="translate(0,-1038.3622)">
    <g
       id="g4139"
       transform="translate(6.094705e-6,1.000001)">
      <path
         inkscape:connector-curvature="0"
         d="m 1.9884125,1041.1735 c 0.169467,-0.162 0.3913825,-0.3273 0.6159262,-0.369 0.3443476,-0.064 0.4302579,0.1963 0.6972861,0.2362 0.1855507,0.028 0.3724743,-0.2276 0.6295777,-0.251 0.2836218,-0.026 0.5444912,0.1633 0.7311402,0.3838 0.1514612,-0.3755 0.4609346,-0.4292 0.7987701,-0.3322 0.2543574,0.073 0.2888393,0.1605 0.5009476,0.096 0.1410264,-0.043 0.2679305,-0.224 0.4196662,-0.2805 0.5009475,-0.1867 0.6315783,0.2128 1.0221762,0.2435 0.3399932,0.027 0.5588488,-0.3026 0.9951478,-0.1402 0.3497219,0.1303 0.1574239,0.1551 0.5212287,0.059 0.2490616,-0.066 0.4767436,-0.016 0.7176064,-0.044 0.201399,-0.024 0.081124,0.041 0.2572603,-0.081 0.066453,-0.046 0.108349,-0.1701 0.169192,-0.2287 0.162524,-0.1565 0.313475,-0.249 0.534881,-0.1846 -0.101759,-0.4264 -0.03884,-0.6927 0.0947,-1.0557 0.08018,-0.2179 0.0905,-0.095 0.115096,-0.3395 0.01805,-0.1797 -0.06426,-0.3655 0.02032,-0.5389 0.08513,-0.1746 0.369218,-0.4721 0.514599,-0.6274 0.41029,-0.4382 0.667708,-0.056 1.096553,-0.089 0.243256,-0.019 0.399189,-0.3258 0.690578,-0.2584 0.197869,0.046 0.239922,0.2255 0.385852,0.3249 0.322693,0.2199 0.823013,0.2417 0.710741,0.8119 0.526603,0.059 2.263914,0.6572 1.63822,1.4838 -0.354939,0.4689 -0.936423,0.2868 -1.394533,0.4281 -0.17539,0.054 -0.243687,-0.1126 -0.243687,0.1615 0,0.1457 0.003,0.2919 -0.0068,0.4366 -0.0093,0.1368 -0.02236,0.2788 -0.04735,0.4132 -0.03621,0.195 -0.08352,0.4117 -0.189592,0.5758 -0.09458,0.1463 -0.187708,0.2541 -0.351918,0.3101 0.280209,0.2469 0.351879,0.5401 0.30457,0.9228 -0.02844,0.23 -0.05586,0.3118 -0.04735,0.5315 0.0083,0.2141 0.06728,0.3941 0,0.6126 -0.05892,0.1914 -0.224897,0.2985 -0.291154,0.4651 -0.104308,0.2622 -0.06245,0.6413 -0.108231,0.9449 -0.05531,0.3666 -0.234429,0.5796 -0.358784,0.8857 -0.286878,0.706 -0.214776,0.6563 -0.90708,0.8416 -0.598587,0.1601 -1.102359,0.5977 -1.489348,-0.2732 -0.209048,0.2358 -0.517541,0.3617 -0.8178349,0.3617 -0.4387704,0 -0.4715654,0 -0.8339188,0.1845 -0.245531,0.1261 -0.4752137,0.1938 -0.7514213,0.133 -0.2642038,-0.058 -0.4683487,-0.3684 -0.6972861,-0.4208 -0.1644849,-0.038 -0.2394898,0.074 -0.4264527,0.1551 -0.4823925,0.2103 -0.7746838,-0.1171 -1.1915255,-0.1108 -0.2687543,0 -0.5860733,0.3618 -0.9442685,0.3618 -0.1544425,0 -0.6123957,-0.1381 -0.7480477,-0.081 -0.097954,0.041 -0.1786072,0.2992 -0.2707549,0.406 -0.3286169,0.3811 -0.5300159,0.1377 -0.9071191,0.2437 -0.2678913,0.075 -0.409153,0.4428 -0.7887277,0.4428 -0.351997,0 -0.8341934,-0.2083 -1.1135393,-0.4354 -0.31257246,-0.2541 -0.2231315,-0.4939 -0.37910395,-0.7752 -0.26173235,-0.472 -0.61686769,-0.6302 -0.67704416,-1.2623 -0.0278522,-0.2926 0.11564553,-0.6206 0.0812814,-0.8932 -0.0184766,-0.1466 -0.1328276,-0.2087 -0.18272621,-0.369 -0.12761022,-0.4101 0.10054257,-0.6954 0.0811637,-1.0483 -0.0320104,-0.5833 -0.34238608,-0.9373 -0.0270676,-1.5502 0.46246443,-0.8988 0.67523965,-1.8502 1.84817092,-1.4173"
         id="path5"
         style="fill-rule:evenodd;stroke:#000000;stroke-width:0;stroke-linecap:square;stroke-miterlimit:10" />
      <path
         inkscape:connector-curvature="0"
         d="m 2.3742638,1048.393 c 0.2963318,0 0.5927029,0 0.8890348,0 0.069474,0 0.031579,0.6252 0.031579,0.7064 0,0.451 0,0.902 0,1.353 0,0.127 0.084145,0.7691 0,0.8638 -0.091951,0.1034 -0.7423596,0 -0.8890348,0 -0.069474,0 -0.031579,-0.6253 -0.031579,-0.7065 0,-0.7389 0,-1.4778 0,-2.2167"
         id="path7"
         style="fill-rule:evenodd;stroke:#000000;stroke-width:0;stroke-linecap:square;stroke-miterlimit:10" />
      <path
         inkscape:connector-curvature="0"
         d="m 11.628142,1046.8723 c 0.121883,0 0.920614,-0.042 0.920614,0.036 0,0.4431 0,0.8863 0,1.3294 0,0.6764 0,1.3528 0,2.0292 0,0.1631 0.104701,0.9235 0,1.0496 -0.06449,0.078 -0.920614,-0.012 -0.920614,-0.036 0,-0.4431 0,-0.8863 0,-1.3294 0,-1.0262 0,-2.0525 0,-3.0788"
         id="path9"
         style="fill-rule:evenodd;stroke:#000000;stroke-width:0;stroke-linecap:square;stroke-miterlimit:10" />
      <path
         sodipodi:nodetypes="cccccccccccsccccccccccsccccccccccccccccccccccccccccccc"
         inkscape:connector-curvature="0"
         d="m 10.80316,1046.378 c -0.281708,0.3252 -0.667289,0.4478 -1.0909893,0.42 -0.2522191,-0.016 -0.3498415,-0.04 -0.5647966,0.025 -0.1519191,0.046 -0.2697724,0.1572 -0.436307,0.1846 -0.4845789,0.079 -0.8247883,-0.3481 -1.1808775,-0.299 -0.3936507,0.054 -0.6188701,0.1831 -1.0524995,0.095 -0.1857613,-0.038 -0.1900754,-0.098 -0.359399,-0.064 -0.1801088,0.037 -0.3807459,0.2276 -0.5711932,0.2861 -0.3519612,0.1081 -0.7128479,0.095 -1.0011037,-0.1462 -0.431249,0.8576 -1.8357098,1.1422 -2.5991725,0.5407 -0.093829,-0.074 -0.1643403,-0.1453 -0.2246244,-0.2481 -0.026256,-0.045 -0.038491,-0.1078 -0.038491,-0.1622 0,-0.1834 -0.047528,-0.1053 -0.1540017,-0.2513 -0.2802972,-0.3842 -0.5253015,-0.6106 -0.5070785,-1.1323 0.00528,-0.1515 0.1222045,-0.3866 0.096283,-0.5279 -0.012682,-0.069 -0.12473359,-0.1226 -0.14756789,-0.2035 -0.072631,-0.2573 -0.012607,-0.4114 0.00639,-0.6616 0.023356,-0.3072 -0.4419598,-1.4024 0.14756779,-1.5203 0.071329,-0.3744 0.2224303,-0.732 0.6096844,-0.8523 0.2852433,-0.089 0.5216196,0.099 0.7701569,0.058 0.1357044,-0.023 0.2854664,-0.2003 0.4364557,-0.2482 0.3749815,-0.1185 0.6629396,0.1676 0.9112165,0.1337 0.1627042,-0.022 0.275165,-0.1782 0.4652776,-0.1782 0.1993357,0 0.3075943,0.1588 0.478108,0.1909 0.033731,0.01 0.09766,0.084 0.1219442,0.1082 0.1393863,-0.2949 0.4177123,-0.3313 0.7123645,-0.2609 0.1333615,0.032 0.2904499,0.1508 0.4042869,0.1337 0.1284153,-0.019 0.3105692,-0.2415 0.4620792,-0.2864 0.4056256,-0.1201 0.6813857,0.1808 0.9882732,0.1654 0.1934224,-0.01 0.3130239,-0.1727 0.5391358,-0.1526 0.1464522,0.013 0.2543017,0.1345 0.38506,0.1591 0.1955793,0.036 0.1803316,-0.01 0.4107949,-0.07 0.2235088,-0.059 0.4227699,0.035 0.6289112,0.019 0.2334757,-0.018 0.62337,-0.3844 0.847102,-0.178 -0.162778,-0.3757 0.22481,-0.5362 0.539024,-0.5534 -0.100447,-0.3396 -0.115919,-0.7659 0.250249,-0.9414 -0.159358,-0.2943 0.09597,-0.5812 0.258572,-0.8102 -0.101812,-0.4674 0.262772,-0.7748 0.427558,-0.8416 0.218376,-0.089 0.469871,0.1378 0.666789,0.1508 0.215475,0.014 0.187523,-0.1157 0.425573,-0.1777 0.371188,-0.097 0.376586,0.081 0.634903,0.24 0.324666,0.2006 0.180982,0.6093 0.269234,1.0446 0.05999,0.2957 0.153219,0.6229 -0.205399,0.7442 0.329687,0.498 0.24508,2.0933 -0.455681,2.2963 0.233736,0.1738 0.32868,0.3885 0.295284,0.6805 -0.01946,0.1703 -0.06529,0.2781 -0.06426,0.439 10e-4,0.1634 0.06946,0.2957 0.01926,0.4707 -0.03484,0.1213 -0.125216,0.2013 -0.179624,0.3118 -0.110528,0.2243 -0.127151,0.3694 -0.1604,0.6487 -0.03696,0.31 -0.141728,0.52 -0.269622,0.7951 -0.0746,0.1605 -0.120235,0.4146 -0.256683,0.5598 -0.22269,0.2372 -0.420575,0.089 -0.68674,0.1718 -0.257573,0.079 -0.350585,0.3369 -0.660932,0.2099 -0.185129,-0.076 -0.357874,-0.3434 -0.340097,-0.5154"
         id="path11"
         style="fill:#ffffff;fill-rule:evenodd;stroke:#000000;stroke-width:0;stroke-linecap:square;stroke-miterlimit:10" />
    </g>
  </g>
</svg>
