<?xml version="1.0" encoding="UTF-8" standalone="no"?>
<!-- Created with Inkscape (http://www.inkscape.org/) -->

<svg
   xmlns:dc="http://purl.org/dc/elements/1.1/"
   xmlns:cc="http://creativecommons.org/ns#"
   xmlns:rdf="http://www.w3.org/1999/02/22-rdf-syntax-ns#"
   xmlns:svg="http://www.w3.org/2000/svg"
   xmlns="http://www.w3.org/2000/svg"
   xmlns:sodipodi="http://sodipodi.sourceforge.net/DTD/sodipodi-0.dtd"
   xmlns:inkscape="http://www.inkscape.org/namespaces/inkscape"
   id="svg2"
   version="1.1"
   inkscape:version="0.48.1 r9760"
   width="256"
   height="256"
   sodipodi:docname="dicebig.svg">
  <metadata
     id="metadata8">
    <rdf:RDF>
      <cc:Work
         rdf:about="">
        <dc:format>image/svg+xml</dc:format>
        <dc:type
           rdf:resource="http://purl.org/dc/dcmitype/StillImage" />
        <dc:title></dc:title>
      </cc:Work>
    </rdf:RDF>
  </metadata>
  <defs
     id="defs6" />
  <sodipodi:namedview
     pagecolor="#ffffff"
     bordercolor="#666666"
     borderopacity="1"
     objecttolerance="10"
     gridtolerance="10"
     guidetolerance="10"
     inkscape:pageopacity="0"
     inkscape:pageshadow="2"
     inkscape:window-width="1920"
     inkscape:window-height="1007"
     id="namedview4"
     showgrid="false"
     inkscape:zoom="3.2304688"
     inkscape:cx="128"
     inkscape:cy="128.14619"
     inkscape:window-x="0"
     inkscape:window-y="25"
     inkscape:window-maximized="1"
     inkscape:current-layer="svg2" />
  <rect
     style="fill:#ffffff;stroke:#000000;stroke-width:10.6312294;stroke-linecap:round;stroke-linejoin:round;stroke-miterlimit:4;stroke-opacity:1;stroke-dasharray:none"
     id="rect2987"
     width="159.04318"
     height="158.19269"
     x="5.2956147"
     y="7.3818612" />
  <path
     transform="matrix(10.631229,0,0,10.631229,106.50492,54.797169)"
     sodipodi:type="arc"
     style="fill:#000000;stroke:#000000;stroke-width:0.35433072;stroke-linecap:round;stroke-linejoin:round;stroke-miterlimit:4;stroke-opacity:1;stroke-dasharray:none"
     id="path3007-44"
     sodipodi:cx="2.96"
     sodipodi:cy="2.9200001"
     sodipodi:rx="0.95999998"
     sodipodi:ry="1"
     d="m 3.92,2.9200001 a 0.95999998,1 0 1 1 -1.9199999,0 0.95999998,1 0 1 1 1.9199999,0 z" />
  <rect
     style="fill:#ffffff;stroke:#000000;stroke-width:10.6312294;stroke-linecap:round;stroke-linejoin:round;stroke-miterlimit:4;stroke-opacity:1;stroke-dasharray:none"
     id="rect2987-9"
     width="159.04318"
     height="158.19269"
     x="91.621201"
     y="92.431694" />
  <path
     sodipodi:type="arc"
     style="fill:#000000;stroke:#000000;stroke-width:0.35433072;stroke-linecap:round;stroke-linejoin:round;stroke-miterlimit:4;stroke-opacity:1;stroke-dasharray:none"
     id="path3007"
     sodipodi:cx="2.96"
     sodipodi:cy="2.9200001"
     sodipodi:rx="0.95999998"
     sodipodi:ry="1"
     d="m 3.92,2.9200001 a 0.95999998,1 0 1 1 -1.9199999,0 0.95999998,1 0 1 1 1.9199999,0 z"
     transform="matrix(10.631229,0,0,10.631229,1.0431226,1.4283991)" />
  <path
     transform="matrix(10.631229,0,0,10.631229,106.50492,1.4283991)"
     sodipodi:type="arc"
     style="fill:#000000;stroke:#000000;stroke-width:0.35433072;stroke-linecap:round;stroke-linejoin:round;stroke-miterlimit:4;stroke-opacity:1;stroke-dasharray:none"
     id="path3007-4"
     sodipodi:cx="2.96"
     sodipodi:cy="2.9200001"
     sodipodi:rx="0.95999998"
     sodipodi:ry="1"
     d="m 3.92,2.9200001 a 0.95999998,1 0 1 1 -1.9199999,0 0.95999998,1 0 1 1 1.9199999,0 z" />
  <path
     transform="matrix(10.631229,0,0,10.631229,1.0431226,108.16594)"
     sodipodi:type="arc"
     style="fill:#000000;stroke:#000000;stroke-width:0.35433072;stroke-linecap:round;stroke-linejoin:round;stroke-miterlimit:4;stroke-opacity:1;stroke-dasharray:none"
     id="path3007-7"
     sodipodi:cx="2.96"
     sodipodi:cy="2.9200001"
     sodipodi:rx="0.95999998"
     sodipodi:ry="1"
     d="m 3.92,2.9200001 a 0.95999998,1 0 1 1 -1.9199999,0 0.95999998,1 0 1 1 1.9199999,0 z" />
  <path
     transform="matrix(10.631229,0,0,10.631229,1.0431226,54.797169)"
     sodipodi:type="arc"
     style="fill:#000000;stroke:#000000;stroke-width:0.35433072;stroke-linecap:round;stroke-linejoin:round;stroke-miterlimit:4;stroke-opacity:1;stroke-dasharray:none"
     id="path3007-6"
     sodipodi:cx="2.96"
     sodipodi:cy="2.9200001"
     sodipodi:rx="0.95999998"
     sodipodi:ry="1"
     d="m 3.92,2.9200001 a 0.95999998,1 0 1 1 -1.9199999,0 0.95999998,1 0 1 1 1.9199999,0 z" />
  <path
     transform="matrix(10.631229,0,0,10.631229,85.242457,193.21577)"
     sodipodi:type="arc"
     style="fill:#000000;stroke:#000000;stroke-width:0.35433072;stroke-linecap:round;stroke-linejoin:round;stroke-miterlimit:4;stroke-opacity:1;stroke-dasharray:none"
     id="path3007-3"
     sodipodi:cx="2.96"
     sodipodi:cy="2.9200001"
     sodipodi:rx="0.95999998"
     sodipodi:ry="1"
     d="m 3.92,2.9200001 a 0.95999998,1 0 1 1 -1.9199999,0 0.95999998,1 0 1 1 1.9199999,0 z" />
  <path
     transform="matrix(10.631229,0,0,10.631229,191.55475,193.21577)"
     sodipodi:type="arc"
     style="fill:#000000;stroke:#000000;stroke-width:0.35433072;stroke-linecap:round;stroke-linejoin:round;stroke-miterlimit:4;stroke-opacity:1;stroke-dasharray:none"
     id="path3007-1"
     sodipodi:cx="2.96"
     sodipodi:cy="2.9200001"
     sodipodi:rx="0.95999998"
     sodipodi:ry="1"
     d="m 3.92,2.9200001 a 0.95999998,1 0 1 1 -1.9199999,0 0.95999998,1 0 1 1 1.9199999,0 z" />
  <path
     transform="matrix(10.631229,0,0,10.631229,138.3986,140.05963)"
     sodipodi:type="arc"
     style="fill:#000000;stroke:#000000;stroke-width:0.35433072;stroke-linecap:round;stroke-linejoin:round;stroke-miterlimit:4;stroke-opacity:1;stroke-dasharray:none"
     id="path3007-75"
     sodipodi:cx="2.96"
     sodipodi:cy="2.9200001"
     sodipodi:rx="0.95999998"
     sodipodi:ry="1"
     d="m 3.92,2.9200001 a 0.95999998,1 0 1 1 -1.9199999,0 0.95999998,1 0 1 1 1.9199999,0 z" />
  <path
     transform="matrix(10.631229,0,0,10.631229,191.55475,86.903481)"
     sodipodi:type="arc"
     style="fill:#000000;stroke:#000000;stroke-width:0.35433072;stroke-linecap:round;stroke-linejoin:round;stroke-miterlimit:4;stroke-opacity:1;stroke-dasharray:none"
     id="path3007-9"
     sodipodi:cx="2.96"
     sodipodi:cy="2.9200001"
     sodipodi:rx="0.95999998"
     sodipodi:ry="1"
     d="m 3.92,2.9200001 a 0.95999998,1 0 1 1 -1.9199999,0 0.95999998,1 0 1 1 1.9199999,0 z" />
  <path
     transform="matrix(10.631229,0,0,10.631229,85.242457,86.903481)"
     sodipodi:type="arc"
     style="fill:#000000;stroke:#000000;stroke-width:0.35433072;stroke-linecap:round;stroke-linejoin:round;stroke-miterlimit:4;stroke-opacity:1;stroke-dasharray:none"
     id="path3007-62"
     sodipodi:cx="2.96"
     sodipodi:cy="2.9200001"
     sodipodi:rx="0.95999998"
     sodipodi:ry="1"
     d="m 3.92,2.9200001 a 0.95999998,1 0 1 1 -1.9199999,0 0.95999998,1 0 1 1 1.9199999,0 z" />
</svg>
